<svg xmlns="http://www.w3.org/2000/svg" viewBox="0 0 515.2 515.2" enable-background="new 0 0 515.2 515.2"><path fill="#fff" d="M437.6 281.6l37.6-36.8 30.4 29.6V168.8H399.2l30.4 30.4-36.8 37.6"/><path fill="#193651" d="M513.6 294.4L475.2 256l-32 31.2L432 276l43.2-43.2 22.4 22.4v-78.4h-78.4l21.6 22.4-42.4 43.2-12-12 32-31.2-38.4-38.4h133.6zM418.96 311.93l-11.3-11.32 11.3-11.3 11.3 11.3zM373.5 266.26l-11.3-11.32 11.3-11.3 11.3 11.3zM396.67 334.57l-11.32-11.3 11.32-11.32 11.3 11.3zM351.24 288.9l-11.3-11.33 11.3-11.3 11.32 11.3z"/><path fill="#fff" d="M77.6 281.6L40 244.8 9.6 274.4V168.8H116l-30.4 30.4 36.8 37.6"/><path fill="#193651" d="M1.6 294.4V160.8h133.6l-38.4 38.4 32 31.2-12 12-42.4-43.2L96 176.8H17.6v78.4L40 232.8 83.2 276 72 287.2 40 256zM95.7 312.08l-11.32-11.32 11.32-11.3 11.3 11.3zM141.38 266.64l-11.32-11.3 11.3-11.33 11.33 11.33zM118.3 334.38L107 323.06l11.3-11.3 11.32 11.3zM163.97 288.94l-11.3-11.32 11.3-11.3 11.32 11.3z"/><circle cx="257.6" cy="390.4" r="116.8" fill="#fff"/><path fill="#193651" d="M257.6 515.2c-68.8 0-124.8-56-124.8-124.8s56-124.8 124.8-124.8 124.8 56 124.8 124.8-56 124.8-124.8 124.8zm0-233.6c-60 0-108.8 48.8-108.8 108.8s48.8 108.8 108.8 108.8 108.8-48.8 108.8-108.8-48.8-108.8-108.8-108.8z"/><path fill="#fff" d="M289.6 156.8V86.4h43.2l-75.2-75.2-75.2 75.2h43.2v70.4"/><path fill="#193651" d="M297.6 156.8h-16V78.4h32l-56-56-56 56h32v78.4h-16V94.4h-54.4L257.6 0 352 94.4h-54.4zM281.6 175.2h16v16h-16zM217.6 175.2h16v16h-16zM281.6 207.2h16v16h-16zM217.6 207.2h16v16h-16zM281.6 239.2h16v16h-16zM217.6 239.2h16v16h-16z"/><g fill="#F15F50"><circle cx="257.6" cy="347.2" r="40.8"/><path d="M257.6 507.2c33.6 0 62.4-16 81.6-40-9.6-36.8-42.4-63.2-81.6-63.2s-72 27.2-81.6 63.2c19.2 24 48 40 81.6 40z"/></g><path fill="#193651" d="M257.6 515.2c-68.8 0-124.8-56-124.8-124.8s56-124.8 124.8-124.8 124.8 56 124.8 124.8-56 124.8-124.8 124.8zm0-233.6c-60 0-108.8 48.8-108.8 108.8s48.8 108.8 108.8 108.8 108.8-48.8 108.8-108.8-48.8-108.8-108.8-108.8z"/></svg>