<svg xmlns="http://www.w3.org/2000/svg" viewBox="0 0 512 512" enable-background="new 0 0 512 512"><path fill="#BB774B" d="M481.17 512H30.83c-8.3 0-15.02-6.7-15.02-15V405.9c0-41.4 33.7-75.06 75.07-75.06h48.94c4.7 0 9.14 2.2 11.97 5.95 2.84 3.75 3.77 8.6 2.5 13.13-2.25 8-3.35 16.5-3.35 25.96v32.4c64.97-36.23 145.2-36.23 210.16 0v-32.4c0-9.48-1.1-17.96-3.34-25.97-1.28-4.53-.35-9.38 2.5-13.12 2.82-3.74 7.25-5.94 11.95-5.94h48.93c41.38 0 75.05 33.67 75.05 75.06V497c0 8.3-6.7 15-15 15z"/><path fill="#A46141" d="M481.17 512c8.3 0 15-6.7 15-15V405.9c0-41.4-33.66-75.06-75.04-75.06H372.2c-4.7 0-9.14 2.2-11.97 5.95-2.84 3.75-3.77 8.6-2.5 13.13 2.25 8 3.35 16.5 3.35 25.96v32.4C328.6 390.2 292.3 381.14 256 381.14V512h225.17z"/><path fill="#E6EEFF" d="M376.1 450.95c-3.2 0-6.37-1-9.02-3-65.4-49.14-156.74-49.14-222.16 0-4.54 3.43-10.65 3.97-15.73 1.42-5.1-2.54-8.3-7.74-8.3-13.43V375.9c0-12.26 1.45-23.4 4.45-34.1 4.78-19.1 14.37-37.7 27.62-53.35 2.96-3.5 7.33-5 11.88-5.32 4.56.13 8.82 2.33 11.56 5.97 20.05 26.54 49.07 41.76 79.6 41.76s59.55-15.22 79.6-41.76c2.73-3.64 7-5.84 11.55-5.97 4.56-.16 8.92 1.83 11.88 5.32 13.25 15.66 22.84 34.26 27.72 53.77 2.9 10.28 4.35 21.42 4.35 33.68v60.04c0 5.7-3.2 10.9-8.3 13.43-2.12 1.06-4.42 1.58-6.7 1.58z"/><path fill="#DAE2F2" d="M367.08 447.95c2.65 2 5.82 3 9 3 2.3 0 4.6-.52 6.73-1.58 5.1-2.54 8.3-7.74 8.3-13.43V375.9c0-12.26-1.45-23.4-4.35-33.68-4.88-19.5-14.47-38.1-27.72-53.77-2.96-3.5-7.32-5.48-11.87-5.32-4.56.13-8.83 2.33-11.57 5.97-20.05 26.55-49.06 41.76-79.6 41.76v80.24c39.19 0 78.37 12.28 111.08 36.85z"/><path fill="#5C5F66" d="M256.1.8c106.06.07 191.3 84.75 194.93 188.1 18.37 10.65 30.14 30.4 30.14 51.9 0 33.1-26.93 60.04-60.04 60.04h-65.15c-5.4 0-10.36-2.9-13.03-7.58-2.7-4.68-2.64-10.44.1-15.07 11.63-19.67 18.03-43.6 18.03-67.43V135.7c0-138.26-210.16-139.32-210.16 0v75.07c0 23.82 6.4 47.76 18.02 67.42 2.75 4.62 2.8 10.38.1 15.06-2.65 4.7-7.62 7.58-13.02 7.58H90.87c-33.1 0-60.04-26.93-60.04-60.05 0-21.56 11.8-41.32 30.24-51.96C66 83.87 151 .7 256.1.8z"/><path fill="#53565C" d="M451.03 188.9C447.4 85.54 362.16.87 256.1.8c-.03 0-.07 0-.1 0v30.8c52.54.15 105.08 34.98 105.08 104.1v75.07c0 23.82-6.4 47.76-18.02 67.42-2.75 4.62-2.8 10.38-.1 15.06 2.66 4.7 7.63 7.58 13.02 7.58h65.15c33.1 0 60.04-26.93 60.04-60.05 0-21.5-11.77-41.25-30.14-51.9z"/><path fill="#FDD9BC" d="M351.47 39.94C322.95 12.02 289.02-.3 256 0c-69.65.6-135.1 56.15-135.1 135.7v75.07c0 83.16 60.64 150.1 135.1 150.1 72.96 0 135.1-65.14 135.1-150.1V135.7c0-35.72-14.1-69.64-39.63-95.76z"/><path fill="#FCCBAC" d="M391.1 135.7v75.07c0 84.96-62.14 150.12-135.1 150.12V0c33.02-.3 66.95 12 95.47 39.94C377 66.06 391.1 99.98 391.1 135.7z"/><g fill="#5C5F66"><circle cx="210.962" cy="150.726" r="15.012"/><circle cx="301.032" cy="150.726" r="15.012"/></g><path fill="#FBC7A7" d="M256 240.8c-8.3 0-15-6.72-15-15.02v-45.03c0-8.3 6.7-15.02 15-15.02s15 6.72 15 15.02v45.03c0 8.3-6.7 15-15 15z"/><g fill="#5C5F66"><path d="M256 300.84c-3.9 0-7.8-1.5-10.5-4.52-3.02-2.7-4.5-6.6-4.5-10.5 0-3.9 1.48-7.8 4.5-10.5 5.38-5.7 15.6-5.7 21 0 3 2.7 4.5 6.6 4.5 10.5 0 3.9-1.5 7.8-4.5 10.5-2.7 3-6.6 4.52-10.5 4.52zM297.5 268.3c-5.83 0-11.4-3.44-13.82-9.16-4.72-11.15-15.6-18.35-27.68-18.35-12.1 0-22.96 7.2-27.68 18.33-3.25 7.65-12.1 11.17-19.67 7.97-7.64-3.22-11.2-12.03-7.97-19.67 9.42-22.27 31.13-36.66 55.32-36.66 24.18 0 45.9 14.38 55.33 36.65 3.24 7.64-.34 16.45-7.96 19.7-1.93.8-3.9 1.17-5.87 1.17z"/></g><path fill="#FAB794" d="M271 225.78v-45.03c0-8.3-6.7-15.02-15-15.02v75.06c8.3 0 15-6.72 15-15.02z"/><path fill="#53565C" d="M283.68 259.15c2.43 5.7 8 9.14 13.82 9.14 1.97 0 3.94-.4 5.87-1.2 7.62-3.23 11.2-12.04 7.96-19.68-9.45-22.27-31.16-36.65-55.33-36.65v30.02c12.1 0 22.96 7.2 27.68 18.35z"/></svg>