<svg xmlns="http://www.w3.org/2000/svg" viewBox="0 0 50 50"><title>btn_libros</title><path fill="#4c8f50" d="M17.53 10.8a15.18 15.18 0 0 0-1.44 1.67 15.2 15.2 0 0 1 1.43-1.67zm-1.44 1.67q-.4.52-.73 1.07a.97.97 0 0 0-.13.37.97.97 0 0 1 .13-.36q.34-.55.72-1.07zM19.1 11.97c-.04.03-.07.08-.1.1.03-.02.06-.07.1-.1zM27.93 6.45a14.62 14.62 0 0 0-10.24 4.18 14.65 14.65 0 0 1 20.27-.2.97.97 0 0 1 .3.68.97.97 0 0 0-.3-.67 14.58 14.58 0 0 0-10.04-3.98zM17.7 10.63h-.03.02zM10.35 40.23h-.98a4.85 4.85 0 0 0-2.93.98 4.85 4.85 0 0 1 2.93-.97h.98zM42.28 42.2H9.38a2.93 2.93 0 0 0-2.94 2.92 2.93 2.93 0 0 1 2.93-2.93h32.9zM12.3 45.12a.98.98 0 0 0 .98.97h28.27a5.68 5.68 0 0 0 .73 1.95 5.68 5.68 0 0 1-.73-1.96H13.28a.98.98 0 0 1-.98-.98zM40.15 27.3a.96.96 0 0 1 .26.24.97.97 0 0 0-.25-.24zM40.44 27.57a.98.98 0 0 1 .16.34.98.98 0 0 0-.16-.33zM40.6 27.9a.98.98 0 0 1 0 .42.98.98 0 0 0 0-.4zm0 .42a.97.97 0 0 1-.1.32 14.65 14.65 0 0 1-22.6 3.12.28.28 0 0 1-.05-.05.3.3 0 0 0 .04.06 14.65 14.65 0 0 0 22.6-3.12.97.97 0 0 0 .1-.32zm-22.8 3.3c0 .03.03.06.05.1-.02-.04-.04-.07-.05-.1zM19.1 30.26h.02-.02zm.02 0c.02.02.03.03.05.04-.02 0-.03-.02-.05-.03zm.05.04a.27.27 0 0 1 .06.04c.24.23.5.44.76.65-.27-.22-.53-.43-.77-.66a.27.27 0 0 0-.06-.04zM20.56 31.42c.27.2.54.37.83.54-.3-.17-.57-.35-.84-.54zM6.25.5A5.38 5.38 0 0 0 4 4.88v40.24a5.38 5.38 0 0 0 2.25 4.38H4.38A3.9 3.9 0 0 1 .5 45.62V4.38A3.9 3.9 0 0 1 4.38.5h1.87M9.37 0h-5A4.4 4.4 0 0 0 0 4.38v41.24A4.4 4.4 0 0 0 4.38 50h5a4.9 4.9 0 0 1-4.9-4.88V4.88A4.9 4.9 0 0 1 9.4 0zM9.37 44.14a.96.96 0 0 0-.3.06.96.96 0 0 1 .3-.06.95.95 0 0 1 .28.06.94.94 0 0 0-.28-.06zM8.42 45zm0 0a.82.82 0 0 0-.02.12.82.82 0 0 1 .02-.1zM10.33 45a.9.9 0 0 1 .02.12.9.9 0 0 0-.02-.1zM45.93.5A3.9 3.9 0 0 1 49.5 4.4v41.24a3.9 3.9 0 0 1-3.57 3.87v-.05a1.47 1.47 0 0 0-.58-1.66 3.22 3.22 0 0 1 0-5.36l.04-.03c.02 0 .05-.03.1-.07l.04-.04.03-.05h.02l.04-.07.03-.03.02-.03-.4-.32.42.28.03-.04.05-.08.03-.05v-.02a.84.84 0 0 0 .06-.1.66.66 0 0 0 .02-.08l.02-.05v-.02a1.1 1.1 0 0 0 .04-.12c0-.03 0-.07.02-.12v-.05c0-.04 0-.08 0-.12V1a1.48 1.48 0 0 0-.07-.47m-.3-.5h-1.1a.98.98 0 0 1 .98.98v40.24a.52.52 0 0 1 0 .08c0 .04 0 .07 0 .1l-.02.03a.37.37 0 0 1 0 .05.25.25 0 0 1-.02.04.35.35 0 0 1-.02.05s0 .02-.02.03a.46.46 0 0 1-.02.05v.03c-.03.02-.04.05-.06.07v.02l-.05.05a.22.22 0 0 0-.03.03s-.03.02-.04.04h-.02l-.03.05-.02.02a.57.57 0 0 1-.06.04l-.03.02a3.72 3.72 0 0 0 0 6.2.98.98 0 0 1-.54 1.78h1.1A4.4 4.4 0 0 0 50 45.62V4.38A4.4 4.4 0 0 0 45.62 0z"/><path fill="#ef4167" d="M36.55 21.08l.16-.8.86-.12-.76-.42.1-.8-.58.56-.75-.37.34.77-.57.58.85-.1.37.7zM19.9 19.77l.37-.75-.72.38-.58-.56.1.82-.74.37.82.14.16.8.4-.72.83.13-.62-.6zM43.55 1.95H12.3v38.28h31.25zm-28.18 11.6a14.68 14.68 0 0 1 2.16-2.75c.05-.05.1-.1.14-.16a14.65 14.65 0 0 1 20.3-.2.98.98 0 0 1-1.34 1.4 12.7 12.7 0 0 0-17.54.13c-.04.03-.07.08-.1.1a12.9 12.9 0 0 0-1.95 2.48.98.98 0 0 1-1.34.33.97.97 0 0 1-.33-1.34zm18.82 8.03c-1.77.1-1.94 2.3-2.08 2.18a9.65 9.65 0 0 0-1.64-.23c.64-6.35 4.97-6.48 4.97-6.47 2.95-.18 3.47 2.58 3.47 3.6a3.02 3.02 0 0 1-2.42 3.2 2.4 2.4 0 0 1-.87 0c.46-2.17-1.44-2.28-1.44-2.28zm-13.97 2.2a3.7 3.7 0 0 1-.87 0 3.5 3.5 0 0 1-2.42-3.23 3.28 3.28 0 0 1 3.46-3.6s4.34.13 4.98 6.5-1.45.18-1.64.22c-.18.03-.3-2.07-2.07-2.2 0 0-1.9.13-1.44 2.3zm9.2-.52c-.45-.04-.8 0-1.32 0 0-.06-.26-9.4-.26-9.4l-.3 9.38s-.63 0-1.3.03a13.35 13.35 0 0 0-.8-2.95c-.2-.33-1.57-3.37-1.48-4.34a4.98 4.98 0 0 1 2.2-4.03 11.8 11.8 0 0 0 1.68-1.47 15.48 15.48 0 0 0 1.66 1.47 4.9 4.9 0 0 1 2.2 4.15c0 .02.16 1.06-1.38 4.2a9.2 9.2 0 0 0-.88 2.96zm2.78 1.47c0 .78-4.28.76-4.28.76s-4.3.05-4.3-.75 4.3-.75 4.3-.75 4.3-.04 4.3.73zm-8.27 1.07l1.55.2c-.56 3.3-2.25 3.03-2.25 3.03a1.87 1.87 0 0 1-1.8-1.84c2.15.98 2.5-1.4 2.5-1.4zm2.36.33l1.36.05s.2 2.3.28 3.16c0 0 .3-2.36.36-3.15.42-.02 1.18-.07 1.18-.07a6.7 6.7 0 0 0 1.22 2.9c-.02.1-.3 1.3-2.77 2.68 0 0-1.35-.14-2.8-2.66a6.03 6.03 0 0 0 1.16-2.9zm3.88-.12l1.55-.2s.35 2.38 2.5 1.4a1.87 1.87 0 0 1-1.8 1.83s-1.7.28-2.25-3.02zM16.2 28.9a.98.98 0 1 1 1-.97.98.98 0 0 1-1 .98zm24.3-.26a14.65 14.65 0 0 1-22.6 3.12.92.92 0 0 1-.1-.13.95.95 0 0 1 1.3-1.37.92.92 0 0 1 .13.08c.24.23.5.44.76.65.18.14.37.28.56.42.27.2.54.37.83.54a12.68 12.68 0 0 0 17.4-4.33.98.98 0 0 1 1.35-.33.97.97 0 0 1 .26.24c.02 0 .03.02.04.03a.98.98 0 0 1 .05 1.07zm-.85-13.4a.98.98 0 1 1 .97-.98.98.98 0 0 1-.97.97z"/><path fill="#fcb757" d="M13.28 44.14h28.27a5.66 5.66 0 0 1 .73-1.95H9.38a2.93 2.93 0 0 0-2.94 2.92 2.93 2.93 0 0 0 2.93 2.93h32.9a5.68 5.68 0 0 1-.72-1.96H13.28a.98.98 0 0 1-.98-.98.98.98 0 0 1 .98-.98zm-2.93.98a.98.98 0 1 1-1.95 0 .93.93 0 0 1 .02-.1 1 1 0 0 1 .95-.88.94.94 0 0 1 .28.06.95.95 0 0 1 .68.8.9.9 0 0 1 .02.12z"/><path fill="#51bbeb" d="M10.35 40.23V1.95h-.98a2.93 2.93 0 0 0-2.93 2.93V41.2a4.85 4.85 0 0 1 2.93-.97z"/><path fill="#fff" d="M15.7 14.88a.98.98 0 0 0 1.35-.33A12.9 12.9 0 0 1 19 12.08c.03-.03.06-.08.1-.1a12.7 12.7 0 0 1 17.53-.13.98.98 0 1 0 1.34-1.42 14.64 14.64 0 0 0-20.3.2c-.05.06-.1.12-.14.17a14.67 14.67 0 0 0-2.15 2.74.97.97 0 0 0 .33 1.34zM15.26 14.28a.98.98 0 0 1-.02-.37.98.98 0 0 0 .02.38zM17.53 10.8c.05-.05.1-.1.14-.16-.05.05-.1.1-.14.16zM16.2 15.02a.97.97 0 0 1-.5-.14.98.98 0 0 0 1.35-.33A12.9 12.9 0 0 1 19 12.08a12.9 12.9 0 0 0-1.95 2.47.97.97 0 0 1-.84.47zM36.63 11.85a12.7 12.7 0 0 0-17.54.12 12.7 12.7 0 0 1 17.53-.12.98.98 0 0 0 1.65-.74.98.98 0 0 1-1.65.75zM15.26 14.28a.97.97 0 0 0 .45.6.97.97 0 0 1-.44-.6z"/><path d="M45.47 49.3a.98.98 0 0 0-.4-1.1 3.72 3.72 0 0 1 0-6.18h.02a.57.57 0 0 0 .05-.05l.02-.02.04-.04h.03c.02-.03.03-.04.04-.05a.22.22 0 0 1 .02-.03l.03-.05v-.02c.03-.02.04-.05.06-.07v-.03a.46.46 0 0 0 .02-.05s0-.02.02-.04a.34.34 0 0 0 .02-.04.24.24 0 0 0 0-.04.37.37 0 0 0 .02-.05v-.03c.02-.03.02-.06.02-.1a.52.52 0 0 0 0-.08V.98a.98.98 0 0 0-.97-.98H9.37A4.9 4.9 0 0 0 4.5 4.88v40.24A4.9 4.9 0 0 0 9.36 50h35.16a.98.98 0 0 0 .94-.7zM12.3 1.96h31.25v38.28H12.3zM6.44 41.2V4.9a2.93 2.93 0 0 1 2.93-2.93h.98v38.28h-.98a4.85 4.85 0 0 0-2.93.98zm6.84 4.9h28.27a5.68 5.68 0 0 0 .73 1.95H9.38a2.93 2.93 0 0 1-2.94-2.93 2.93 2.93 0 0 1 2.93-2.93h32.9a5.66 5.66 0 0 0-.72 1.94H13.28a.98.98 0 0 0 0 1.95zM6.45 45.12a2.93 2.93 0 0 0 2.93 2.93 2.93 2.93 0 0 1-2.93-2.93zM13.28 44.14h28.27a5.66 5.66 0 0 1 .73-1.95 5.66 5.66 0 0 0-.73 1.94H13.28a.98.98 0 0 0-.98.98.98.98 0 0 1 .98-.98z"/><path fill="#fff" d="M16.2 26.95a.98.98 0 1 0 1 .98.98.98 0 0 0-1-.98zM16.2 28.9a.98.98 0 0 0 1-.97.98.98 0 0 1-1 .98zM16.2 26.95a.98.98 0 0 0-.97.98.98.98 0 0 1 .98-.98zM15.23 27.93a.98.98 0 0 0 .98.98.98.98 0 0 1-.97-.97zM16.2 26.95a.98.98 0 0 1 1 .98.98.98 0 0 0-1-.98z"/><path d="M9.65 44.2a.95.95 0 0 0-.28-.06 1 1 0 0 0-.95.87.93.93 0 0 0-.02.12.98.98 0 1 0 1.95 0 .9.9 0 0 0-.02-.1.96.96 0 0 0-.68-.82zM10.33 45a.95.95 0 0 0-.68-.8.96.96 0 0 1 .68.8zM9.37 46.1a.98.98 0 0 1-.97-.98.98.98 0 1 0 1.95 0 .98.98 0 0 1-.98.97zM9.06 44.2a.96.96 0 0 0-.64.8.96.96 0 0 1 .64-.8z"/><path fill="#fff" d="M39.65 13.28a.98.98 0 1 0 .97.98.98.98 0 0 0-.97-.98zM38.67 14.26a.98.98 0 0 0 .98.97.98.98 0 0 1-.98-.97zM39.65 15.23a.98.98 0 0 0 .97-.97.98.98 0 0 1-.97.97zM39.65 13.28a.98.98 0 0 1 .97.98.98.98 0 0 0-.97-.98zM39.65 13.28a.98.98 0 0 0-.98.98.98.98 0 0 1 .98-.98zM27.93 35.74a14.65 14.65 0 0 0 12.56-7.1.97.97 0 0 0 .1-.73.98.98 0 0 0-.16-.33s-.02-.02-.03-.03a.96.96 0 0 0-.25-.24.98.98 0 0 0-1.34.33 12.68 12.68 0 0 1-17.4 4.33c-.3-.17-.57-.35-.84-.54-.2-.14-.38-.28-.57-.43-.27-.22-.53-.43-.77-.66a.92.92 0 0 0-.13-.08.95.95 0 0 0-1.3 1.37.92.92 0 0 0 .1.13 14.6 14.6 0 0 0 10.03 3.98zM38.8 27.63a.98.98 0 0 1 1.35-.33.98.98 0 0 0-1.34.33 12.68 12.68 0 0 1-17.4 4.33 12.68 12.68 0 0 0 17.4-4.32zM40.4 27.54c.02 0 .03.02.04.03 0 0-.02-.02-.03-.03zM20 31c.18.14.37.28.56.42-.2-.14-.38-.28-.57-.43zM17.85 30.38a.96.96 0 0 1 1.25-.12.95.95 0 0 0-1.3 1.37.96.96 0 0 1 .05-1.25z"/><path fill="#ef4167" stroke="#fff" stroke-width=".25" d="M27.93 31.7c2.46-1.38 2.75-2.58 2.77-2.66a6.7 6.7 0 0 1-1.22-2.9s-.76.04-1.18.05c-.07.78-.36 3.14-.36 3.14-.08-.86-.28-3.16-.28-3.16l-1.37-.05a6.03 6.03 0 0 1-1.17 2.9c1.45 2.53 2.8 2.68 2.8 2.68zM23.23 29.03s1.7.27 2.25-3.02l-1.55-.2s-.35 2.38-2.5 1.4a1.87 1.87 0 0 0 1.8 1.83zM19.06 19.66zM32.43 29.03a1.87 1.87 0 0 0 1.8-1.83c-2.15.98-2.5-1.4-2.5-1.4l-1.55.2c.56 3.3 2.25 3.03 2.25 3.03zM30.48 23.53zM27.94 24s-4.32-.05-4.32.75 4.3.74 4.3.74 4.3 0 4.3-.77-4.28-.73-4.28-.73zM36.5 23.86a3.02 3.02 0 0 0 2.42-3.2c0-1.02-.52-3.78-3.47-3.6 0 0-4.33.12-4.97 6.47a9.65 9.65 0 0 1 1.64.23c.14.12.3-2.07 2.07-2.18 0 0 1.9.1 1.43 2.28a2.4 2.4 0 0 0 .87 0zm-1.17-3.38l.58-.58-.33-.77.75.37.58-.56-.1.8.76.42-.85.13-.15.78-.37-.7zM31.7 16.1a4.9 4.9 0 0 0-2.2-4.15 15.48 15.48 0 0 1-1.66-1.47 11.8 11.8 0 0 1-1.67 1.47 4.98 4.98 0 0 0-2.2 4.03c-.1.97 1.27 4 1.47 4.34a13.35 13.35 0 0 1 .8 2.95c.67-.02 1.3-.03 1.3-.03l.3-9.4s.27 9.36.27 9.4c.53.03.88-.02 1.34.02a9.2 9.2 0 0 1 .88-2.96c1.54-3.14 1.4-4.18 1.4-4.2zM21.67 21.48c1.76.12 1.9 2.22 2.07 2.2.2-.05 1.64-.24 1.64-.24-.64-6.36-4.98-6.5-4.98-6.48a3.28 3.28 0 0 0-3.46 3.6 3.5 3.5 0 0 0 2.42 3.2 3.7 3.7 0 0 0 .87 0c-.46-2.16 1.44-2.28 1.44-2.28zm-1.97-1.23l-.4.73-.15-.8-.82-.15.73-.37-.1-.82.6.56.7-.38-.35.75.63.6z" stroke-linecap="square" stroke-linejoin="round"/></svg>