<svg xmlns="http://www.w3.org/2000/svg" viewBox="0 0 50 50"><title>btn_search</title><path fill="#4c8f50" d="M45.62.5a3.9 3.9 0 0 1 3.88 3.88v34.28q-.06-.04-.1-.08l-11.67-7.35a.85.85 0 0 0-.34-.58l-.06-.03a.88.88 0 0 0-.53-.18.9.9 0 0 0-.68.33l-4.5-2.8-1.2-.78A16.03 16.03 0 0 0 15.55 5.17a15.96 15.96 0 0 0-13.62 7.55 16.2 16.2 0 0 0-1.44 2.9V4.4A3.9 3.9 0 0 1 4.38.5h41.24M.5 26.8a16.04 16.04 0 0 0 15.02 10.46 16.1 16.1 0 0 0 11.54-4.88l5.97 3.72a.9.9 0 0 0 .84 1.16q.04 0 .07 0l11.76 7.22a2.24 2.24 0 0 0 1.2.34 3.45 3.45 0 0 0 2.6-1.37v2.17a3.9 3.9 0 0 1-3.88 3.88H4.38A3.9 3.9 0 0 1 .5 45.62V26.8M45.62 0H4.38A4.4 4.4 0 0 0 0 4.38v41.24A4.4 4.4 0 0 0 4.38 50h41.24A4.4 4.4 0 0 0 50 45.62V4.38A4.4 4.4 0 0 0 45.62 0zm-30.1 36.76a15.55 15.55 0 1 1 14.27-9.38l1.56 1 4.92 3.08.2-.33a.4.4 0 0 1 .56-.1l.05.03a.38.38 0 0 1 .1.44L49.13 39c1.04.65 1.18 2.3.32 3.68l-.04.05a3.13 3.13 0 0 1-2.5 1.6 1.76 1.76 0 0 1-.93-.27l-11.9-7.3.02-.06a.4.4 0 0 1-.23.06.37.37 0 0 1-.18-.04h-.02a.4.4 0 0 1-.14-.54l.14-.26-6.7-4.2a15.56 15.56 0 0 1-11.46 5.04z"/><path fill="#909ba0" d="M31.36 28.4l3.12 1.98-6.8 1.76-.65-.47c-.02.02-.04.04-.06.06l6.7 4.2 2.6-4.47z"/><path fill="#2e4661" d="M49.12 39l-11.9-7.5c-.02.02 0 .05-.03.07l-.2.33 7.1 4.43-2.74 4.38-7-4.36-.14.24a.38.38 0 0 1-.13.12l-.04.05 11.9 7.3c1.04.66 2.58.06 3.44-1.32l.04-.05c.86-1.38.72-3.03-.32-3.67zM41.36 40.7l2.73-4.37L37 31.9l-2.65 4.44 7 4.37z"/><path fill="#4c8f50" d="M29.8 27.38l-.02.02 1.58 1-1.57-1.02z"/><path fill="#272525" d="M31.36 28.4l-1.57-1.02-.02.02z" opacity=".12"/><path fill="#909ba0" d="M28.72 29.45a15.6 15.6 0 0 1-1.7 2.22l.66.47 6.8-1.76-3.12-2-1.58-.98a15.57 15.57 0 0 1-1.06 2.05z"/><path fill="#272525" d="M28.72 29.45a15.6 15.6 0 0 1-1.7 2.22l.66.47 6.8-1.76-3.12-2-1.58-.98a15.57 15.57 0 0 1-1.06 2.05z" opacity=".12"/><path fill="#59595b" d="M12.37 34.2h-.04zM3.02 16.53c.06-.15.13-.3.2-.44-.07.13-.14.28-.2.43zM11.72 34.02c-.26-.08-.53-.15-.8-.25.27.1.54.17.8.25zM2.96 16.73a13.2 13.2 0 0 0 4.98 15.54 13.5 13.5 0 0 0 2.9 1.46 13.36 13.36 0 0 1-7.88-17zM24.88 31.5a13.94 13.94 0 0 1-22.92-6.32 13.94 13.94 0 0 1 24.2-12.68 13.82 13.82 0 0 1 2.12 13.97l.52.32v-.04l1 .62a15.5 15.5 0 1 0-2.83 4.35l-1.45-.9c-.2.22-.42.46-.64.67zM26.93 31.6l1.87-4.8-.52-.33a13.82 13.82 0 0 1-2.76 4.36l1.45.9c.02-.02.04-.04.06-.06zM28.8 26.8l.98.6v-.02l-.97-.62zM29.78 27.4l-.98-.6-1.87 4.8.1.07a14.5 14.5 0 0 0 2.75-4.27z"/><path fill="#b3d1e2" d="M17.13 34.43a13.36 13.36 0 0 0 7.78-3.98l-4.13-2.6 2.73-4.37 4.18 2.6a13.38 13.38 0 0 0 .9-4.76 13.23 13.23 0 0 0-8.83-12.48 13.23 13.23 0 0 0-16.2 6.5c-.13.25-.23.5-.34.75-.05.13-.12.28-.18.43-.02.07-.04.13-.06.2a13.36 13.36 0 0 0 7.87 17c.03 0 .07.03.1.04.26.1.53.17.8.25.2.06.4.12.6.17h.04a12.92 12.92 0 0 0 4.76.23zm9.12-16.9a1.23 1.23 0 1 1-1.7.38 1.23 1.23 0 0 1 1.7-.38zm-13.53-6.15a9.5 9.5 0 0 0-6.8 9.3c0 1.2-1.86 1.15-1.88-.05a10.32 10.32 0 0 1 .06-1.4 11.4 11.4 0 0 1 8.8-9.82 11.42 11.42 0 0 1 12.2 5.42c.62 1.04-1.04 1.9-1.65.87a9.5 9.5 0 0 0-10.73-4.32zM20.77 27.86l4.14 2.6c.13-.14.26-.27.38-.4a13.24 13.24 0 0 0 2.4-3.97l-4.18-2.62z"/><path fill="#fff" d="M23.45 15.7c.6 1.03 2.27.16 1.66-.88a11.42 11.42 0 0 0-12.2-5.4 11.4 11.4 0 0 0-8.8 9.82 10.32 10.32 0 0 0-.06 1.4c.02 1.2 1.9 1.25 1.87.04a9.4 9.4 0 0 1 17.55-5z" opacity=".31"/><path fill="#b3d1e2" d="M24.55 17.9a1.23 1.23 0 1 0 1.7-.38 1.23 1.23 0 0 0-1.7.4z"/><path fill="#fff" d="M24.55 17.9a1.23 1.23 0 1 0 1.7-.38 1.23 1.23 0 0 0-1.7.4z" opacity=".31"/><path fill="#a36652" d="M37.2 31.5a.38.38 0 0 0-.1-.44l-.06-.04a.4.4 0 0 0-.57.1l-.2.34.68.42zM33.68 35.92l-.14.26a.4.4 0 0 0 .14.53v.02a.4.4 0 0 0 .4-.02l.24-.38zM36.95 31.88l-.67-.42-2.6 4.46.63.4 2.65-4.44zM34.22 36.58l.13-.24-.04-.02-.2.38a.38.38 0 0 0 .12-.12zM36.95 31.88l.04.02.2-.33c0-.02 0-.05 0-.07zM34.31 36.32l.05.02L37 31.9l-.05-.02-2.64 4.44z"/><path fill="#6a8678" d="M28.9 21.65a13.26 13.26 0 0 1-.98 4.6l.36.22a14.13 14.13 0 0 0 1-5.15.34.34 0 0 1-.4.33zM12.37 34.2h-.04c-.2-.06-.4-.12-.6-.18-.27-.08-.54-.16-.8-.25-.03 0-.07-.03-.1-.04a13.5 13.5 0 0 1-2.9-1.46 13.2 13.2 0 0 1-4.97-15.54c.02-.07.04-.13.06-.2.06-.15.13-.3.2-.44a13.35 13.35 0 0 1 25.68 4.88.34.34 0 0 1 .4.34A13.95 13.95 0 0 0 18.27 7.7a13.94 13.94 0 1 0 6.6 23.8c.22-.2.43-.45.64-.67l-.42-.27a13.38 13.38 0 0 1-12.73 3.64zM28.9 20.98c0 .22 0 .45 0 .67a.34.34 0 1 0 0-.67zM26.88 28.3a13.4 13.4 0 0 1-1.78 2.26l.42.27a13.82 13.82 0 0 0 2.76-4.36l-.36-.23a13.4 13.4 0 0 1-1.04 2.06zM12.33 34.2c-.2-.06-.4-.12-.6-.18.2.06.4.12.6.17zM10.93 33.77c-.03 0-.07-.03-.1-.04.03 0 .07.03.1.04zM2.96 16.73c.02-.07.04-.13.06-.2-.02.07-.04.13-.06.2zM10.25 9.1a13.23 13.23 0 0 1 16.56 5.6 13.24 13.24 0 0 1 1.78 6.62.33.33 0 0 1 .32-.34 13.34 13.34 0 0 0-25.7-4.9c.12-.24.22-.5.34-.73a13.33 13.33 0 0 1 6.7-6.24zM17.13 34.43a12.92 12.92 0 0 1-4.76-.23 13.38 13.38 0 0 0 12.73-3.64l-.2-.1a13.36 13.36 0 0 1-7.77 3.97zM28.58 21.32a.33.33 0 0 0 .3.33c.02-.22.02-.45.02-.67a.33.33 0 0 0-.32.34zM28.58 21.32a13.38 13.38 0 0 1-.9 4.77l.24.14a13.26 13.26 0 0 0 .97-4.6.33.33 0 0 1-.32-.32zM25.28 30.06c-.12.13-.25.26-.37.4l.2.1a12.92 12.92 0 0 0 2.82-4.32l-.24-.15a13.24 13.24 0 0 1-2.4 3.96z"/></svg>