<svg xmlns="http://www.w3.org/2000/svg" viewBox="0 0 50 50"><title>btn_historias</title><path fill="none" d="M37.6 23.74l.3-1.34 1.44-.22-1.3-.7.18-1.38-1 .93-1.28-.62.6 1.32-1 1 1.44-.2.63 1.22zM23.9 29.12s-6.35 0-6.35.66 6.34.66 6.34.66 6.3-.16 6.3-.64-6.3-.68-6.3-.68zM11.87 20.38l-1.22.64-1-.95.15 1.4-1.23.63 1.4.24.26 1.37.66-1.23 1.4.23-1.04-1.05.6-1.27z"/><path fill="#4c8f50" d="M45.62.5a3.9 3.9 0 0 1 3.88 3.88v41.24a3.9 3.9 0 0 1-3.88 3.88H30.5c.55-.27 1.03-.8 1.63-2.26a2.7 2.7 0 0 1 1.8-1.44c.27-.1.55-.23.84-.37.27-.14.56-.28.86-.42a15.5 15.5 0 0 0 2.14-1.14 24.6 24.6 0 0 0 9.4-27.6A24.12 24.12 0 0 0 30.8.5h14.82M16.7.5A23.46 23.46 0 0 0 5.36 7.9C4.78 6.54 3.6 4.15 2.8 4.15a.72.72 0 0 0-.26.07c-.53.27-.68 1.27-.8 9.82-.03 1.02-.04 2-.06 2.8a.5.5 0 0 0 .9.3 9.96 9.96 0 0 1 4.94-3.83 11.1 11.1 0 0 1 2.9-.53c.63-.05 1.1-.08 1.24-.53a.88.88 0 0 0-.13-.8c-.54-.75-2.46-1.32-3.63-1.6a20.77 20.77 0 0 1 15.93-7.22 21.14 21.14 0 0 1 18.03 9.8 21.4 21.4 0 0 1-4.95 28.03 9.7 9.7 0 0 1-5.26 2.2 2.34 2.34 0 0 1-1.05-.56 2.12 2.12 0 0 0-1.2-.57c-.2 0-1 .06-1.67.1-.4.02-.78.04-.94.05-.44.02-.85.05-1.26.08-.8.06-1.55.12-2.43.12a23.14 23.14 0 0 1-2.66-.16.5.5 0 0 0-.54.6c.55 2.24 1.13 3.48 2.8 4.23a7.66 7.66 0 0 0-2.84 2.55c-.1.12-.2.25-.3.38H4.38A3.9 3.9 0 0 1 .5 45.62V4.38A3.9 3.9 0 0 1 4.38.5H16.7m4.2 7.37a.5.5 0 0 0-.08.05 8.94 8.94 0 0 0-3.97 7.1v.07a.5.5 0 0 0 0 .04 12.1 12.1 0 0 0 1.02 4.17 8.45 8.45 0 0 0-5.74-2.93.5.5 0 0 0-.1 0C5.66 17.2 5.7 22.78 5.7 23a5.64 5.64 0 0 0 4.42 5.93h.07a3.1 3.1 0 0 0 .78.1 5.33 5.33 0 0 0 .92-.08.5.5 0 0 0 .4-.6 2.9 2.9 0 0 1 .3-2.4 2.52 2.52 0 0 1 1.66-.88c1.9.15 2.53 2.04 2.83 2.94a1.95 1.95 0 0 0 .25.62c-1.28.4-1.28.92-1.28 1.18 0 .3 0 .85 1.53 1.27a.5.5 0 0 0-.15.3s-.37 2.34-2.13 2.34a3.47 3.47 0 0 1-1.43-.35.5.5 0 0 0-.72.44 3.68 3.68 0 0 0 3.5 3.63c.02 0 .03 0 .05 0 .03 0 .08 0 .16 0a3 3 0 0 0 1.74-.6.53.53 0 0 0 .03.13.5.5 0 0 0 .04.08c2.58 4.46 5.06 4.78 5.17 4.8a.5.5 0 0 0 .05 0 .5.5 0 0 0 .24-.07c1.75-.94 4.03-2.5 4.9-4.7a.5.5 0 0 0 .05-.46 3.03 3.03 0 0 0 1.84.68 1.25 1.25 0 0 0 .14 0 .5.5 0 0 0 .07 0 3.68 3.68 0 0 0 3.5-3.65.5.5 0 0 0-.7-.44 3.47 3.47 0 0 1-1.43.35c-1.76 0-2.12-2.26-2.14-2.35a.5.5 0 0 0-.08-.2c1.4-.43 1.4-.97 1.4-1.22 0-.26 0-.76-1.23-1.16a1.86 1.86 0 0 0 .27-.6c.3-.9.92-2.8 2.84-2.95a2.53 2.53 0 0 1 1.64.87 2.9 2.9 0 0 1 .32 2.42.5.5 0 0 0 .4.6 5.33 5.33 0 0 0 .9.08 3.1 3.1 0 0 0 .8-.1h.07a5.65 5.65 0 0 0 4.44-5.95c0-.24.04-5.8-6.35-6.62a.5.5 0 0 0-.1 0 8.38 8.38 0 0 0-5.47 2.65 9.33 9.33 0 0 0 .8-3.63 8.76 8.76 0 0 0-3.98-7.48 26.24 26.24 0 0 1-2.76-2.44.5.5 0 0 0-.37-.15.5.5 0 0 0-.38.17 22.4 22.4 0 0 1-2.65 2.37m3.03 19.85a1.06 1.06 0 0 0 .1.3h-.26a.5.5 0 0 0 .16-.3m-.05 3.85v.03l-.02-.03h.02M45.62 0H4.38A4.4 4.4 0 0 0 0 4.38v41.24A4.4 4.4 0 0 0 4.38 50h41.24A4.4 4.4 0 0 0 50 45.62V4.38A4.4 4.4 0 0 0 45.62 0zM5.22 8.86A23.18 23.18 0 0 1 23.7 0c9.8 0 19.6 5.8 23 16.4a24.18 24.18 0 0 1-9.22 27.05 26.96 26.96 0 0 1-2.93 1.53c-1.14.58-2.3.7-2.88 2.07-.8 1.92-1.26 2.02-2.06 2.2a37.68 37.68 0 0 1-7.63.75c-.7 0-1.4-.02-2.12-.06 1.27-1.58 1.88-2.66 4.32-3.4-2.55-.63-3.15-1.76-3.78-4.3a23.48 23.48 0 0 0 2.7.16c1.37 0 2.45-.13 3.72-.2.42-.02 2.25-.14 2.6-.15.54 0 1.4 1.13 2.22 1.13q.04 0 .07 0a10.23 10.23 0 0 0 5.52-2.3 21.93 21.93 0 0 0 5.07-28.7A21.67 21.67 0 0 0 23.82 2.15 21.24 21.24 0 0 0 6.98 10.2c.45.02 4.52.97 4.2 1.9-.1.32-1.56 0-3.82.74a10.52 10.52 0 0 0-5.18 4.03c.1-4.14.1-11.94.6-12.2a.1.1 0 0 1 .03 0c.55 0 2.33 3.73 2.42 4.2zm15.88-.52a20.98 20.98 0 0 0 2.83-2.5 26.57 26.57 0 0 0 2.83 2.5 8.34 8.34 0 0 1 3.77 7.05c0 .02.26 1.8-2.37 7.16a18.7 18.7 0 0 0-1.52 5.33c-.03-.03-.3-.24-1.4-.24-.23 0-.52 0-.85.04-.04 0-.47-16.14-.47-16.14l-.5 16.1s-.13 0-.33 0a5.68 5.68 0 0 0-1.84.23 24.8 24.8 0 0 0-1.42-5.32c-.35-.56-2.67-5.74-2.5-7.4a8.48 8.48 0 0 1 3.76-6.85zm8.97 19.96a16 16 0 0 0-2.8-.4v-.13c1.04-10.45 7.95-10.9 8.43-10.9a.1.1 0 0 1 .03 0c6.07.78 5.9 6.08 5.9 6.12 0 4.54-3.5 5.3-4.12 5.46a2.65 2.65 0 0 1-.65.08 4.82 4.82 0 0 1-.83-.08c.8-3.7-2.44-3.9-2.44-3.9-2.92.2-3.3 3.74-3.5 3.74zm-19.1.24a2.65 2.65 0 0 1-.65-.08C9.7 28.3 6.2 27.54 6.2 23c0-.05-.17-5.35 5.9-6.13a.1.1 0 0 1 .03 0c.47 0 7.4.45 8.44 10.9v.12a16.14 16.14 0 0 0-2.8.4c-.24 0-.6-3.54-3.52-3.73 0 0-3.23.2-2.44 3.9a4.83 4.83 0 0 1-.82.07zm12.62 2.53c-1.38 0-7.03-.07-7.03-1.27s5.67-1.27 7.05-1.27c.2 0 .3 0 .3 0s.07 0 .2 0c1.18 0 7.1.06 7.1 1.25 0 1.26-6.68 1.3-7.3 1.3h-.03s-.12 0-.3 0zm7.34 5.7c-.6 0-2.86-.3-3.68-5.14l2.63-.36s.4 2.78 2.62 2.78a3.92 3.92 0 0 0 1.63-.4 3.2 3.2 0 0 1-3.07 3.13s-.06 0-.14 0zM15.3 34.22c2.23 0 2.64-2.77 2.64-2.77l2.63.36c-.82 4.85-3.1 5.14-3.68 5.14-.1 0-.14 0-.15 0a3.2 3.2 0 0 1-3.07-3.14 3.92 3.92 0 0 0 1.63.4zm8.62 3.1a44.66 44.66 0 0 0 .4-5.47 5 5 0 0 1 .58-.02c.67 0 1.66.03 1.66.03a11.44 11.44 0 0 0 2.08 4.96c-.07 0-.5 2.27-4.72 4.53 0 0-2.3-.25-4.78-4.54a10.4 10.4 0 0 0 1.98-4.97h2.3s.2 5.2.5 5.47z"/><path d="M5.22 8.86c-.1-.47-1.98-4.43-2.45-4.2-.5.27-.5 8.07-.6 12.2a10.52 10.52 0 0 1 5.2-4.02c2.26-.74 3.7-.42 3.82-.73.3-.93-3.77-1.88-4.22-1.9 9.04-11.5 27.4-10.54 35.3 1.98a21.93 21.93 0 0 1-5.06 28.7 10.23 10.23 0 0 1-5.5 2.3c-.87.07-1.76-1.15-2.3-1.13-.35 0-2.18.13-2.6.15a30.7 30.7 0 0 1-6.43.03c.62 2.55 1.22 3.68 3.77 4.3-2.44.75-3.05 1.83-4.32 3.4a38.55 38.55 0 0 0 9.76-.68c.8-.18 1.27-.28 2.07-2.2.57-1.37 1.74-1.5 2.88-2.07a26.96 26.96 0 0 0 2.93-1.53A24.18 24.18 0 0 0 46.7 16.4C40.9-1.65 16.65-5.74 5.22 8.86z"/><path fill="#5f3089" d="M14.25 24.57c3 .2 3.3 3.92 3.52 3.72a16.14 16.14 0 0 1 2.8-.4v-.13c-1.1-10.8-8.47-10.92-8.47-10.9-6.07.78-5.9 6.08-5.9 6.12 0 4.54 3.5 5.3 4.12 5.46a4 4 0 0 0 1.5 0c-.8-3.7 2.43-3.9 2.43-3.9zm-3.36-2.1l-.67 1.24-.27-1.36-1.4-.25 1.24-.63-.14-1.4 1 .95 1.2-.65-.6 1.28 1.05 1.05zM37.5 28.46c.63-.17 4.14-.92 4.14-5.47 0-.05.16-5.35-5.9-6.13 0-.02-7.4.07-8.48 10.9v.12a16 16 0 0 1 2.8.4c.22.2.52-3.53 3.52-3.73 0 0 3.23.2 2.44 3.9a4 4 0 0 0 1.5 0zm-1.97-5.75l1-.98-.6-1.3 1.28.62 1.02-.94-.18 1.37 1.3.7-1.45.23-.3 1.34-.62-1.22zM31.2 29.78c0-1.32-7.28-1.25-7.28-1.25s-7.35-.1-7.35 1.27 7.32 1.27 7.32 1.27 7.3.03 7.3-1.3zm-7.3.66s-6.35 0-6.35-.66 6.34-.66 6.34-.66 6.3.2 6.3.68-6.3.64-6.3.64zM17.94 31.43s-.6 4.06-4.26 2.37a3.2 3.2 0 0 0 3.07 3.14c0-.02 2.87.45 3.82-5.15zM26.76 8.33a26.57 26.57 0 0 1-2.83-2.5 20.37 20.37 0 0 1-2.83 2.5 8.48 8.48 0 0 0-3.77 6.86c-.16 1.64 2.16 6.82 2.5 7.38a24.8 24.8 0 0 1 1.43 5.3 6.92 6.92 0 0 1 2.18-.22l.5-16.1s.42 16.14.45 16.14c1.94-.16 2.27.23 2.24.2a18.7 18.7 0 0 1 1.52-5.34c2.63-5.35 2.37-7.14 2.37-7.17a8.34 8.34 0 0 0-3.77-7.07zM23.92 41.33c4.26-2.28 4.66-4.58 4.72-4.54a11.44 11.44 0 0 1-2.08-4.97s-2.24-.03-2.24 0a44.66 44.66 0 0 1-.4 5.47c-.3-.26-.5-5.47-.5-5.47h-2.3a10.4 10.4 0 0 1-1.98 4.96c2.47 4.28 4.78 4.53 4.78 4.53zM31.08 36.78a3.2 3.2 0 0 0 3.07-3.14c-3.66 1.7-4.26-2.37-4.26-2.37l-2.64.36c.95 5.6 3.82 5.14 3.82 5.15z"/></svg>