<svg xmlns="http://www.w3.org/2000/svg" viewBox="0 0 50 50"><title>btn_varios</title><path fill="#4c8f50" d="M37.9 19.2a.85.85 0 0 0-.58.23.84.84 0 0 1 1.36.93.84.84 0 0 0-.78-1.17zm.78 1.16zM38.64 20.43a10 10 0 0 1-1.48 2.42 10 10 0 0 0 1.48-2.42zm-1.48 2.42a10.6 10.6 0 0 1-1.46 1.43 10.58 10.58 0 0 0 1.46-1.43zM36.04 12.7a.85.85 0 0 0-.67.32.84.84 0 0 1 1.48.72 80.26 80.26 0 0 1-3.26 10 80.27 80.27 0 0 0 3.25-10 .84.84 0 0 0-.8-1.05zM35.48 22.2zm0 0q-.06.07-.12.13.06-.06.12-.13zm-.12.13zm0 0zm0 0zm0 0l-.02.02zm-.02.02zm0 0zm0 0zm0 0zm0 0a9.38 9.38 0 0 1-1.5 1.2 9.38 9.38 0 0 0 1.5-1.2zm-1.5 1.2v.02zm0 .02l-.03.02.04-.04zM29.15 32.6zm0 0a42.13 42.13 0 0 1-4.13 5.6c.42.05.9.1 1.46.1a.84.84 0 0 1 .82.86.83.83 0 0 1-.38.67.83.83 0 0 0 .38-.67.84.84 0 0 0-.82-.86c-.55 0-1.04-.05-1.46-.1a42.12 42.12 0 0 0 4.13-5.6zM36.78 20.43zm0 0a8.37 8.37 0 0 1-1.23 1.7 8.37 8.37 0 0 0 1.23-1.7zM37.92 27.45a.87.87 0 0 0-.52.18.87.87 0 0 1 .52-.18.8.8 0 0 1 .58.24.84.84 0 0 1 0 1.18.84.84 0 0 0 0-1.2.8.8 0 0 0-.58-.23zm.58 1.43zM32.58 26.1zm0 0c-.72 1.6-1.5 3.18-2.38 4.73a13.66 13.66 0 0 0 4.33-1.2 13.66 13.66 0 0 1-4.33 1.2c.87-1.55 1.66-3.14 2.38-4.73zM20.56 24.3a.87.87 0 0 0-.15.1.87.87 0 0 1 .16-.1zm-.15.1a.8.8 0 0 0-.1.1.82.82 0 0 1 .1-.1zM31.67 14.82a.83.83 0 0 0-.66.34.83.83 0 0 1 .67-.34.84.84 0 0 1 .84.84 14.1 14.1 0 0 0 .7 4.33 14.08 14.08 0 0 1-.7-4.34.84.84 0 0 0-.83-.85zM12.24 29.66zm0 0c-.1.2-.16.4-.22.6a8.1 8.1 0 0 0 2.5 8.98 14.3 14.3 0 0 0 4.18 2.5c.23-.16.45-.35.68-.53-.23.2-.45.38-.68.55a14.3 14.3 0 0 1-4.17-2.5 8.1 8.1 0 0 1-2.5-9c.05-.2.12-.4.2-.6zM15.24 25.55zm0 0c-.28.27-.54.54-.78.8.24-.26.5-.53.78-.8zM16.27 24.3zm0 0a.83.83 0 0 1-.22.48.83.83 0 0 0 .22-.48zm-.22.48l-.03.02.03-.02zM20.9 24.24a.84.84 0 0 0-.28.05.84.84 0 0 1 1.12.78 16.8 16.8 0 0 0 3.76 9.88 16.8 16.8 0 0 1-3.76-9.88.84.84 0 0 0-.84-.84zm-.28.05q-.03 0-.05 0 .02 0 .05 0zM27.74 20.2a.84.84 0 0 0-.6.25.84.84 0 0 1 1.43.6 16.25 16.25 0 0 0 1.64 6.16 16.25 16.25 0 0 1-1.63-6.15.84.84 0 0 0-.84-.85zM24.42 36.32zm0 0c-.06.07-.12.14-.18.2.06-.06.12-.13.18-.2zm-.18.2c-.06.07-.12.14-.17.2.05-.06.1-.13.17-.2zM35.04 36.03a.84.84 0 0 0-.48.15 12.56 12.56 0 0 1-5.87 2.03.84.84 0 0 0-.57.3.84.84 0 0 1 .56-.3 12.56 12.56 0 0 0 5.86-2.02.84.84 0 1 1 .96 1.38.84.84 0 0 0-.48-1.53zm-6.9 2.48l-.02.02zM38.27 5.03c-1.26 2.8-3.68 5.4-6.6 7.84 2.92-2.45 5.34-5.03 6.6-7.84.14.86.3 1.84.45 2.9a.8.8 0 0 0 .06.18.8.8 0 0 1-.06-.16c-.16-1.07-.3-2.05-.45-2.9zm-6.6 7.84l-.1.1.1-.1zM29.53 14.6zm0 0c-.7.54-1.4 1.07-2.12 1.6.73-.53 1.44-1.06 2.13-1.6zm-2.12 1.6zM37.38 39.63zm0 0c-.16.33-.32.63-.5.93.18-.3.34-.6.5-.92zM20.4 42.58a20.02 20.02 0 0 0 8.88 2.64 8.12 8.12 0 0 0 4.65-1.32 8 8 0 0 0 .7-.54 8 8 0 0 1-.7.54 8.12 8.12 0 0 1-4.65 1.32 20.02 20.02 0 0 1-8.88-2.64zm14.23.78zM16.25 23.9a.84.84 0 0 1 .04.28.84.84 0 0 0-.05-.27zm.04.28v.04-.04zM45.62.5a3.9 3.9 0 0 1 3.88 3.88v41.24a3.9 3.9 0 0 1-3.88 3.88h-34.5c2.44-1.57 5.05-3.32 7.8-5.23 3.9 2.08 7.4 3.13 10.38 3.13a10.28 10.28 0 0 0 5.85-1.7c3.74-2.5 6-7.76 6.74-15.62a92.87 92.87 0 0 0-.63-19.52.5.5 0 0 0 0-.05 1.34 1.34 0 0 0-1-1.07q-.02-.22-.05-.44a1.34 1.34 0 0 0 .66-1.37c-.58-4-1.15-6.76-1.2-7.07q-.02-.03-.02-.06h5.96m-8.56 0a1.35 1.35 0 0 0-.04.34c0 5.85-7.22 11-14.2 15.97-2.03 1.47-3.96 2.84-5.74 4.25a1.34 1.34 0 0 0-.45 1.45q-.3.24-.57.48a1.34 1.34 0 0 0-1.5.2c-2.55 2.33-4.02 4.38-4.63 6.45a10.26 10.26 0 0 0 3.16 11.24 15.88 15.88 0 0 0 3 2.08c-2.7 1.86-5.27 3.57-7.64 5.08a1.34 1.34 0 0 0-.58 1.47h-3.5A3.9 3.9 0 0 1 .5 45.62V4.38A3.9 3.9 0 0 1 4.38.5h32.68m1.3-.5zm7.26 0h-7.25a.84.84 0 0 1 .8.67c.02.03.6 2.86 1.2 7.03a.84.84 0 0 1-.7.96q.08.6.16 1.24a.84.84 0 0 0-.7.6.84.84 0 0 1 .7-.6.84.84 0 0 1 .94.73 92.37 92.37 0 0 1 .62 19.4c-.73 7.7-2.92 12.84-6.53 15.26a9.76 9.76 0 0 1-5.57 1.6c-2.98 0-6.47-1.07-10.42-3.22-3.3 2.3-6.4 4.4-9.25 6.2a.83.83 0 0 1-.45.12h36.44A4.4 4.4 0 0 0 50 45.62V4.38A4.4 4.4 0 0 0 45.62 0zm-7.27 0H4.38A4.4 4.4 0 0 0 0 4.38v41.24A4.4 4.4 0 0 0 4.38 50h4.8a.84.84 0 0 1-.45-1.55c2.58-1.64 5.38-3.5 8.35-5.57a15.7 15.7 0 0 1-3.66-2.38 9.8 9.8 0 0 1-3-10.73c.58-1.98 2-3.95 4.46-6.2a.84.84 0 0 1 1.2.04v.02a.84.84 0 0 1 .13.2.83.83 0 0 0-.12-.2q.57-.5 1.17-1a.84.84 0 0 0 1.18.15c1.74-1.38 3.65-2.74 5.67-4.18.73-.54 1.47-1.06 2.2-1.6-.73.54-1.47 1.06-2.2 1.6-2.02 1.43-3.93 2.8-5.67 4.17a.84.84 0 0 1-.52.18.84.84 0 0 1-.65-.32.84.84 0 0 1 .14-1.18c1.76-1.4 3.68-2.78 5.72-4.23C30.2 12.17 37.52 6.95 37.52.84a.84.84 0 0 1 .75-.84q.04 0 .08 0zM16.2 23.82zm0 0zm0 0a.83.83 0 0 1 .05.08.83.83 0 0 0-.04-.08zM39.47 32q-.07.5-.15.96.08-.47.15-.96zM33.9 25.5zm0 0c-.03.02-.08.04-.1.06.02-.02.07-.04.1-.06zm-.1.06z"/><path fill="#83b341" d="M16.3 24.22c0 .03-.02.05-.03.08a.82.82 0 0 1-.25.5q-.4.38-.78.75c-.28.27-.54.54-.78.8a11.5 11.5 0 0 0-2.22 3.3c-.1.2-.16.4-.22.6a8.1 8.1 0 0 0 2.5 9 14.3 14.3 0 0 0 4.18 2.5c.23-.17.45-.36.68-.54a31.6 31.6 0 0 0 4.7-4.48c.1-.13.23-.27.34-.4-1.24-1.5-4.36-5.8-4.36-11.24a.83.83 0 0 1 .5-.77.84.84 0 0 1 1.18.78 16.8 16.8 0 0 0 3.76 9.88 45.87 45.87 0 0 0 3.74-5.88c-.63-1.2-2.35-4.8-2.35-8.04a.84.84 0 1 1 1.67 0 16.25 16.25 0 0 0 1.64 6.17c.8-1.6 1.5-3.24 2.14-4.86a15.28 15.28 0 0 1-1.5-6.68.88.88 0 0 1 .83-.85.84.84 0 0 1 .84.86 14.08 14.08 0 0 0 .7 4.33c.82-2.33 1.48-4.58 2.02-6.68a.84.84 0 1 1 1.63.42 80.27 80.27 0 0 1-3.26 10c.06-.05.14-.1.2-.15a9.3 9.3 0 0 0 1.68-1.4c.03-.02.05-.05.07-.07a8.37 8.37 0 0 0 1.23-1.7q.2-.34.35-.72a.84.84 0 1 1 1.55.66c0 .03-.03.05-.04.07a10.16 10.16 0 0 1-2.94 3.86 11.4 11.4 0 0 1-1.8 1.2c-.03.02-.08.04-.1.06a10.33 10.33 0 0 1-1.22.54c-.72 1.6-1.5 3.18-2.38 4.73a13.66 13.66 0 0 0 4.33-1.2 10 10 0 0 0 2.78-1.94.8.8 0 0 1 .1-.07.83.83 0 0 1 1.1 1.25 14.03 14.03 0 0 1-9.35 3.7 42.12 42.12 0 0 1-4.13 5.63c.42.05.9.1 1.46.1a.84.84 0 0 1 .82.86.83.83 0 0 1-.38.67.82.82 0 0 1-.46.16.06.06 0 0 1-.02-.02 18.92 18.92 0 0 1-2.82-.26 32.05 32.05 0 0 1-3.22 2.86 20.02 20.02 0 0 0 8.88 2.64 8.12 8.12 0 0 0 4.65-1.32 8 8 0 0 0 .7-.54 10.3 10.3 0 0 0 2.26-2.8c.16-.3.33-.6.48-.93a24.93 24.93 0 0 0 1.94-6.67q.08-.47.15-.96c.1-.7.18-1.4.25-2.13a91.97 91.97 0 0 0-.62-19.04.84.84 0 0 1 .73-.93q-.08-.64-.16-1.24a.83.83 0 0 1-.9-.55.8.8 0 0 1-.05-.16c-.16-1.07-.3-2.05-.45-2.9-1.28 2.84-3.74 5.45-6.7 7.93-.66.55-1.34 1.1-2.04 1.64s-1.4 1.08-2.14 1.6q-.55.4-1.1.8c-.73.54-1.47 1.06-2.2 1.6-2.02 1.43-3.93 2.8-5.67 4.17a.84.84 0 0 1-.52.18.84.84 0 0 1-.65-.32q-.6.5-1.17 1a.84.84 0 0 1 .2.6zM35.5 37.56a14.2 14.2 0 0 1-6.66 2.33.66.66 0 0 1-.1 0 .84.84 0 0 1-.07-1.7 12.56 12.56 0 0 0 5.86-2.02.84.84 0 0 1 .96 1.38z"/><path d="M18.88 43.68c3.95 2.15 7.44 3.22 10.42 3.22a9.76 9.76 0 0 0 5.57-1.6c3.6-2.43 5.8-7.57 6.53-15.27a92.37 92.37 0 0 0-.63-19.4.84.84 0 0 0-.94-.73.84.84 0 0 0-.73.93 91.96 91.96 0 0 1 .62 19.04c-.07.74-.16 1.44-.25 2.13q-.07.5-.15.96a24.92 24.92 0 0 1-1.94 6.67c-.15.32-.32.63-.5.93a10.3 10.3 0 0 1-2.25 2.8 8 8 0 0 1-.7.54 8.12 8.12 0 0 1-4.65 1.32 20.02 20.02 0 0 1-8.88-2.64 32 32 0 0 0 3.22-2.86 18.93 18.93 0 0 0 2.82.26.06.06 0 0 0 .02 0 .82.82 0 0 0 .46-.15.83.83 0 0 0 .38-.67.84.84 0 0 0-.82-.86c-.55 0-1.04-.05-1.46-.1a42.13 42.13 0 0 0 4.13-5.6 14.03 14.03 0 0 0 9.35-3.72.83.83 0 0 0-1.1-1.25.8.8 0 0 0-.1.06 10 10 0 0 1-2.77 1.92 13.66 13.66 0 0 1-4.33 1.2c.87-1.54 1.66-3.13 2.38-4.72a10.3 10.3 0 0 0 1.2-.54c.04-.02.1-.05.12-.07a11.4 11.4 0 0 0 1.8-1.22 10.16 10.16 0 0 0 2.94-3.85c0-.02.03-.04.04-.07a.84.84 0 0 0-1.55-.66c-.1.26-.23.5-.35.73a8.36 8.36 0 0 1-1.23 1.7c-.02.02-.04.05-.07.07a9.3 9.3 0 0 1-1.67 1.4c-.06.03-.14.1-.2.13a80.26 80.26 0 0 0 3.25-10 .84.84 0 0 0-1.63-.4c-.54 2.1-1.2 4.34-2.02 6.66a14.1 14.1 0 0 1-.7-4.34.84.84 0 0 0-.83-.84.88.88 0 0 0-.84.84 15.28 15.28 0 0 0 1.5 6.68c-.63 1.62-1.33 3.25-2.12 4.87a16.25 16.25 0 0 1-1.62-6.15.84.84 0 0 0-1.7 0c0 3.23 1.73 6.82 2.36 8.03a45.9 45.9 0 0 1-3.74 5.88 16.8 16.8 0 0 1-3.76-9.88.84.84 0 0 0-1.17-.77.83.83 0 0 0-.5.78c0 5.45 3.1 9.74 4.35 11.23-.1.15-.24.28-.35.42a31.6 31.6 0 0 1-4.7 4.5c-.22.17-.44.36-.67.53a14.3 14.3 0 0 1-4.17-2.5 8.1 8.1 0 0 1-2.5-9c.05-.2.12-.4.2-.6a11.5 11.5 0 0 1 2.23-3.3c.24-.26.5-.53.78-.8q.37-.37.78-.75a.83.83 0 0 0 .25-.5c0-.03.02-.05.02-.08a.84.84 0 0 0-.22-.6.84.84 0 0 0-1.2-.06c-2.46 2.26-3.88 4.23-4.47 6.2a9.8 9.8 0 0 0 3.02 10.74 15.7 15.7 0 0 0 3.66 2.38c-2.97 2.06-5.77 3.93-8.35 5.57A.84.84 0 0 0 9.18 50a.83.83 0 0 0 .45-.13c2.84-1.8 5.95-3.88 9.25-6.2zM35.55 22.13c-.02.02-.04.05-.07.07.03-.02.05-.05.07-.07zM32.58 26.1a10.33 10.33 0 0 0 1.2-.54 10.3 10.3 0 0 1-1.2.54zM16.3 24.22c0 .03-.02.05-.03.08 0-.03.02-.05.02-.08zM39.32 32.96a24.93 24.93 0 0 1-1.94 6.67 24.92 24.92 0 0 0 1.94-6.67zM20.57 24.3zM33.6 23.73c.06-.04.14-.1.2-.14-.06.03-.14.1-.2.13zM33.9 25.5a11.4 11.4 0 0 0 1.8-1.2 11.4 11.4 0 0 1-1.8 1.2zM12.24 29.66a11.5 11.5 0 0 1 2.22-3.3 11.5 11.5 0 0 0-2.22 3.3zM26.44 39.98a.06.06 0 0 0 .02 0 .82.82 0 0 0 .46-.15.82.82 0 0 1-.46.15.06.06 0 0 1-.02 0 18.93 18.93 0 0 1-2.82-.26 32 32 0 0 1-3.22 2.86 32.05 32.05 0 0 0 3.22-2.86 18.92 18.92 0 0 0 2.82.26zM38.5 28.88a14.03 14.03 0 0 1-9.35 3.7 14.03 14.03 0 0 0 9.35-3.7zM34.53 29.62a10 10 0 0 0 2.78-1.93.8.8 0 0 1 .1-.07.8.8 0 0 0-.1.06 10 10 0 0 1-2.77 1.92zM16.02 24.8q-.4.38-.78.75.37-.37.78-.75zM38.68 20.36c0 .03-.03.05-.04.07 0-.02.03-.04.04-.07zM39.72 29.87c-.07.74-.16 1.44-.25 2.13.1-.7.18-1.4.25-2.13a91.96 91.96 0 0 0-.62-19.04.84.84 0 0 1 .03-.33.84.84 0 0 0-.03.33 91.97 91.97 0 0 1 .62 19.04zM34.63 43.36a10.3 10.3 0 0 0 2.26-2.8 10.3 10.3 0 0 1-2.27 2.8zM26.9 21.05c0 3.24 1.7 6.82 2.34 8.03a45.87 45.87 0 0 1-3.74 5.88 45.9 45.9 0 0 0 3.74-5.88c-.63-1.2-2.35-4.8-2.35-8.03a.84.84 0 0 1 .24-.6.84.84 0 0 0-.25.6zM20.05 25.08c0 5.45 3.13 9.75 4.37 11.24-1.24-1.5-4.37-5.8-4.37-11.24a.84.84 0 0 1 .25-.6.84.84 0 0 0-.25.6zM19.38 41.2a31.6 31.6 0 0 0 4.7-4.48 31.6 31.6 0 0 1-4.7 4.5zM37.13 19.7q-.16.4-.35.73c.12-.23.24-.47.35-.72a.84.84 0 0 1 .2-.27.84.84 0 0 0-.2.28zM32.34 22.34C31.7 23.96 31 25.6 30.2 27.2c.8-1.6 1.5-3.24 2.14-4.86a15.28 15.28 0 0 1-1.5-6.68.82.82 0 0 1 .17-.5.82.82 0 0 0-.17.5 15.28 15.28 0 0 0 1.5 6.68zM35.22 13.32c-.54 2.1-1.2 4.35-2.02 6.67.82-2.33 1.48-4.58 2.02-6.68a.84.84 0 0 1 .15-.3.84.84 0 0 0-.15.3zM35.73 36.4a.84.84 0 0 0-1.17-.22 12.56 12.56 0 0 1-5.87 2.03.84.84 0 0 0 .07 1.7.65.65 0 0 0 .1 0 14.2 14.2 0 0 0 6.65-2.34.84.84 0 0 0 .2-1.17zM28.77 39.9a.84.84 0 0 1-.65-1.38.84.84 0 0 0 .65 1.37.66.66 0 0 0 .1 0 14.2 14.2 0 0 0 6.65-2.34 14.2 14.2 0 0 1-6.66 2.33.65.65 0 0 1-.1 0zM29.53 14.6c.7-.53 1.38-1.08 2.04-1.63 2.96-2.48 5.42-5.1 6.7-7.94.14.86.3 1.84.45 2.9a.8.8 0 0 0 .06.18.83.83 0 0 0 .9.56.84.84 0 0 0 .7-.96c-.6-4.17-1.2-7-1.2-7.03a.84.84 0 0 0-1.66.17c0 6.1-7.32 11.33-14.4 16.38-2.04 1.45-3.96 2.82-5.74 4.23a.84.84 0 0 0-.13 1.18.84.84 0 0 0 1.18.13c1.74-1.37 3.65-2.73 5.67-4.17.73-.54 1.47-1.06 2.2-1.6q.55-.4 1.1-.8c.72-.52 1.43-1.05 2.13-1.6zM38.78 8.1a.83.83 0 0 0 .9.56.83.83 0 0 1-.9-.55z"/></svg>