<svg xmlns="http://www.w3.org/2000/svg" viewBox="0 0 50 50"><title>btn_buscar</title><path d="M45.6154,0H4.3846A4.3975,4.3975,0,0,0,0,4.3846V45.6154A4.3975,4.3975,0,0,0,4.3846,50H45.6154A4.3975,4.3975,0,0,0,50,45.6154V4.3846A4.3975,4.3975,0,0,0,45.6154,0ZM44.2686,38.8633a3.0475,3.0475,0,0,1-2.461,1.5439,1.8688,1.8688,0,0,1-1.0029-.28l-9.3858-5.76a.8925.8925,0,0,1-.4111-.1.8107.8107,0,0,1-.4062-.8838L25.957,30.4844a12.9508,12.9508,0,1,1,2.792-4.3184l4.4239,2.7754a.8124.8124,0,0,1,1.0507-.0742.8594.8594,0,0,1,.3418.5146l9.294,5.8565A2.6194,2.6194,0,0,1,44.2686,38.8633Z" style="fill:#4c8f50"/><path d="M18.8149,11.0933a10.5,10.5,0,0,0-2.2168-.2354,10.79,10.79,0,0,0-4.979,1.2232,10.6532,10.6532,0,1,0,15.6114,9.4267,10.8318,10.8318,0,0,0-2.4063-6.74A10.6184,10.6184,0,0,0,18.8149,11.0933Z" style="fill:#4c8f50"/></svg>