<svg xmlns="http://www.w3.org/2000/svg" viewBox="0 0 505.373 505.373" enable-background="new 0 0 505.373 505.373"><circle cx="261.2" cy="243.168" r="211.2" fill="#FFBF5D"/><path fill="#fff" d="M239.6 485.57l208-208c7.2-7.2 11.2-16.8 11.2-26.4V83.97c0-20.8-16.8-37.6-37.6-37.6H254c-9.6 0-19.2 4-26.4 11.2l-208 208c-14.4 14.4-14.4 38.4 0 52.8l167.2 167.2c13.6 15.2 37.6 15.2 52.8 0z"/><path fill="#44C4A1" d="M208.4 463.17L41.2 295.97c-2.4-2.4-2.4-5.6 0-8l208-208c.8-.8 2.4-1.6 4-1.6h167.2c3.2 0 5.6 2.4 5.6 5.6v167.2c0 1.6-.8 3.2-1.6 4l-208 208c-1.6 2.4-5.6 2.4-8 0z"/><ellipse cx="385.27" cy="119.261" fill="#fff" rx="29.6" ry="29.6"/><g fill="#193651"><path d="M150.24 240.9L91.4 299.75l-7.35-7.35 58.83-58.84zM271.1 361.57l-58.84 58.83-7.35-7.35 58.84-58.83zM245.24 353.36L194.9 403.7l-7.36-7.35L237.9 346zM228.05 335.6l-50.34 50.34-7.35-7.36 50.35-50.34zM210.3 318.33l-50.34 50.34-7.35-7.35 50.35-50.34zM193.68 301.1l-50.34 50.33-7.36-7.35 50.35-50.34zM175.94 283.85L125.6 334.2l-7.36-7.36 50.34-50.34zM159.3 266.62l-50.33 50.34-7.35-7.35 50.34-50.34z"/></g><path fill="#193651" d="M327.84 264.88l-11.3 11.3-11.32-11.3 11.3-11.3zM297.52 234.24l-11.32 11.3-11.3-11.3 11.3-11.3z"/><g fill="#193651"><path d="M266.63 203.13l-11.3 11.3-11.33-11.3 11.32-11.3zM491.6 14.37c-22.4-22.4-65.6-16-96 14.4-3.2 3.2-5.6 6.4-8 9.6H253.2c-12 0-24 4.8-32 13.6l-208 208c-17.6 17.6-17.6 46.4 0 64.8l167.2 166.4c17.6 17.6 46.4 17.6 64.8 0l208-208c8.8-8.8 13.6-20 13.6-32v-132c4-3.2 7.2-5.6 10.4-9.6 14.4-14.4 24-32 27.2-49.6 3.2-18.4-1.6-34.4-12.8-45.6zM450 251.17c0 8-3.2 15.2-8.8 20.8l-208 208c-11.2 11.2-30.4 11.2-41.6 0L24.4 312.77c-11.2-11.2-11.2-30.4 0-41.6l208-208c5.6-5.6 12.8-8.8 20.8-8.8h123.2c-13.6 25.6-12.8 53.6 4 70.4 1.6 1.6 4 2.4 5.6 2.4s4-.8 5.6-2.4c3.2-3.2 3.2-8 0-11.2-13.6-13.6-11.2-37.6 3.2-59.2h25.6c16 0 29.6 13.6 29.6 29.6v167.2zm38.4-193.6c-2.4 14.4-10.4 28.8-22.4 40.8v-14.4c0-24.8-20.8-45.6-45.6-45.6h-12c24-23.2 56-28.8 72-12.8 7.2 7.2 10.4 18.4 8 32z"/></g></svg>