<svg xmlns="http://www.w3.org/2000/svg" viewBox="0 0 502.548 502.548" enable-background="new 0 0 502.548 502.548"><circle cx="251.274" cy="252.062" r="250.486" fill="#FBBD5E"/><path fill="#E0E4E8" d="M8.66 130.76H493.1v359.97H52c-24.43 0-44.12-19.7-44.12-43.32V130.77h.78z"/><path fill="#183651" d="M493.88 498.6H52.78c-28.36 0-51.2-22.83-51.2-51.2V130.77c0-3.94 3.15-7.88 7.87-7.88h484.43c3.94 0 7.88 3.15 7.88 7.88v359.97c0 4.73-3.94 7.88-7.88 7.88zM16.54 138.64V448.2c0 19.7 15.76 35.44 35.45 35.44H485.2v-345H16.54z"/><path fill="#fff" d="M462.38 161.48H40.18V447.4c0 6.3 5.5 11.82 11.8 11.82h335.56l74.05-66.16V161.48h.77z"/><path fill="#CECFD0" d="M388.33 460l74.05-66.94h-74.05z"/><path fill="#4FBF9F" d="M50.4 83.5c-22.83 0-41.74 18.9-41.74 41.74v318.23c0-22.84 18.9-41.75 41.75-41.75s41.76 18.9 41.76 41.75V124.45c-.8-22.84-18.9-40.95-41.75-40.95z"/><g fill="#183651"><path d="M91.37 451.35c-3.94 0-7.88-3.15-7.88-7.88 0-18.9-14.97-33.87-33.88-33.87s-33.08 15.75-33.08 33.87c0 3.94-3.15 7.88-7.88 7.88S.8 448.2.8 443.47V124.45c0-26.78 22.04-48.83 48.82-48.83s48.84 22.05 48.84 48.83v319.02c.8 4.73-2.36 7.88-7.1 7.88zM50.4 394.63c12.62 0 24.43 4.73 33.88 13.4V124.46c0-18.9-14.96-33.88-33.87-33.88s-33.86 14.97-33.86 33.87v282.8c8.67-7.9 20.48-12.62 33.87-12.62zM133.12 195.35h99.25v15.75h-99.25zM133.12 244.2h99.25v15.74h-99.25zM133.12 293.02h99.25v15.76h-99.25zM133.12 341.86h99.25v15.75h-99.25z"/></g><path fill="#2EA0DA" d="M357.6 74.83l-59.06 195.35c-14.18 45.7-12.6 95.3 4.72 140.2 39.4-28.35 67.74-68.52 81.92-114.2l59.08-194.57-86.65-26.77z"/><path fill="#183651" d="M300.9 418.26c-2.36-.78-3.94-2.36-4.73-4.72-17.33-46.48-18.9-98.46-4.72-145.72l59.07-195.35c.8-2.37 2.37-3.94 3.94-4.73 1.58-.8 3.94-1.57 6.3-.8l86.65 26c3.95 1.58 6.3 5.52 5.52 9.46l-59.07 195.35c-14.18 47.26-44.9 89.8-85.07 118.15-3.15 2.37-5.52 3.15-7.88 2.37zm62.23-333.2L306.4 272.55c-12.6 40.96-11.8 85.07.8 125.25 33.08-26.8 58.3-63.03 70.9-104l56.7-187.46-71.67-21.27z"/><path fill="#fff" d="M318.23 360.76c-3.94-27.57-1.58-55.92 6.3-81.92l51.2-169.35 33.87 10.23-51.2 169.35c-7.88 26-22.05 50.42-40.17 71.68z"/><path fill="#F06151" d="M451.35 24.42L394.63 7.1c-7.87-2.37-17.32 2.35-19.7 10.23l-17.32 57.5 86.66 26 17.33-57.5c2.35-7.88-2.38-16.55-10.25-18.9z"/><g fill="#183651"><path d="M444.26 109.5c-.8 0-1.58 0-2.37 0l-86.65-26c-3.94-1.58-6.3-5.52-5.52-9.46l17.33-57.5C370.2 6.3 378.88 0 389.12 0c2.36 0 4.73 0 7.1.8l56.7 17.32c6.3 1.57 11.03 5.5 14.18 11.03 3.15 5.5 3.94 11.8 1.58 18.1l-17.33 57.5c-.8 2.38-2.37 3.95-3.94 4.74-.78-.8-2.35 0-3.14 0zm-76.4-39.4l71.67 22.06 14.97-50.4c.8-2.38.8-3.95-.8-6.3-.78-1.6-2.35-3.17-4.72-3.95l-56.7-17.32c-3.95-1.58-8.67 1.57-9.46 5.5l-14.97 50.43zM133.12 390.7h15.75v15.75h-15.75zM174.87 390.7h15.75v15.75h-15.75zM216.62 390.7h15.75v15.75h-15.75z"/></g></svg>