<svg xmlns="http://www.w3.org/2000/svg" viewBox="0 0 59.51 59.51" enable-background="new 0 0 59.51 59.51"><path fill="#fff" d="M53.06 24.76h-46l-3.66 29h52.77z"/><path fill="#556080" d="M53.06 24.76l3.1 29H3.4l3.66-29h46m2.7-3H4.4L4.1 24.4l-3.65 29L0 56.75H59.5l-.35-3.32-3.1-29-.3-2.68z"/><path fill="#EBBA16" d="M13.68 49.76c-.25 0-.5-.02-.77-.05-.2 0-.42-.05-.64-.1-.53-.15-.85-.7-.72-1.23.14-.53.7-.86 1.22-.72.13.04.27.06.4.08.4.05.8.03 1.2-.02.56-.05 1.06.33 1.13.88.06.55-.33 1.05-.88 1.12-.3.04-.63.06-.94.06zm4.65-1.16c-.4 0-.77-.24-.93-.64-.2-.5.06-1.1.57-1.3.6-.22 1.2-.47 1.78-.75.5-.23 1.1 0 1.33.5.23.5.02 1.1-.48 1.32-.63.3-1.27.57-1.9.8-.12.06-.25.08-.37.08zM10 46.87c-.52 0-.95-.38-1-.9-.03-.2-.03-.4-.03-.6 0-.1 0-.22 0-.34.03-.47.1-.94.23-1.4.14-.54.7-.86 1.23-.7.53.14.84.68.7 1.22-.1.32-.14.66-.16.98 0 .08 0 .17 0 .25 0 .13 0 .26.02.4.04.54-.36 1.03-.9 1.1-.04 0-.08 0-.1 0zm13.67-1c-.33 0-.65-.16-.84-.45-.3-.47-.17-1.1.3-1.4.53-.33 1.06-.7 1.57-1.1.44-.33 1.07-.24 1.4.2.33.44.25 1.07-.2 1.4-.55.42-1.12.82-1.7 1.2-.16.1-.35.15-.53.15zm4.75-3.65c-.3 0-.6-.14-.8-.4-.33-.46-.23-1.08.22-1.4.2-.16.42-.3.64-.45.37-.24.78-.48 1.2-.7.5-.23 1.1-.03 1.34.46.25.5.05 1.1-.45 1.34-.35.18-.7.37-1 .58-.2.12-.38.25-.56.38-.16.13-.37.2-.57.2zm-15.95-.47c-.36 0-.7-.2-.88-.53-.28-.48-.1-1.1.4-1.35.5-.28 1.06-.46 1.63-.52.3-.03.6-.03.9 0 .54.08.93.58.86 1.13-.1.55-.58.93-1.14.86-.13-.02-.27-.02-.4 0-.32.03-.63.13-.92.3-.15.07-.3.1-.47.1zM33.9 39.9c-.46 0-.87-.32-.97-.8-.12-.54.23-1.07.77-1.18.64-.14 1.33-.25 2.05-.34.56-.08 1.05.32 1.12.87.07.54-.32 1.04-.87 1.1-.67.1-1.3.2-1.9.32-.06.02-.13.03-.2.03zm5.96-.62c-.53 0-.97-.42-1-.96-.02-.55.4-1.02.96-1.04l2-.08c.55-.05 1.02.4 1.04.95.03.55-.4 1.02-.95 1.05l-2 .08s-.02 0-.04 0zm5.98-.44c-.46 0-.88-.33-.98-.8-.1-.54.24-1.07.78-1.18.58-.12 1-.3 1.35-.53.42-.34 1.1-.28 1.43.15.33.44.3 1.04-.14 1.38-.07.04-.12.08-.18.12-.55.38-1.23.66-2.08.83-.06.03-.13.04-.2.04zm4.07-4.03c-.1 0-.2 0-.28-.04-.53-.16-.83-.72-.66-1.25.05-.16.08-.33.1-.5v-.1c0-.24-.05-.47-.13-.7-.2-.52.07-1.1.6-1.3.5-.18 1.08.08 1.27.6.17.45.26.92.26 1.4 0 .07 0 .16 0 .24-.03.32-.1.64-.2.96-.13.43-.52.7-.95.7zm-5.05-4.1c-.44 0-.84-.3-.96-.73-.16-.53.15-1.08.68-1.23.78-.22 1.6-.3 2.4-.18.53.07.92.57.84 1.12-.07.55-.56.93-1.12.86-.52-.07-1.06-.02-1.58.12-.1.03-.18.04-.27.04z"/><path fill="#DD352E" d="M40.84 11.93c-.52-4-2.6-9.18-10.82-9.18-8.2 0-10.3 5.18-10.82 9.18-.3 2.2-.13 4.42.33 6.58 2.5 11.9 8.7 19.03 10.18 20.6.18.17.46.17.64 0C31.8 37.53 38 30.4 40.5 18.5c.47-2.15.63-4.38.34-6.57zm-10.82 7.74c-3.5 0-6.34-2.84-6.34-6.34s2.84-6.35 6.34-6.35 6.35 2.84 6.35 6.35c0 3.5-2.84 6.34-6.35 6.34z"/><path fill="#B02721" d="M30.02 5.98c-4.05 0-7.34 3.3-7.34 7.35s3.3 7.34 7.34 7.34 7.35-3.3 7.35-7.34c0-4.05-3.3-7.35-7.35-7.35zm0 12.7c-2.94 0-5.34-2.4-5.34-5.35s2.4-5.35 5.34-5.35 5.35 2.4 5.35 5.35-2.4 5.34-5.35 5.34z"/></svg>