<svg xmlns="http://www.w3.org/2000/svg" viewBox="0 0 337.919 337.919" enable-background="new 0 0 337.919 337.919"><g fill="#CE593F"><path d="M65.9 151.56c.2.08.38.17.57.26-.2-.1-.38-.18-.58-.25zM55.37 167c.17.2.35.37.54.55-.18-.18-.36-.36-.53-.55zM64.2 151.07c.2.04.38.1.56.14-.2-.03-.36-.1-.55-.13zM67.46 152.35c.17.1.35.2.52.33-.17-.12-.35-.22-.52-.33zM71.17 156.55c.1.2.17.4.25.62-.08-.2-.16-.42-.25-.62zM70.34 155.06c.1.14.17.3.26.44-.1-.14-.16-.3-.26-.44zM69.28 153.78c-.1-.1-.23-.2-.34-.3.1.1.23.2.34.3zM58.87 169.44c-.25-.1-.48-.23-.7-.35.22.1.45.24.7.34zM60.58 169.95c-.24-.05-.46-.13-.7-.2.24.07.46.15.7.2zM71.58 157.72c-.57-.1-1.16-.18-1.77-.18-5.3 0-9.6 4.32-9.6 9.62 0 .97.14 1.9.4 2.8.6.1 1.2.18 1.83.18 5.3 0 9.62-4.32 9.62-9.63 0-.97-.2-1.9-.47-2.78zM53.15 162.93c-.05-.2-.12-.38-.16-.58.03.2.1.38.15.58zM57.3 168.63c-.22-.15-.43-.3-.64-.46.2.16.42.3.64.46zM54.74 166.24c-.15-.2-.3-.4-.43-.62.14.2.3.4.44.62zM53.8 164.7c-.1-.2-.2-.42-.3-.64.1.22.2.43.3.64z"/></g><g fill="#FDD44B"><path d="M169.6 31.56c.05.22.12.46.18.68-.06-.23-.13-.46-.2-.68zM170.2 33.7c.07.3.14.6.2.9-.06-.3-.13-.6-.2-.9zM170.75 36c.08.33.15.66.22 1-.07-.34-.14-.67-.22-1zM167.22 55.73c-.1-.05-.18-.1-.27-.16.08.06.18.1.27.16zM171.12 37.75c-1.6 5-3 12-3.1 18.24.27.04.57.08.94.08 1.7 0 2.34-.65 2.84-1.3.2-.45.65-1.84.65-5.08 0-3.87-.54-8.07-1.33-11.95zM167.96 55.98c-.13-.02-.23-.07-.35-.1.13.03.23.07.36.1zM166.48 55.2c.05.05.1.1.17.15-.06-.05-.12-.1-.17-.16z"/></g><path fill="#EF8829" d="M170.76 94.97h5v76h-5z"/><g fill="#EF8829"><path d="M58.92 218.05c.7.5 1.38 1 2.07 1.5-.7-.5-1.4-1-2.08-1.5zM56.1 216.2c.7.43 1.4.87 2.07 1.33-.68-.46-1.36-.9-2.06-1.33zM53 214.46c.8.4 1.6.83 2.36 1.3-.77-.46-1.56-.9-2.37-1.3zM61.6 220c.86.65 1.72 1.32 2.6 2-.88-.68-1.74-1.34-2.6-2zM45.97 211.85c.33.08.65.18.98.27-.32-.1-.65-.2-.98-.27zM235.72 244.22c-19.26 0-29.2-7.7-38-14.52-7.85-6.1-14.65-11.37-28.77-11.37-14.1 0-20.9 5.27-28.77 11.37-8.78 6.8-18.72 14.52-38 14.52-19.26 0-29.6-7.7-38.38-14.52-3.8-2.96-7.03-5.7-12.03-7.77v67.04h248V218.9c-9 1.54-19.97 5.9-26.3 10.8-8.77 6.8-18.48 14.52-37.75 14.52zM48.74 212.68c.37.13.74.26 1.1.4-.36-.14-.73-.27-1.1-.4zM51.34 213.7c.35.15.7.3 1.06.46-.35-.16-.7-.3-1.06-.47z"/></g><g fill="#CE593F"><path d="M165 193.97H51.77v4.23s.55 0 .53-.02c8.75 2.84 15.18 7.56 20.82 11.93 7.86 6.1 14.8 11.38 28.92 11.38 14.12 0 20.98-5.27 28.85-11.37 8.77-6.8 18.75-14.5 38.02-14.5 19.26 0 29.23 7.7 38 14.5 7.87 6.1 14.68 11.38 28.8 11.38 14.1 0 20.3-5.27 28.17-11.37 7.55-5.84 16.87-12.36 29.87-14.07v-2.06H165zM42.95 196.03c1.74.2 3.4.5 4.97.82-1.58-.33-3.23-.6-4.97-.82zM52.4 198.03c-1.34-.42-2.74-.8-4.23-1.13 1.5.33 2.9.7 4.24 1.13z"/></g><path fill="#84BD93" d="M45.77 307.97h-21v6h299v-6h-10.93z"/><g fill="#CE593F"><path d="M129.45 151.56c.2.08.4.17.58.26-.2-.1-.38-.18-.58-.25zM127.77 151.07c.18.04.36.1.54.14-.17-.03-.35-.1-.54-.13zM131 152.35c.2.1.36.2.53.33-.17-.12-.34-.22-.52-.33zM134.72 156.55c.1.2.17.4.25.62-.08-.2-.15-.42-.25-.62zM118.92 167c.18.2.35.37.55.55-.2-.18-.38-.36-.55-.55zM133.9 155.06c.1.14.17.3.26.44-.1-.14-.17-.3-.27-.44zM132.83 153.78c-.1-.1-.23-.2-.34-.3.1.1.23.2.33.3zM122.42 169.44c-.25-.1-.48-.23-.7-.35.22.1.45.24.7.34zM124.13 169.95c-.24-.05-.45-.13-.68-.2.23.07.44.15.68.2zM120.86 168.63c-.23-.15-.44-.3-.65-.46.22.16.43.3.66.46zM135.14 157.72c-.58-.1-1.17-.18-1.77-.18-5.3 0-9.62 4.32-9.62 9.62 0 .97.14 1.9.4 2.8.6.1 1.2.18 1.83.18 5.3 0 9.62-4.32 9.62-9.63 0-.97-.2-1.9-.46-2.78zM117.36 164.7c-.1-.2-.22-.42-.3-.64.08.22.2.43.3.64zM116.7 162.93c-.05-.2-.12-.38-.16-.58.04.2.1.38.16.58zM118.3 166.24c-.16-.2-.3-.4-.44-.62.13.2.28.4.43.62z"/></g><g fill="#CE593F"><path d="M213.72 151.07c.2.04.36.1.54.14-.18-.03-.35-.1-.54-.13zM216.98 152.35c.17.1.34.2.5.33-.16-.12-.33-.22-.5-.33zM215.4 151.57c.2.07.4.16.58.24-.2-.07-.38-.16-.57-.23zM218.8 153.77c-.1-.1-.23-.18-.34-.28.1.1.23.17.33.27zM220.7 156.56c.08.2.15.4.22.6-.07-.2-.14-.4-.23-.6zM219.86 155.07c.1.13.16.28.24.4-.08-.13-.15-.27-.24-.4zM211.94 150.9c-3.32 0-6.25 1.68-7.98 4.24 1.73-2.56 4.66-4.25 7.98-4.25zM206.8 168.63c-.2-.14-.42-.3-.63-.47.2.16.42.32.64.47zM210.1 169.95c-.25-.05-.47-.13-.7-.2.23.07.45.15.7.2zM208.38 169.44c-.25-.1-.48-.23-.72-.35.24.1.47.24.72.34zM221.1 157.72c-.58-.1-1.17-.18-1.77-.18-5.3 0-9.62 4.32-9.62 9.62 0 .97.16 1.9.42 2.8.6.1 1.2.18 1.82.18 5.3 0 9.62-4.32 9.62-9.63 0-.97-.2-1.9-.46-2.78zM202.5 162.35c.04.2.1.38.16.58-.05-.2-.12-.38-.16-.58zM203 164.06c.1.22.2.43.32.64-.1-.2-.22-.42-.3-.64zM204.88 167c.17.2.35.37.55.55-.2-.18-.38-.36-.55-.55zM203.82 165.62c.13.2.28.4.43.62-.15-.2-.3-.4-.43-.62z"/></g><g fill="#CE593F"><path d="M277.28 151.07c.18.04.36.1.54.14-.18-.03-.36-.1-.54-.13zM284.24 156.56c.1.2.16.4.23.6-.07-.2-.14-.4-.23-.6zM275.5 150.9c-3.32 0-6.25 1.68-7.98 4.24 1.73-2.56 4.66-4.25 7.97-4.25zM278.96 151.57c.2.07.4.16.57.24-.18-.07-.37-.16-.57-.23zM283.4 155.07c.1.13.17.28.25.4-.08-.13-.15-.27-.24-.4zM280.53 152.35c.17.1.34.2.5.33-.16-.12-.33-.22-.5-.33zM282.34 153.77c-.1-.1-.22-.18-.32-.28.1.1.22.17.32.27zM267.37 165.62c.13.2.28.4.43.62-.15-.2-.3-.4-.43-.62zM266.57 164.06c.1.22.2.43.3.64-.1-.2-.22-.42-.3-.64zM271.93 169.44c-.25-.1-.48-.23-.7-.35.22.1.45.24.7.34zM284.65 157.72c-.57-.1-1.16-.18-1.77-.18-5.3 0-9.62 4.32-9.62 9.62 0 .97.15 1.9.42 2.8.6.1 1.2.18 1.8.18 5.32 0 9.63-4.32 9.63-9.63 0-.97-.18-1.9-.45-2.78zM273.64 169.95c-.24-.05-.46-.13-.7-.2.24.07.46.15.7.2zM266.06 162.35c.04.2.1.38.16.58-.06-.2-.13-.38-.16-.58zM270.37 168.63c-.23-.14-.44-.3-.65-.47.2.16.42.32.65.47zM268.43 167c.18.2.36.37.55.55-.2-.18-.37-.36-.55-.55z"/></g><path fill="#3F2D20" d="M168.96 70.02c4.58 0 18.53 0 18.53-20.32 0-7.84-3.3-39.5-18.54-39.5-15.24 0-18.53 31.66-18.53 39.5 0 20.32 13.94 20.32 18.53 20.32zm0-40.42c1.8 5.2 3.5 13.2 3.5 20.1 0 3.24-.47 4.63-.67 5.08-.5.65-1.13 1.3-2.84 1.3-1.7 0-2.34-.65-2.84-1.3-.2-.45-.65-1.84-.65-5.08 0-6.9 1.7-14.9 3.5-20.1zM330.4 288.33H310V177.66c0-4.16-3.35-7.52-7.5-7.52h-4.3c1.26-2.96 1.95-6.2 1.95-9.63 0-13.58-11.06-24.65-24.66-24.65s-24.67 11.07-24.67 24.66c0 3.43.7 6.68 1.95 9.64h-18.14c1.26-2.96 1.96-6.2 1.96-9.63 0-13.58-11.06-24.65-24.66-24.65-9.2 0-17.24 5.07-21.48 12.56V79.3c0-4.14-3.36-7.5-7.52-7.5h-27.97c-4.15 0-7.52 3.36-7.52 7.5v69.1c-4.24-7.48-12.27-12.55-21.47-12.55-13.6 0-24.66 11.07-24.66 24.66 0 3.43.7 6.68 1.95 9.64H85.14c1.25-2.96 1.95-6.2 1.95-9.63 0-13.58-11.07-24.65-24.67-24.65s-24.67 11.07-24.67 24.66c0 3.43.7 6.68 1.96 9.64h-4.3c-4.15 0-7.5 3.36-7.5 7.52v110.67H7.5c-4.15 0-7.52 3.37-7.52 7.52v24.36c0 4.17 3.37 7.53 7.52 7.53H330.4c4.15 0 7.52-3.36 7.52-7.52v-24.35c0-4.15-3.37-7.52-7.52-7.52zm-7.52 24.36H15.04v-9.33h307.83v9.32zM62.43 150.9c5.3 0 9.62 4.3 9.62 9.6 0 5.32-4.32 9.64-9.62 9.64s-9.62-4.32-9.62-9.63c0-5.3 4.32-9.6 9.63-9.6zm63.55 0c5.3 0 9.62 4.3 9.62 9.6 0 5.32-4.3 9.64-9.62 9.64-5.3 0-9.62-4.32-9.62-9.63 0-5.3 4.3-9.6 9.62-9.6zm36.52-64.07h12.92v83.3H162.5v-83.3zm49.44 64.06c5.3 0 9.62 4.3 9.62 9.6 0 5.32-4.32 9.64-9.62 9.64-5.3 0-9.62-4.32-9.62-9.63 0-5.3 4.3-9.6 9.62-9.6zm63.55 0c5.3 0 9.6 4.3 9.6 9.6 0 5.32-4.3 9.64-9.6 9.64s-9.63-4.32-9.63-9.63c0-5.3 4.32-9.6 9.62-9.6zm19.47 45.13c-14.48 1.7-22.92 8.22-30.47 14.08-7.87 6.1-14.66 11.38-28.78 11.38-14.1 0-20.9-5.27-28.77-11.37-8.78-6.8-18.73-14.5-38-14.5-19.26 0-29.2 7.7-38 14.5-7.85 6.1-14.64 11.38-28.76 11.38-14.13 0-20.92-5.27-28.78-11.37-7.56-5.85-16-12.36-30.47-14.07v-10.85h252.02v10.85zM42.95 211.2c9.3 1.54 14.93 5.9 21.25 10.8 8.78 6.8 18.72 14.52 38 14.52 19.26 0 29.2-7.72 37.98-14.52 7.87-6.1 14.66-11.37 28.77-11.37 14.12 0 20.92 5.27 28.78 11.37 8.78 6.8 18.73 14.52 38 14.52 19.26 0 29.2-7.72 38-14.52 6.3-4.9 11.95-9.26 21.24-10.8v77.13H42.95V211.2z"/></svg>