<svg xmlns="http://www.w3.org/2000/svg" viewBox="0 0 58 58" enable-background="new 0 0 58 58"><path fill="#CEC9AE" d="M6 58c-2.75 0-5-2.25-5-5V30h10v23c0 2.75-2.24 5-5 5zM11 0h46v11H11z"/><path fill="#EDEADA" d="M11 35v18c0 2.75-2.24 5-5 5h46c2.76 0 5-2.23 5-5V13H11v22z"/><path fill="#F4F3ED" d="M11 11h46v2H11z"/><path fill="#61B872" d="M17 16h12v12H17z"/><path fill="#CEC9AE" d="M51 17H35c-.55 0-1-.45-1-1s.45-1 1-1h16c.56 0 1 .45 1 1s-.44 1-1 1zM51 23H35c-.55 0-1-.45-1-1s.45-1 1-1h16c.56 0 1 .45 1 1s-.44 1-1 1zM51 29H35c-.55 0-1-.45-1-1s.45-1 1-1h16c.56 0 1 .45 1 1s-.44 1-1 1zM51 35H18c-.55 0-1-.45-1-1s.45-1 1-1h33c.56 0 1 .45 1 1s-.44 1-1 1zM33 41H18c-.55 0-1-.45-1-1s.45-1 1-1h15c.56 0 1 .45 1 1s-.44 1-1 1zM33 47H18c-.55 0-1-.45-1-1s.45-1 1-1h15c.56 0 1 .45 1 1s-.44 1-1 1zM33 53H18c-.55 0-1-.45-1-1s.45-1 1-1h15c.56 0 1 .45 1 1s-.44 1-1 1z"/><path fill="#F7B563" d="M39 40h12v12H39z"/><path fill="#8E8872" d="M23 4h22v4H23z"/></svg>