<svg xmlns="http://www.w3.org/2000/svg" viewBox="0 0 512 512" enable-background="new 0 0 512 512"><path fill="#B71C1C" d="M439.46 76.8v194.05c.17 2.92-1.2 5.72-3.58 7.42-20.74 13.55-45.03 20.65-69.8 20.4-7.12 0-14.23-.58-21.25-1.7-24.66-3.5-47.52-14.88-65.2-32.44-23.1-22.5-54.28-34.8-86.52-34.13-7.1 0-14.22.57-21.24 1.7-19.62 2.9-38.2 10.67-54.02 22.62-4.78 3.58-11.1 0-11.1-7.17V55.12c-.03-2.44.9-4.8 2.57-6.57 17.37-16.07 39.22-26.5 62.64-29.86 7-1.1 14.08-1.65 21.17-1.63 32.25-.68 63.43 11.62 86.53 34.13 17.64 17.5 40.44 28.88 65.03 32.43l52.14-1.97c11.28-2.6 22.14-6.8 32.25-12.46 4.87-2.73 10.4 1.28 10.4 7.6z"/><path fill="#D50000" d="M396.8 81.66v189.2c.16 2.9-1.2 5.7-3.6 7.4-14.58 9.64-31.1 15.98-48.37 18.62-24.64-3.48-47.5-14.83-65.2-32.35-23.1-22.5-54.28-34.8-86.52-34.13-7.1 0-14.22.57-21.24 1.7-7.06-1.13-14.2-1.7-21.34-1.7-14.9-.03-29.7 2.45-43.77 7.34V55.12c-.04-2.44.88-4.8 2.56-6.57 17.37-16.07 39.22-26.5 62.64-29.86 24.6 3.56 47.4 14.96 65.03 32.5C260.05 73.7 291.2 86 323.4 85.33c7.13 0 14.24-.56 21.26-1.7l52.14-1.97z"/><path fill="#555656" d="M89.6 8.45c9.43 0 17.06 7.64 17.06 17.07v460.8c0 9.42-7.63 17.06-17.06 17.06s-17.07-7.63-17.07-17.06V25.5c0-9.43 7.64-17.07 17.07-17.07z"/><path d="M366.08 307.2c-34.54.7-67.9-12.53-92.6-36.7-21.46-20.88-50.43-32.27-80.37-31.57-25.2-.33-49.84 7.58-70.14 22.53-4.44 3.54-10.54 4.17-15.6 1.62-5.83-3-9.4-9.07-9.23-15.6V55.12c.03-4.68 1.9-9.16 5.2-12.46 24.48-22.4 56.6-34.62 89.78-34.14 34.58-.76 68.02 12.44 92.76 36.6 21.4 20.9 50.32 32.3 80.22 31.67 20.55.2 40.82-4.95 58.8-14.93 4.6-2.7 10.32-2.7 14.92 0 5.2 3.16 8.32 8.85 8.2 14.93v194.05c.16 5.77-2.6 11.22-7.34 14.5-22.15 14.53-48.1 22.13-74.58 21.85zM193.1 221.87c34.6-.76 68.03 12.43 92.76 36.6 21.4 20.9 50.32 32.3 80.22 31.66 23 .14 45.54-6.44 64.85-18.94V77.9c-19.96 10.62-42.25 16.1-64.85 15.97-34.54.7-67.9-12.53-92.6-36.7-21.46-20.9-50.43-32.27-80.37-31.57-28.72-.56-56.58 9.85-77.9 29.1v191.15c22.83-15.92 50.07-24.3 77.9-23.98zM89.6 512C75.46 512 64 500.54 64 486.4V25.6C64 11.46 75.46 0 89.6 0s25.6 11.46 25.6 25.6v460.8c0 14.14-11.47 25.6-25.6 25.6zm0-494.93c-4.7 0-8.54 3.82-8.54 8.53v460.8c0 4.7 3.83 8.53 8.54 8.53s8.53-3.82 8.53-8.53V25.6c0-4.7-3.82-8.53-8.53-8.53z"/></svg>