<svg xmlns="http://www.w3.org/2000/svg" viewBox="0 0 512 512" enable-background="new 0 0 512 512"><g fill="#1B4145"><circle cx="312.889" cy="125.156" r="62.578"/><path d="M312.9 221.87c-69.13 0-125.17 56.03-125.17 125.15h250.3c0-69.12-56.02-125.15-125.14-125.15z"/></g><g fill="#609399"><circle cx="125.156" cy="125.156" r="62.578"/><path d="M125.16 221.87C56.03 221.87 0 277.9 0 347.02h250.3c0-69.12-56.02-125.15-125.14-125.15z"/></g><circle cx="438.044" cy="375.467" r="73.956" fill="#F14742"/><path fill="#fff" d="M466.5 366.93h-19.92v-19.9c0-4.72-3.82-8.54-8.54-8.54s-8.53 3.8-8.53 8.52v19.9h-19.9c-4.7 0-8.53 3.83-8.53 8.55s3.82 8.53 8.53 8.53h19.9v19.9c0 4.73 3.83 8.54 8.54 8.54s8.54-3.82 8.54-8.53V384h19.9c4.72 0 8.54-3.82 8.54-8.53s-3.82-8.54-8.53-8.54z"/></svg>