<svg xmlns="http://www.w3.org/2000/svg" viewBox="0 0 58 58" enable-background="new 0 0 58 58"><path fill="#26B99A" d="M42 5H1v13h56V5z"/><circle cx="20" cy="9" r="2" fill="#38454F"/><circle cx="26" cy="9" r="2" fill="#38454F"/><circle cx="32" cy="9" r="2" fill="#38454F"/><circle cx="38" cy="9" r="2" fill="#38454F"/><path fill="#AFB6BB" d="M38 0c-1.13 0-2.16.4-3 1.02.53.4.98.92 1.3 1.5.5-.33 1.08-.52 1.7-.52 1.65 0 3 1.35 3 3s-1.35 3-3 3c-.55 0-1 .45-1 1s.45 1 1 1c2.76 0 5-2.24 5-5s-2.24-5-5-5z"/><path fill="#839594" d="M33.69 2.52c-.44.73-.7 1.57-.7 2.48h2c0-1.03-.52-1.94-1.3-2.48zM27.68 2.52C27.26 3.25 27 4.1 27 5h2c0-1.03-.52-1.94-1.32-2.48z"/><path fill="#AFB6BB" d="M36.31 2.52c-.32-.58-.77-1.1-1.3-1.5C34.16.4 33.13 0 32 0s-2.16.4-3 1.02c.53.4.98.92 1.3 1.5.5-.33 1.08-.52 1.7-.52s1.2.2 1.7.52c.78.54 1.3 1.45 1.3 2.48 0 1.65-1.35 3-3 3-.55 0-1 .45-1 1s.45 1 1 1c2.76 0 5-2.24 5-5 0-.9-.26-1.75-.7-2.48z"/><path fill="#839594" d="M21.68 2.52C21.26 3.25 21 4.1 21 5h2c0-1.03-.52-1.94-1.32-2.48z"/><path fill="#AFB6BB" d="M30.32 2.52c-.34-.58-.8-1.1-1.32-1.5C28.16.4 27.13 0 26 0s-2.16.4-3 1.02c.53.4.98.92 1.3 1.5.5-.33 1.08-.52 1.7-.52s1.2.2 1.7.52c.78.54 1.3 1.45 1.3 2.48 0 1.65-1.35 3-3 3-.55 0-1 .45-1 1s.45 1 1 1c2.76 0 5-2.24 5-5 0-.9-.26-1.75-.68-2.48zM24.32 2.52c-.34-.58-.8-1.1-1.32-1.5C22.16.4 21.13 0 20 0c-2.76 0-5 2.24-5 5h2c0-1.65 1.35-3 3-3 .62 0 1.2.2 1.7.52.78.54 1.3 1.45 1.3 2.48 0 1.65-1.35 3-3 3-.55 0-1 .45-1 1s.45 1 1 1c2.76 0 5-2.24 5-5 0-.9-.26-1.75-.68-2.48z"/><path fill="#EDEADA" d="M1 18h56v40H1z"/><circle cx="13" cy="29" r="5" fill="#CEC9AE"/><circle cx="29" cy="29" r="5" fill="#CEC9AE"/><circle cx="45" cy="29" r="5" fill="#CEC9AE"/><circle cx="13" cy="45" r="5" fill="#CEC9AE"/><circle cx="29" cy="45" r="5" fill="#CEC9AE"/><circle cx="45" cy="45" r="5" fill="#26B99A"/></svg>