<svg xmlns="http://www.w3.org/2000/svg" viewBox="0 0 398.465 398.465" enable-background="new 0 0 398.465 398.465"><path d="M369.66 28.8c38.4 38.4 38.4 100.9 0 139.3l-82.73 82.75c-6.13 6.12-13 11.37-20.43 15.66-4.28 7.44-9.53 14.3-15.64 20.42l-82.74 82.73c-19.2 19.2-44.44 28.8-69.66 28.8-25.23 0-50.45-9.6-69.65-28.8-38.4-38.4-38.4-100.9 0-139.3l82.75-82.74c6.12-6.1 12.98-11.36 20.4-15.64 4.3-7.43 9.54-14.3 15.67-20.42l82.74-82.74C248.93 10.23 273.66 0 300 0c26.35 0 51.1 10.23 69.66 28.8zm-10.6 128.7c32.55-32.56 32.55-85.53 0-118.1C343.3 23.68 322.34 15 300 15s-43.3 8.66-59.04 24.4l-81.92 81.93c15.88-3.64 32.58-3.35 48.47 1.03l58.2-58.2c9.16-9.15 21.34-14.2 34.3-14.2 12.98 0 25.16 5.05 34.3 14.2s14.2 21.33 14.2 34.3c0 12.96-5.04 25.14-14.2 34.3l-82.73 82.73c-7.72 7.7-17.95 12.64-28.8 13.87-1.87.2-3.74.32-5.6.32-12.8 0-25.02-5.03-34.2-14.2-8.02-8.03-12.86-18.4-13.94-29.46-4.3 1.66-8.18 4.2-11.52 7.53l-18 18c4.17 10.78 10.46 20.4 18.73 28.68 9.35 9.35 20.43 16.17 32.93 20.25 21.93 7.2 46.08 4.98 66.25-6.07 6.92-3.78 13.28-8.56 18.92-14.2l82.74-82.73zM333.5 98.46c0-8.96-3.48-17.37-9.8-23.7-6.32-6.3-14.73-9.8-23.7-9.8-8.96 0-17.37 3.5-23.68 9.8l-53.3 53.3c10.3 4.8 19.65 11.35 27.84 19.55 8.2 8.2 14.75 17.54 19.55 27.84l53.3-53.3c6.32-6.3 9.8-14.72 9.8-23.68zm-92.54 106.42l18.02-18c-4.17-10.77-10.45-20.4-18.72-28.66-9.35-9.35-20.44-16.17-32.95-20.26-21.93-7.18-46.07-4.97-66.24 6.07-6.92 3.78-13.27 8.55-18.9 14.2l-82.74 82.72c-32.56 32.56-32.56 85.54 0 118.1 32.55 32.56 85.53 32.56 118.1 0l81.9-81.92c-7.27 1.67-14.7 2.52-22.18 2.52-8.82 0-17.66-1.2-26.27-3.56l-58.2 58.2c-4.6 4.58-9.92 8.12-15.73 10.53-5.8 2.4-12.1 3.66-18.58 3.66-12.97 0-25.15-5.05-34.3-14.2-18.9-18.9-18.9-49.68 0-68.6l82.74-82.74c7.72-7.72 17.95-12.64 28.8-13.87 14.8-1.7 29.3 3.36 39.8 13.86 8.04 8.03 12.87 18.4 13.95 29.45 4.28-1.64 8.18-4.18 11.5-7.52zm-26.38 9.7c-.6-7.9-3.98-15.3-9.68-21-5.7-5.7-13.12-9.07-21-9.7.62 7.9 3.98 15.3 9.68 21s13.12 9.08 21 9.7zm-92.42 109.1l53.3-53.28c-10.3-4.8-19.64-11.35-27.84-19.55-8.2-8.2-14.74-17.53-19.55-27.84l-53.3 53.3c-13.06 13.07-13.06 34.33 0 47.4 3.15 3.16 6.84 5.6 10.85 7.26 4.02 1.66 8.36 2.53 12.84 2.53 8.96 0 17.38-3.5 23.7-9.8z"/><path fill="#F48C6C" d="M359.06 39.4c32.55 32.57 32.55 85.54 0 118.1l-82.74 82.74c-5.64 5.63-12 10.4-18.9 14.2-20.18 11.04-44.33 13.25-66.26 6.06-12.5-4.08-23.58-10.9-32.93-20.25-8.27-8.27-14.56-17.9-18.73-28.67l18-18c3.35-3.35 7.24-5.88 11.53-7.54 1.08 11.06 5.92 21.43 13.94 29.46 9.18 9.17 21.4 14.2 34.2 14.2 1.86 0 3.73-.12 5.6-.33 10.85-1.23 21.08-6.16 28.8-13.88l82.74-82.75c9.16-9.15 14.2-21.33 14.2-34.3 0-12.96-5.04-25.14-14.2-34.3S313 49.98 300 49.98c-12.96 0-25.14 5.04-34.3 14.2l-58.2 58.2c-15.88-4.4-32.58-4.68-48.46-1.04l81.92-81.92C256.7 23.67 277.66 15 300 15c22.34 0 43.3 8.67 59.06 24.4z"/><path fill="#3DD0F2" d="M258.98 186.87l-18.02 18c-3.33 3.35-7.23 5.9-11.5 7.54-1.1-11.04-5.92-21.4-13.95-29.44-10.5-10.5-25-15.55-39.8-13.87-10.85 1.22-21.08 6.14-28.8 13.86L64.16 265.7c-18.9 18.92-18.9 49.7 0 68.6 9.15 9.15 21.33 14.2 34.3 14.2 6.48 0 12.77-1.27 18.58-3.67 5.8-2.4 11.14-5.95 15.72-10.53l58.2-58.2c8.62 2.36 17.46 3.55 26.28 3.55 7.47 0 14.9-.85 22.2-2.52l-81.93 81.92c-32.55 32.56-85.53 32.56-118.08 0-32.56-32.56-32.56-85.54 0-118.1l82.74-82.73c5.63-5.64 11.98-10.4 18.9-14.2 20.17-11.03 44.3-13.24 66.25-6.06 12.52 4.1 23.6 10.9 32.96 20.26 8.27 8.27 14.55 17.9 18.72 28.65z"/></svg>