<?xml version="1.0" standalone="no"?>
<!DOCTYPE svg PUBLIC "-//W3C//DTD SVG 20010904//EN"
 "http://www.w3.org/TR/2001/REC-SVG-20010904/DTD/svg10.dtd">
<svg version="1.0" xmlns="http://www.w3.org/2000/svg"
 width="601.000000pt" height="601.000000pt" viewBox="0 0 601.000000 601.000000"
 preserveAspectRatio="xMidYMid meet">
<metadata>
Created by potrace 1.11, written by Peter Selinger 2001-2013
</metadata>
<g transform="translate(0.000000,601.000000) scale(0.100000,-0.100000)"
fill="#000000" stroke="none">
<path d="M2825 5993 c-484 -27 -1017 -206 -1439 -483 -189 -125 -321 -232
-492 -404 -332 -332 -562 -691 -715 -1119 -178 -496 -219 -1066 -113 -1571
100 -474 297 -892 602 -1276 102 -128 353 -378 482 -480 885 -701 2047 -851
3060 -396 756 341 1359 1000 1626 1781 122 354 173 689 161 1055 -21 638 -250
1249 -662 1765 -105 132 -333 360 -468 467 -591 470 -1305 702 -2042 661z
m219 -117 c67 -20 86 -40 86 -90 0 -58 -10 -69 -52 -61 -29 5 -37 13 -44 38
-7 22 -18 33 -39 39 -61 17 -125 -10 -125 -53 0 -21 24 -34 135 -74 74 -27
105 -63 105 -120 0 -25 -7 -59 -15 -75 -37 -72 -187 -98 -276 -49 -43 24 -44
25 -47 82 l-3 57 39 0 c37 0 40 -2 46 -35 6 -28 13 -36 40 -43 67 -19 124 13
112 62 -4 18 -18 29 -53 41 -134 48 -156 59 -174 89 -48 79 1 171 106 197 50
12 109 10 159 -5z m369 -140 c18 -7 40 -22 50 -33 15 -17 16 -26 6 -69 l-12
-50 -41 5 c-35 5 -41 10 -46 35 -10 58 -77 61 -106 4 -20 -39 -23 -119 -5
-141 20 -25 58 -21 76 7 14 20 20 22 56 16 22 -4 42 -10 45 -13 3 -3 -2 -19
-11 -37 -50 -96 -216 -93 -265 5 -8 18 -14 57 -14 96 0 79 34 147 86 172 41
20 137 22 181 3z m-897 -67 c20 -20 28 -44 39 -120 8 -52 15 -97 15 -101 0 -5
6 -8 14 -8 20 0 27 -59 7 -64 -54 -15 -83 -17 -96 -6 -10 9 -15 9 -15 1 0 -17
-56 -41 -97 -41 -61 1 -93 38 -93 108 0 32 6 45 30 66 17 14 50 31 73 37 53
16 61 22 52 48 -13 42 -95 34 -95 -9 0 -22 -5 -25 -46 -34 -28 -6 -31 -4 -42
31 -10 34 -9 40 11 61 60 66 191 82 243 31z m1229 2 c61 -28 78 -53 83 -121
12 -169 -169 -287 -297 -192 -93 69 -59 267 54 318 42 19 113 17 160 -5z
m-1555 -70 c3 -15 -9 -69 -32 -139 -21 -63 -38 -118 -38 -123 0 -4 14 -3 30 2
22 8 30 17 30 34 0 17 8 26 31 34 18 6 33 11 35 11 9 0 35 -113 28 -119 -9 -7
-226 -91 -236 -91 -3 0 -11 13 -17 28 -10 23 -7 47 19 146 16 64 30 119 30
121 0 2 -13 -2 -28 -7 -22 -9 -28 -16 -24 -34 3 -19 -2 -26 -29 -37 -19 -8
-35 -13 -36 -13 -1 1 -14 28 -28 59 l-25 58 28 10 c150 60 229 88 242 86 8 -1
17 -13 20 -26z m1858 -35 c3 -4 -20 -59 -51 -122 -43 -88 -54 -121 -47 -134
10 -19 50 -33 72 -25 12 5 98 146 98 161 0 4 -7 12 -16 19 -15 11 -15 14 1 38
9 15 21 27 26 27 17 0 139 -59 139 -67 0 -4 -34 -60 -74 -123 -67 -103 -73
-117 -59 -132 13 -14 13 -19 -2 -42 -10 -14 -21 -26 -26 -26 -23 0 -109 52
-109 65 0 11 -12 15 -49 15 -39 0 -56 6 -80 26 -45 38 -43 98 6 206 35 75 36
81 19 93 -16 12 -16 15 -2 44 l16 31 66 -24 c36 -13 68 -27 72 -30z m440 -116
c65 -34 64 -33 37 -70 l-25 -34 27 -21 26 -22 -19 -26 c-22 -30 -29 -32 -64
-13 -23 13 -26 12 -68 -43 -80 -101 -80 -101 -52 -123 21 -17 22 -21 9 -45 -7
-14 -20 -28 -28 -31 -23 -9 -98 37 -111 69 -16 38 -5 69 65 168 54 78 55 81
36 93 -26 16 -26 26 -1 58 17 22 22 23 39 13 29 -18 35 -17 54 17 21 35 26 36
75 10z m-2640 -4 c20 -10 40 -41 71 -105 24 -50 49 -91 57 -91 13 0 34 -29 34
-47 0 -12 -89 -55 -100 -48 -4 3 -24 -11 -43 -30 -28 -28 -43 -35 -74 -35 -67
0 -121 60 -108 120 7 31 69 94 104 105 26 8 27 19 1 45 -30 30 -91 0 -83 -43
5 -28 -54 -67 -69 -45 -37 54 -38 64 -14 96 60 82 154 114 224 78z m-317 -108
l30 -43 -28 -22 c-34 -28 -45 -28 -68 -3 -22 24 -46 25 -85 5 -66 -34 -78
-102 -31 -176 54 -86 125 -122 185 -94 19 9 42 28 51 41 14 22 14 27 -1 56
-16 30 -15 32 7 49 35 27 46 24 75 -21 27 -40 27 -40 10 -85 -21 -55 -94 -122
-143 -131 -47 -9 -125 1 -163 21 -46 24 -109 91 -131 138 -64 143 51 305 218
307 39 0 46 -4 74 -42z m1824 -107 c455 -78 861 -281 1195 -598 366 -348 603
-794 687 -1292 25 -150 25 -532 0 -682 -38 -224 -104 -432 -205 -639 -55 -113
-56 -114 -67 -85 -27 78 -71 150 -102 166 -17 9 -52 36 -76 62 -55 56 -96 77
-307 157 -91 34 -258 106 -371 160 -113 54 -234 108 -268 121 -49 17 -68 30
-86 58 -12 20 -57 74 -99 120 -42 46 -90 103 -107 127 -16 24 -39 48 -49 54
-47 25 -51 46 -38 199 l12 141 32 0 c50 0 78 36 108 146 15 52 43 135 62 182
46 112 58 223 26 262 -14 18 -29 24 -56 23 -42 -1 -48 12 -10 21 20 5 23 10
15 20 -12 14 -11 43 2 64 6 8 0 12 -22 12 -17 0 -30 3 -29 8 1 4 -2 17 -6 30
-4 13 -6 25 -4 28 3 2 92 20 199 40 327 61 501 115 562 175 28 28 35 63 16 75
-40 24 -219 20 -561 -12 l-66 -6 -4 83 c-2 46 3 120 10 164 12 80 12 80 -13
100 -21 17 -25 31 -31 103 -7 78 -9 84 -33 94 -37 14 -122 4 -137 -16 -7 -10
-15 -17 -18 -17 -12 2 -7 -11 33 -89 35 -66 78 -216 66 -228 -2 -2 -22 0 -46
5 -38 7 -44 12 -52 42 -14 55 -60 113 -164 208 -53 48 -158 147 -233 218 -135
131 -222 206 -250 219 -37 15 370 -4 485 -23z m-562 12 c-7 -2 -21 -2 -30 0
-10 3 -4 5 12 5 17 0 24 -2 18 -5z m-90 -10 c-7 -2 -19 -2 -25 0 -7 3 -2 5 12
5 14 0 19 -2 13 -5z m-66 -9 c-3 -3 -12 -4 -19 -1 -8 3 -5 6 6 6 11 1 17 -2
13 -5z m-50 -10 c-3 -3 -12 -4 -19 -1 -8 3 -5 6 6 6 11 1 17 -2 13 -5z m-50
-10 c-3 -3 -12 -4 -19 -1 -8 3 -5 6 6 6 11 1 17 -2 13 -5z m-327 -116 c-12
-18 -33 -58 -47 -88 -13 -30 -55 -118 -93 -195 -111 -228 -147 -314 -181 -429
l-32 -110 22 -90 c12 -50 21 -96 21 -103 0 -7 -19 -17 -42 -23 -325 -83 -491
-135 -588 -186 -106 -55 -141 -100 -93 -119 51 -19 478 8 640 41 l31 6 -5 -59
c-5 -55 -1 -69 45 -179 27 -65 66 -159 86 -209 21 -49 48 -100 62 -112 30 -27
70 -30 96 -7 21 20 20 25 47 -115 15 -78 33 -131 70 -208 28 -57 53 -103 56
-103 3 0 -12 35 -33 78 -49 97 -67 152 -91 277 -11 55 -27 118 -35 140 l-16
40 6 -36 c8 -49 -9 -79 -44 -79 -48 1 -72 32 -107 140 -10 30 -45 113 -78 183
-55 118 -59 133 -55 183 5 63 9 69 37 55 17 -10 19 -15 9 -42 -8 -25 -7 -42 8
-85 10 -30 22 -54 26 -54 4 0 7 31 5 69 -1 38 -6 67 -11 64 -4 -3 -6 -26 -3
-52 5 -45 5 -46 -8 -16 -18 38 -18 57 -2 79 11 15 15 16 25 3 24 -29 50 -125
45 -165 -3 -24 1 -59 11 -88 18 -53 87 -155 93 -138 2 6 -12 27 -32 48 -51 55
-87 197 -47 188 10 -2 9 4 -2 25 -7 16 -22 53 -31 84 -15 48 -24 59 -54 74
-31 15 -33 18 -17 27 10 5 28 8 41 6 19 -4 25 1 34 31 8 29 20 41 56 59 26 12
50 20 55 17 4 -3 10 0 12 6 10 30 373 96 1088 199 118 17 223 33 232 36 10 3
27 -5 39 -17 22 -22 22 -26 17 -223 -3 -111 -3 -259 1 -331 7 -113 8 -119 9
-48 2 63 7 90 23 118 12 20 19 38 16 42 -4 3 -12 -7 -19 -22 -11 -24 -13 -25
-19 -8 -5 10 -5 117 -2 239 4 162 3 223 -5 228 -27 16 -9 27 41 24 l52 -3 1
-46 c2 -49 18 -89 35 -89 6 0 7 -4 4 -10 -3 -5 -1 -19 5 -30 8 -16 8 -20 -3
-20 -8 0 -19 10 -26 23 -9 16 -10 17 -5 2 3 -11 9 -41 11 -66 5 -46 6 -46 24
-28 24 24 30 24 63 -2 23 -18 26 -28 26 -77 -1 -31 -10 -82 -21 -112 -36 -100
-88 -254 -99 -296 -19 -77 -93 -122 -118 -71 -9 18 -11 11 -11 -45 -1 -37 -17
-148 -36 -245 -46 -232 -73 -290 -193 -412 -48 -49 -97 -94 -110 -100 l-23
-12 17 28 c10 15 -7 3 -37 -28 -67 -70 -137 -99 -238 -99 -90 0 -134 17 -266
102 -137 88 -166 116 -217 201 -49 82 -61 89 -19 10 l31 -57 -42 -85 c-41 -82
-45 -87 -98 -111 -30 -13 -189 -91 -352 -173 -272 -136 -302 -153 -347 -203
-87 -95 -141 -230 -141 -354 0 -36 -11 -108 -24 -160 -17 -68 -21 -99 -14
-110 35 -51 -98 102 -157 181 -228 305 -372 652 -431 1034 -23 150 -23 461 0
610 111 714 520 1305 1156 1671 67 38 292 144 308 144 2 0 -6 -15 -18 -32z
m1444 -184 c9 -3 16 -18 17 -33 0 -23 1 -24 9 -6 7 17 9 15 9 -11 1 -17 4 -52
7 -78 l7 -46 -52 0 c-49 0 -51 1 -67 38 -24 55 -44 125 -38 131 8 8 24 -21 25
-44 0 -11 5 -29 10 -40 7 -14 8 -3 4 38 l-5 57 29 0 c16 0 36 -3 45 -6z
m-2559 -14 c15 -6 57 -37 95 -70 40 -36 73 -58 82 -55 7 3 24 -5 36 -18 l22
-23 -39 -38 c-22 -21 -43 -36 -49 -32 -5 3 -14 -12 -21 -34 -24 -80 -117 -108
-181 -53 -30 25 -32 30 -28 75 4 35 14 60 37 89 27 32 30 43 21 54 -33 40
-109 -13 -81 -56 10 -17 8 -25 -11 -49 -13 -16 -25 -29 -28 -29 -3 0 -20 12
-37 27 -32 26 -32 28 -22 69 19 72 102 151 161 153 9 0 29 -5 43 -10z m-145
-340 c67 -44 82 -50 95 -40 13 11 20 11 40 0 14 -7 25 -17 25 -22 0 -13 -90
-138 -99 -138 -19 0 -51 33 -46 49 4 12 -13 27 -64 59 -75 46 -95 50 -123 25
-37 -33 -23 -57 60 -102 63 -35 80 -40 95 -31 15 9 24 8 43 -5 14 -9 24 -20
22 -24 -2 -4 -21 -37 -42 -73 -38 -65 -40 -66 -68 -56 -25 9 -29 15 -25 36 4
22 -3 28 -87 68 -90 42 -91 43 -108 23 -16 -19 -19 -19 -48 -4 l-31 16 27 47
c15 26 32 55 38 65 6 10 18 16 27 14 13 -4 18 5 22 41 4 37 12 53 42 80 33 31
42 34 81 29 31 -3 68 -20 124 -57z m2755 -8 c12 -8 14 -126 3 -138 -5 -4 -8
-15 -8 -25 0 -18 -27 -29 -74 -29 -26 0 -28 2 -22 28 20 84 39 135 56 152 22
22 29 24 45 12z m-266 -98 c28 -6 31 -10 31 -44 l0 -38 -52 4 c-59 4 -63 7
-73 52 -6 31 -6 32 28 32 19 0 49 -3 66 -6z m1883 -30 c50 -16 90 -57 102
-106 l6 -26 34 34 c28 28 42 34 76 34 52 0 76 -13 95 -50 29 -56 16 -113 -32
-138 -19 -11 -22 -9 -25 11 -5 35 -57 31 -78 -6 -14 -26 -14 -29 3 -41 9 -7
17 -25 17 -39 0 -29 34 -47 53 -28 17 17 27 13 27 -10 0 -33 -19 -59 -44 -59
-19 0 -24 -7 -29 -34 -8 -48 -35 -86 -61 -86 -12 0 -39 9 -61 20 -26 13 -42
17 -49 10 -16 -16 -62 -12 -77 7 -11 13 -11 17 -1 21 41 13 58 72 21 72 -16 0
-19 4 -15 16 4 10 -1 25 -10 35 -35 39 -102 10 -76 -32 17 -27 7 -39 -34 -39
-26 0 -44 8 -65 29 -24 25 -29 38 -29 79 0 44 4 54 32 77 27 23 39 26 84 23
l52 -3 -24 28 c-33 40 -33 110 2 178 19 39 29 49 42 44 9 -4 38 -13 64 -21z
m-4594 -174 c24 -11 42 -23 40 -27 -33 -64 -78 -164 -78 -172 0 -14 11 -14 44
-1 30 11 56 57 56 100 0 29 2 30 41 30 l41 0 -4 -53 c-2 -30 -13 -71 -25 -93
-43 -85 -167 -114 -269 -63 -66 33 -89 68 -89 133 2 132 119 202 243 146z
m-33 -367 c9 13 20 16 39 11 14 -3 28 -9 31 -13 9 -15 -30 -114 -46 -118 -13
-4 -15 -11 -10 -31 10 -37 -3 -89 -30 -118 -36 -38 -85 -46 -190 -33 -83 11
-93 10 -104 -4 -7 -10 -26 -17 -45 -17 l-33 0 7 43 c4 23 11 58 16 78 l10 35
125 -20 c137 -22 153 -20 169 28 14 37 2 45 -96 68 -82 19 -83 19 -98 0 -12
-14 -25 -18 -48 -14 -18 2 -32 6 -32 7 0 6 42 140 46 146 2 4 65 -9 140 -29
128 -34 137 -35 149 -19z m-325 -391 l28 -28 32 29 c30 26 38 29 87 25 44 -4
60 -11 86 -36 28 -29 31 -37 31 -94 0 -35 -3 -114 -8 -175 -8 -98 -11 -113
-27 -113 -9 0 -24 -3 -33 -6 -12 -5 -18 2 -22 22 l-5 29 -117 -7 c-64 -3 -140
-7 -168 -7 -48 -1 -52 -3 -59 -28 -8 -32 -21 -43 -54 -43 l-24 0 7 98 c20 281
59 362 174 362 34 0 49 -6 72 -28z m3055 -580 c-10 -24 -19 -42 -21 -40 -2 2
4 44 14 94 17 87 17 88 20 40 2 -30 -4 -68 -13 -94z m65 -16 c21 -95 -8 -151
-202 -398 -147 -186 -176 -228 -245 -353 -50 -89 -77 -116 -133 -130 -23 -5
-31 2 -87 87 -33 51 -67 107 -76 123 -20 42 -31 79 -20 72 15 -9 84 27 230
120 168 107 257 179 346 281 73 82 147 217 147 268 l1 29 14 -26 c8 -15 19
-47 25 -73z m2256 -242 c-3 -9 -6 -22 -6 -30 0 -9 -11 -14 -30 -14 -27 0 -30
3 -30 30 0 28 3 30 36 30 29 0 35 -3 30 -16z m-146 -19 c0 -25 -2 -25 -77 -25
-43 0 -115 -3 -159 -6 l-82 -7 5 26 c6 29 9 29 236 35 76 2 77 2 77 -23z
m-3090 -72 c36 -22 87 -55 113 -73 73 -49 137 -70 216 -70 39 0 81 4 95 10 47
17 28 2 -74 -59 -65 -39 -112 -61 -132 -61 -47 0 -147 58 -214 125 -55 55 -98
126 -119 195 l-7 25 28 -26 c16 -15 58 -45 94 -66z m-5 -137 c32 -31 81 -70
109 -87 l51 -31 -40 -123 c-22 -68 -43 -126 -46 -130 -7 -7 -115 89 -129 115
-17 32 -61 273 -67 365 l-5 90 35 -71 c22 -46 56 -92 92 -128z m3161 71 c41
-37 53 -88 35 -153 -29 -106 -132 -157 -252 -124 -80 22 -118 107 -85 194 31
80 89 115 194 116 68 0 74 -2 108 -33z m-5173 -192 c94 -28 136 -70 138 -137
0 -28 2 -30 9 -12 4 11 22 33 40 47 56 47 131 32 165 -33 24 -46 19 -78 -17
-113 l-32 -32 -10 28 c-8 20 -16 27 -37 27 -31 0 -38 -8 -49 -55 -7 -29 -5
-32 13 -27 17 4 19 2 14 -20 -9 -36 15 -55 49 -40 20 10 26 9 30 -3 10 -24
-23 -65 -51 -65 -17 0 -23 -4 -19 -15 3 -8 -4 -35 -16 -60 -25 -52 -47 -57
-110 -25 -24 12 -41 16 -45 10 -10 -16 -71 -12 -85 5 -7 9 -11 16 -9 18 2 1
13 7 24 13 26 14 33 64 10 64 -12 0 -15 6 -10 19 4 13 -1 24 -17 35 -29 21
-51 20 -71 -2 -15 -16 -15 -21 -2 -39 18 -26 11 -33 -37 -33 -91 0 -132 134
-60 191 21 16 38 20 78 17 l52 -3 -21 29 c-29 42 -28 110 3 174 14 28 25 51
25 52 0 0 22 -7 48 -15z m5142 -155 c3 -5 -4 -41 -16 -80 -18 -55 -27 -70 -42
-70 -16 0 -18 5 -14 29 l6 28 -82 17 c-114 22 -139 21 -171 -10 -32 -32 -35
-83 -7 -108 18 -16 160 -66 188 -66 6 0 15 9 18 20 6 20 45 29 45 10 0 -6 -13
-40 -29 -75 -20 -43 -36 -65 -47 -65 -13 0 -15 6 -11 30 6 29 6 30 -66 51
-121 36 -141 36 -177 1 -34 -35 -40 -80 -12 -105 9 -8 55 -30 101 -47 68 -26
85 -30 92 -19 5 8 9 17 9 22 0 12 40 8 40 -5 0 -6 -16 -40 -36 -75 -37 -66
-61 -77 -57 -27 2 28 -2 31 -104 72 -96 39 -107 42 -122 28 -18 -17 -51 -22
-51 -8 0 20 42 72 58 72 14 0 17 7 14 38 -4 48 27 99 73 118 32 13 34 17 24
36 -20 37 -5 109 30 140 42 37 86 43 190 24 112 -20 106 -21 119 9 12 26 26
32 37 15z m-3107 -80 l43 -35 -5 -96 c-5 -90 -8 -102 -45 -165 l-39 -68 -6 35
c-5 28 -26 332 -26 378 0 15 -2 16 78 -49z m378 -68 c16 3 38 9 48 13 19 8 19
8 0 -25 -10 -18 -57 -73 -104 -123 l-84 -89 -15 43 c-13 41 -13 45 14 93 15
28 41 65 58 83 27 29 32 30 42 16 8 -11 21 -14 41 -11z m2054 -112 c-6 -11
-13 -20 -16 -20 -2 0 0 9 6 20 6 11 13 20 16 20 2 0 0 -9 -6 -20z m-2842 -96
c4 -38 -15 -91 -28 -78 -11 11 -2 54 11 54 5 0 9 7 9 16 0 13 -3 14 -13 5 -8
-6 -17 -7 -22 -3 -4 4 -5 -6 -1 -21 4 -19 3 -26 -4 -22 -13 8 -13 41 1 66 15
30 43 20 47 -17z m2732 -78 c0 -2 -8 -10 -17 -17 -16 -13 -17 -12 -4 4 13 16
21 21 21 13z m-1800 -32 c0 -8 -5 -24 -10 -35 -8 -14 -6 -25 6 -43 27 -43 -4
-90 -42 -62 -14 11 -22 10 -45 -3 -22 -12 -33 -13 -46 -5 -24 15 -28 48 -8 64
19 16 20 40 0 40 -19 0 -19 14 1 34 20 21 50 20 58 -1 6 -15 9 -14 29 5 25 26
57 29 57 6z m1770 -8 c0 -2 -8 -10 -17 -17 -16 -13 -17 -12 -4 4 13 16 21 21
21 13z m-30 -39 c0 -2 -10 -12 -22 -23 l-23 -19 19 23 c18 21 26 27 26 19z
m335 -11 c26 -11 33 -19 29 -31 -5 -13 -15 -15 -41 -10 -31 5 -38 2 -69 -30
-38 -40 -44 -79 -16 -94 23 -12 57 4 119 59 50 44 80 56 117 46 90 -22 65
-149 -44 -223 -40 -28 -51 -28 -80 -5 -23 19 -19 58 6 48 8 -3 20 -8 28 -12
18 -7 76 43 91 80 16 38 4 66 -30 66 -13 0 -44 -17 -70 -40 -81 -70 -129 -85
-173 -54 -17 12 -22 25 -22 58 0 51 29 99 79 133 40 27 33 26 76 9z m-375 -39
c0 -2 -12 -14 -27 -28 l-28 -24 24 28 c23 25 31 32 31 24z m-60 -70 c0 -1 -46
-47 -102 -102 l-103 -100 100 103 c93 95 105 107 105 99z m-1247 -74 c-3 -27
-6 -49 -7 -49 -3 -4 -249 -24 -290 -24 -46 0 -46 0 -46 34 0 19 6 38 13 43 6
4 75 15 152 24 205 24 186 27 178 -28z m24 -20 c-2 -16 -4 -5 -4 22 0 28 2 40
4 28 2 -13 2 -35 0 -50z m40 -5 c-2 -13 -4 -3 -4 22 0 25 2 35 4 23 2 -13 2
-33 0 -45z m-1306 -174 c15 -88 31 -171 33 -186 6 -29 -6 -36 -32 -19 -11 6
-40 142 -85 400 -5 22 -4 22 25 -7 28 -27 33 -44 59 -188z m2583 201 c16 -12
17 -17 6 -30 -15 -19 -21 -19 -45 -1 -16 12 -17 16 -6 30 16 19 21 19 45 1z
m203 -137 c56 -37 105 -68 109 -68 4 0 12 7 19 17 12 16 45 13 45 -5 0 -4 -22
-32 -48 -62 -35 -39 -53 -52 -65 -47 -16 6 -16 9 -2 30 15 24 14 25 -82 90
-91 63 -98 66 -115 50 -13 -12 -21 -14 -29 -6 -14 14 38 86 55 76 6 -4 57 -37
113 -75z m-917 22 l0 -50 -41 0 -40 0 3 42 c2 35 7 43 28 49 48 13 50 11 50
-41z m72 45 c9 -4 12 -19 10 -51 -4 -44 -5 -45 -36 -42 -27 3 -31 7 -34 36 -5
49 20 72 60 57z m-2632 -40 c19 -19 32 -35 29 -35 -3 0 -20 16 -39 35 -19 19
-32 35 -29 35 3 0 20 -16 39 -35z m2470 6 c0 -43 -10 -61 -32 -61 -18 0 -19 4
-13 37 10 56 45 74 45 24z m220 15 c0 -23 -22 -76 -31 -76 -10 0 -12 34 -3 68
7 24 34 31 34 8z m-682 -8 c7 -7 12 -29 12 -50 0 -36 -2 -38 -30 -38 -29 0
-30 2 -30 44 0 39 7 52 31 55 3 1 10 -4 17 -11z m106 -4 c9 -8 16 -31 16 -50
0 -33 -2 -35 -27 -32 -26 3 -28 7 -31 51 -3 51 11 62 42 31z m264 -30 c3 -39
1 -42 -29 -48 -60 -12 -69 -9 -69 25 0 52 16 71 58 67 36 -3 37 -5 40 -44z
m-487 -57 c-8 -8 -11 2 -11 34 0 59 14 73 18 19 2 -24 -2 -48 -7 -53z m59 48
c0 -25 -4 -45 -10 -45 -11 0 -14 73 -3 83 11 12 13 8 13 -38z m227 -17 c-2
-13 -4 -3 -4 22 0 25 2 35 4 23 2 -13 2 -33 0 -45z m51 20 c-4 -59 -28 -63
-28 -4 0 35 4 46 16 46 12 0 14 -9 12 -42z m-418 -17 l0 -49 -50 -4 -50 -3 0
53 0 52 50 0 50 0 0 -49z m-202 -13 c-3 -46 -6 -53 -25 -56 -21 -3 -23 1 -23
40 0 45 13 68 38 68 10 0 12 -14 10 -52z m-420 25 c-8 -10 -52 -65 -98 -123
-45 -58 -85 -107 -88 -110 -3 -3 -2 10 2 29 3 18 32 72 64 120 45 67 65 87 88
92 46 10 48 10 32 -8z m-1190 -172 l72 -64 -22 -25 c-34 -36 -57 -46 -74 -31
-13 10 -12 15 6 34 l21 22 -36 32 c-20 17 -40 31 -46 31 -5 0 -70 -50 -144
-112 -132 -110 -134 -113 -119 -135 14 -23 12 -43 -6 -43 -15 0 -130 112 -124
121 8 14 35 11 54 -6 14 -13 30 -3 159 101 l143 116 -38 39 c-37 38 -37 38
-66 21 -26 -15 -29 -15 -44 0 -15 15 -13 19 26 47 l43 31 61 -58 c34 -31 94
-86 134 -121z m2962 176 c0 -2 -10 -12 -22 -23 l-23 -19 19 23 c18 21 26 27
26 19z m-2885 -37 c10 -11 16 -20 13 -20 -3 0 -13 9 -23 20 -10 11 -16 20 -13
20 3 0 13 -9 23 -20z m3109 -11 l27 -21 23 21 c14 13 29 19 39 15 22 -8 21
-13 -5 -41 -13 -14 -18 -27 -12 -32 36 -35 161 -131 170 -131 6 0 21 11 33 24
13 14 29 22 37 19 41 -15 -23 -83 -78 -83 -36 0 -48 8 -190 128 -16 13 -20 13
-38 -3 -16 -15 -22 -16 -35 -5 -14 12 -14 15 1 32 17 17 16 20 -9 46 -21 22
-24 31 -15 40 16 16 21 15 52 -9z m-1774 -23 c0 -19 -4 -38 -10 -41 -6 -4 -10
10 -10 34 0 23 5 41 10 41 6 0 10 -15 10 -34z m1490 20 c0 -2 -8 -10 -17 -17
-16 -13 -17 -12 -4 4 13 16 21 21 21 13z m-2769 -33 c13 -16 12 -17 -3 -4 -17
13 -22 21 -14 21 2 0 10 -8 17 -17z m2495 -25 c-3 -13 -6 -33 -6 -45 0 -17 -9
-24 -37 -32 -60 -17 -63 -16 -63 37 0 27 3 52 7 55 3 4 29 7 56 7 46 0 49 -1
43 -22z m224 18 c0 -2 -8 -10 -17 -17 -16 -13 -17 -12 -4 4 13 16 21 21 21 13z
m-2679 -23 c13 -16 12 -17 -3 -4 -17 13 -22 21 -14 21 2 0 10 -8 17 -17z
m1905 -69 c-3 -8 -20 -14 -41 -14 -35 0 -35 0 -35 44 0 44 0 45 38 48 35 3 37
2 40 -31 2 -18 1 -39 -2 -47z m-88 29 c-3 -44 -5 -48 -30 -51 -27 -3 -28 -1
-28 41 0 50 4 57 37 57 22 0 24 -3 21 -47z m170 5 c-3 -39 -6 -43 -30 -46 -27
-3 -28 -2 -28 42 0 45 1 46 31 46 29 0 30 -1 27 -42z m974 -95 c134 -134 138
-137 163 -123 19 10 28 11 37 2 14 -14 14 -13 -56 -71 -38 -31 -53 -38 -63
-29 -11 9 -10 14 4 30 16 18 12 24 -112 148 -112 112 -130 127 -146 117 -14
-9 -22 -8 -31 1 -10 10 -7 17 17 37 17 13 34 24 40 25 5 0 71 -62 147 -137z
m-1562 57 c0 -33 -4 -50 -12 -50 -7 0 -23 -3 -36 -6 -22 -6 -23 -5 -20 42 3
48 11 56 61 63 4 1 7 -21 7 -49z m1210 46 c0 -2 -8 -10 -17 -17 -16 -13 -17
-12 -4 4 13 16 21 21 21 13z m-1360 -70 c0 -36 -4 -45 -22 -49 -30 -8 -38 -1
-38 38 0 22 6 38 18 44 33 20 42 13 42 -33z m1076 -24 c6 -4 13 -21 16 -39 4
-28 0 -33 -31 -48 -36 -17 -72 -21 -221 -27 l-85 -3 -3 57 c-3 55 -2 57 25 61
50 7 288 7 299 -1z m-1581 -95 c-24 -51 -121 -98 -139 -68 -4 5 29 41 71 80
73 65 78 68 81 46 2 -13 -4 -39 -13 -58z m1685 69 c0 -2 -7 -7 -16 -10 -8 -3
-12 -2 -9 4 6 10 25 14 25 6z m-810 -16 c0 -6 4 -8 10 -5 13 8 24 -39 16 -68
-5 -23 -10 -24 -136 -31 -72 -4 -135 -4 -140 -1 -6 3 -10 26 -10 50 0 42 2 44
33 49 95 16 227 19 227 6z m260 -30 c0 -20 -5 -30 -15 -30 -17 0 -18 4 -9 38
9 32 24 27 24 -8z m-1494 -38 c-5 -4 -106 46 -106 53 0 3 25 -7 55 -22 30 -15
53 -29 51 -31z m1394 44 c0 -8 3 -21 6 -30 4 -12 0 -16 -15 -16 -17 0 -21 6
-21 30 0 20 5 30 15 30 8 0 15 -6 15 -14z m1090 -96 c45 -52 84 -97 86 -99 2
-2 10 2 19 9 16 13 45 7 45 -9 0 -18 -73 -62 -84 -51 -6 6 -17 -3 -30 -27 -41
-71 -138 -95 -194 -48 -16 13 -48 53 -71 89 -34 52 -46 63 -63 59 -34 -9 -41
19 -10 39 15 10 32 18 39 18 6 0 41 -40 77 -90 41 -57 74 -92 90 -96 44 -11
116 43 116 88 0 10 -27 49 -61 88 -54 63 -62 69 -81 59 -16 -9 -23 -8 -29 2
-5 8 -9 16 -9 19 0 7 64 49 71 47 3 -1 43 -45 89 -97z m-650 30 c-8 -5 -19
-10 -25 -10 -5 0 -3 5 5 10 8 5 20 10 25 10 6 0 3 -5 -5 -10z m-2291 -25 c16
-8 41 -29 56 -47 24 -28 27 -39 23 -85 -6 -65 -43 -117 -109 -151 -132 -70
-299 63 -235 186 17 33 61 74 101 95 38 20 127 21 164 2z m461 -100 c17 -9 30
-17 30 -20 0 -2 -47 -84 -104 -182 l-104 -178 24 -13 c23 -12 24 -48 0 -39 -6
2 -28 10 -49 18 -26 9 -36 18 -32 29 4 13 -1 15 -29 12 -52 -6 -122 29 -142
71 -31 65 11 157 97 214 72 47 172 31 201 -32 11 -24 12 -24 45 32 30 49 32
58 19 65 -21 12 -21 38 -1 38 9 0 29 -7 45 -15z m1417 -11 c-3 -3 -12 -4 -19
-1 -8 3 -5 6 6 6 11 1 17 -2 13 -5z m-900 -10 c-3 -3 -12 -4 -19 -1 -8 3 -5 6
6 6 11 1 17 -2 13 -5z m1642 -26 c20 -33 20 -33 0 -42 -15 -7 -23 -5 -35 12
-37 53 -144 5 -144 -64 0 -78 54 -144 117 -144 47 0 107 57 98 93 -5 17 -2 26
10 31 25 9 35 -2 35 -39 0 -67 -76 -125 -164 -125 -57 0 -107 40 -132 105 -42
112 24 204 148 205 41 0 48 -3 67 -32z m-1582 16 c-3 -3 -12 -4 -19 -1 -8 3
-5 6 6 6 11 1 17 -2 13 -5z m740 0 c-3 -3 -12 -4 -19 -1 -8 3 -5 6 6 6 11 1
17 -2 13 -5z m-680 -10 c-3 -3 -12 -4 -19 -1 -8 3 -5 6 6 6 11 1 17 -2 13 -5z
m616 -1 c-7 -2 -19 -2 -25 0 -7 3 -2 5 12 5 14 0 19 -2 13 -5z m-530 -10 c-7
-2 -21 -2 -30 0 -10 3 -4 5 12 5 17 0 24 -2 18 -5z m455 0 c-10 -2 -26 -2 -35
0 -10 3 -2 5 17 5 19 0 27 -2 18 -5z m-175 -10 c-40 -2 -106 -2 -145 0 -40 1
-8 3 72 3 80 0 112 -2 73 -3z m544 -98 c6 -24 8 -47 5 -50 -13 -13 -33 -3 -42
20 -11 29 -5 29 -100 6 -81 -19 -76 -13 -72 -93 4 -58 10 -61 96 -42 55 12 80
14 88 6 16 -16 2 -29 -39 -37 -21 -3 -58 -11 -84 -16 l-45 -10 10 -69 c6 -37
14 -71 17 -75 4 -3 50 4 104 16 l97 23 -7 33 c-5 30 -4 33 17 33 20 0 26 -8
35 -42 6 -24 10 -44 8 -46 -7 -7 -164 -45 -257 -62 -94 -17 -98 -17 -98 0 0
11 10 20 26 24 18 5 24 12 20 24 -2 9 -13 83 -22 164 -18 145 -19 147 -41 142
-18 -5 -23 -2 -23 13 0 17 19 24 138 50 75 17 142 31 148 32 6 0 15 -19 21
-44z m313 -16 c11 -26 11 -32 -1 -40 -21 -13 -27 -11 -34 11 -12 38 -113 21
-137 -23 -9 -17 -7 -24 10 -38 18 -14 36 -16 105 -12 77 5 86 4 106 -16 25
-25 27 -68 5 -99 -31 -45 -133 -80 -193 -67 -23 5 -31 13 -36 37 -5 21 -3 33
6 39 21 13 25 11 37 -16 15 -32 43 -32 102 -2 31 15 46 29 48 46 5 35 -13 41
-111 39 -101 -1 -127 12 -127 67 0 63 61 105 151 105 54 0 57 -2 69 -31z
m-1638 -46 c92 -46 68 -228 -37 -278 -51 -23 -140 -17 -182 13 -99 70 -41 241
95 282 32 10 87 2 124 -17z m478 -86 c36 -18 64 -79 55 -124 l-6 -36 -107 8
c-59 3 -111 7 -116 8 -16 3 -19 -32 -5 -64 22 -54 87 -73 155 -44 31 13 36 13
41 -2 14 -37 -82 -63 -156 -43 -80 21 -114 85 -91 171 23 86 86 138 165 139
22 0 51 -6 65 -13z m330 -10 c19 -9 26 -22 28 -50 3 -32 0 -37 -17 -37 -12 0
-21 6 -21 14 0 27 -30 46 -74 46 -52 0 -79 -18 -74 -50 3 -21 14 -27 80 -46
95 -26 108 -36 108 -83 0 -62 -34 -85 -128 -89 -98 -4 -127 10 -127 58 0 29 4
36 23 38 18 3 22 -1 22 -22 0 -53 132 -57 160 -5 14 26 -17 56 -67 65 -69 12
-113 35 -119 60 -17 67 35 114 126 114 30 0 66 -6 80 -13z"/>
<path d="M2402 5474 c-25 -17 -28 -36 -8 -53 28 -24 90 28 71 59 -9 15 -37 12
-63 -6z"/>
<path d="M3637 5599 c-43 -25 -75 -147 -45 -177 19 -19 63 -14 86 11 19 20 52
95 52 119 0 14 -47 58 -62 58 -7 0 -21 -5 -31 -11z"/>
<path d="M1806 5249 c-33 -26 -32 -62 1 -67 31 -5 59 39 43 67 -13 26 -11 26
-44 0z"/>
<path d="M2080 3845 c-2 -27 -3 -87 -1 -132 3 -75 1 -84 -21 -105 -20 -21 -22
-27 -11 -49 11 -21 13 -22 14 -4 0 12 6 3 14 -20 15 -46 20 -36 6 13 -6 21 -6
43 0 60 5 16 8 86 6 158 -1 71 -5 107 -7 79z"/>
<path d="M3572 3802 c-12 -31 -24 -73 -26 -92 -2 -19 -7 -44 -10 -55 -4 -11 1
-6 10 10 l17 30 14 -30 14 -30 -6 30 c-16 75 -17 96 -5 110 18 22 49 18 60 -7
6 -17 9 -18 9 -6 1 9 -5 23 -13 31 -11 11 -12 17 -3 26 19 19 36 12 43 -16 9
-44 12 -50 13 -25 1 30 -16 62 -33 62 -7 0 -25 -9 -40 -21 l-26 -20 6 30 c10
46 2 37 -24 -27z"/>
<path d="M3661 3699 c-8 -28 -22 -60 -32 -70 -21 -21 -25 -39 -9 -39 13 0 46
76 56 125 10 53 0 42 -15 -16z"/>
<path d="M3632 3710 c0 -19 2 -27 5 -17 2 9 2 25 0 35 -3 9 -5 1 -5 -18z"/>
<path d="M2870 3679 c-6 -11 -10 -27 -8 -35 2 -8 8 1 14 20 12 40 10 46 -6 15z"/>
<path d="M3057 3678 c-4 -12 -2 -27 3 -33 6 -7 7 -15 3 -18 -3 -4 7 -7 24 -7
35 0 55 19 59 55 2 23 -1 25 -41 25 -36 0 -44 -4 -48 -22z"/>
<path d="M2910 3659 c-7 -11 -10 -23 -7 -25 2 -2 9 7 15 21 14 30 7 33 -8 4z"/>
<path d="M3203 3654 c0 -7 9 -14 19 -14 10 0 18 2 18 5 0 2 -8 9 -18 14 -14 8
-19 6 -19 -5z"/>
<path d="M3622 3650 c0 -14 2 -19 5 -12 2 6 2 18 0 25 -3 6 -5 1 -5 -13z"/>
<path d="M2980 3645 c-10 -12 -10 -15 2 -15 8 0 15 7 15 15 0 8 -1 15 -2 15
-2 0 -8 -7 -15 -15z"/>
<path d="M2354 3605 c-46 -30 -80 -45 -104 -45 -32 -1 -33 -2 -12 -11 17 -6
33 -4 60 10 30 15 52 17 120 13 59 -3 82 -1 82 7 0 7 4 10 9 7 5 -3 28 2 51
13 l41 18 -41 17 c-22 9 -62 16 -89 16 -40 0 -59 -8 -117 -45z m191 -3 c-31
-16 -36 -14 -29 15 5 19 9 20 31 10 l24 -11 -26 -14z m-126 -14 c1 -11 -47
-10 -54 1 -3 5 5 17 17 25 21 15 23 15 30 -1 3 -10 7 -21 7 -25z"/>
<path d="M2610 3635 c0 -13 24 -55 32 -55 5 0 2 14 -7 30 -14 27 -25 38 -25
25z"/>
<path d="M2681 3624 c0 -11 3 -14 6 -6 3 7 2 16 -1 19 -3 4 -6 -2 -5 -13z"/>
<path d="M3511 3580 c-14 -65 -14 -143 -1 -135 5 3 13 23 16 43 4 27 14 42 34
54 19 11 29 26 33 49 7 48 0 48 -12 1 -10 -37 -26 -52 -53 -52 -7 0 -8 16 -5
45 9 60 1 57 -12 -5z"/>
<path d="M2693 3565 c0 -22 2 -30 4 -17 2 12 2 30 0 40 -3 9 -5 -1 -4 -23z"/>
<path d="M2900 3591 c0 -6 4 -13 10 -16 6 -3 7 1 4 9 -7 18 -14 21 -14 7z"/>
<path d="M2861 3554 c0 -11 3 -14 6 -6 3 7 2 16 -1 19 -3 4 -6 -2 -5 -13z"/>
<path d="M2984 3532 c37 -42 101 -65 171 -60 36 2 70 9 77 16 10 10 6 10 -20
1 -18 -6 -60 -9 -93 -7 -47 3 -69 11 -107 37 -29 21 -40 25 -28 13z"/>
<path d="M2041 3514 c0 -11 3 -14 6 -6 3 7 2 16 -1 19 -3 4 -6 -2 -5 -13z"/>
<path d="M2870 3521 c0 -6 4 -13 10 -16 6 -3 7 1 4 9 -7 18 -14 21 -14 7z"/>
<path d="M2561 3487 c-14 -16 -43 -38 -65 -48 -23 -10 -33 -19 -23 -19 38 0
124 65 116 88 -2 5 -15 -4 -28 -21z"/>
<path d="M2050 3485 c0 -6 9 -28 20 -50 11 -22 20 -33 20 -25 -1 18 -39 90
-40 75z"/>
<path d="M2091 3474 c0 -11 3 -14 6 -6 3 7 2 16 -1 19 -3 4 -6 -2 -5 -13z"/>
<path d="M2101 3434 c0 -11 3 -14 6 -6 3 7 2 16 -1 19 -3 4 -6 -2 -5 -13z"/>
<path d="M3473 3400 c0 -25 2 -35 4 -22 2 12 2 32 0 45 -2 12 -4 2 -4 -23z"/>
<path d="M2111 3394 c0 -11 3 -14 6 -6 3 7 2 16 -1 19 -3 4 -6 -2 -5 -13z"/>
<path d="M2121 3354 c0 -11 3 -14 6 -6 3 7 2 16 -1 19 -3 4 -6 -2 -5 -13z"/>
<path d="M2648 3330 c-4 -14 -8 -38 -7 -55 0 -30 0 -30 10 -5 6 13 9 38 7 55
-3 29 -3 30 -10 5z"/>
<path d="M2975 3313 c36 -9 55 -34 55 -74 0 -36 -3 -40 -43 -59 -24 -11 -65
-43 -92 -70 -61 -61 -79 -63 -159 -11 -34 22 -78 43 -99 46 -41 8 -57 28 -57
73 0 19 8 35 23 45 l22 16 -23 -6 c-27 -6 -37 -39 -28 -89 5 -23 3 -41 -5 -50
-11 -13 -9 -14 14 -3 35 16 88 1 154 -44 26 -18 56 -36 66 -40 25 -9 69 15
105 58 40 50 115 87 148 75 17 -7 23 -7 19 0 -3 6 -13 10 -21 10 -9 0 -14 11
-14 30 0 17 3 30 8 30 4 0 54 -46 111 -101 57 -55 95 -88 85 -72 -10 15 -69
76 -130 136 -82 80 -116 107 -135 106 -20 -1 -21 -2 -4 -6z"/>
<path d="M2523 3218 c-115 -162 -163 -241 -162 -266 l1 -27 7 25 c13 42 38 85
107 182 66 93 88 128 81 128 -2 0 -17 -19 -34 -42z"/>
<path d="M3130 3116 c0 -2 8 -10 18 -17 15 -13 16 -12 3 4 -13 16 -21 21 -21
13z"/>
<path d="M2499 3083 c-13 -16 -12 -17 4 -4 9 7 17 15 17 17 0 8 -8 3 -21 -13z"/>
<path d="M3267 2985 c3 -33 7 -62 9 -64 8 -9 2 85 -6 104 -6 13 -7 -2 -3 -40z"/>
<path d="M3191 2993 c-1 -24 -12 -29 -86 -38 -27 -4 -73 -15 -102 -26 -31 -11
-77 -18 -116 -18 -35 0 -83 -4 -106 -11 -26 -7 -73 -9 -119 -5 -43 3 -90 2
-107 -3 -35 -11 13 -14 245 -15 124 -1 139 1 180 23 25 13 48 25 53 26 4 1 9
3 12 4 8 4 17 6 77 14 60 8 83 24 75 53 -4 15 -5 14 -6 -4z"/>
<path d="M2815 2670 c-49 -5 -38 -7 55 -7 71 0 104 2 85 7 -35 9 -59 9 -140 0z"/>
<path d="M2728 2653 c7 -3 16 -2 19 1 4 3 -2 6 -13 5 -11 0 -14 -3 -6 -6z"/>
<path d="M1111 4704 c-26 -33 -27 -50 -1 -64 15 -8 24 -6 40 10 25 25 25 42 1
64 -18 16 -20 16 -40 -10z"/>
<path d="M3680 4522 c0 -5 7 -9 15 -9 8 0 12 4 9 9 -3 4 -9 8 -15 8 -5 0 -9
-4 -9 -8z"/>
<path d="M3666 4473 c-6 -14 -5 -15 5 -6 7 7 10 15 7 18 -3 3 -9 -2 -12 -12z"/>
<path d="M3638 4450 c-12 -41 -9 -67 8 -74 20 -8 33 2 17 12 -6 4 -13 25 -15
47 -3 35 -4 37 -10 15z"/>
<path d="M5550 4270 c0 -5 5 -10 10 -10 6 0 10 5 10 10 0 6 -4 10 -10 10 -5 0
-10 -4 -10 -10z"/>
<path d="M5135 4090 c3 -5 8 -10 11 -10 2 0 4 5 4 10 0 6 -5 10 -11 10 -5 0
-7 -4 -4 -10z"/>
<path d="M5390 4055 c-14 -8 -20 -14 -15 -14 6 0 21 6 35 14 14 8 21 14 15 14
-5 0 -21 -6 -35 -14z"/>
<path d="M585 4140 c-15 -17 -16 -24 -7 -45 17 -37 35 -31 60 20 l22 45 -29 0
c-15 0 -36 -9 -46 -20z"/>
<path d="M263 3385 c-23 -16 -43 -70 -43 -118 0 -28 0 -28 58 -25 l57 3 3 62
c3 54 0 63 -20 77 -28 20 -28 20 -55 1z"/>
<path d="M446 3381 c-12 -13 -35 -101 -36 -138 0 -2 29 -3 64 -3 63 0 64 0 70
31 10 50 7 104 -6 117 -18 18 -73 14 -92 -7z"/>
<path d="M5459 2447 c-19 -12 -42 -40 -53 -61 -18 -36 -18 -40 -2 -73 21 -44
73 -67 139 -60 114 11 168 155 76 202 -43 23 -120 19 -160 -8z"/>
<path d="M760 2139 c0 -5 5 -7 10 -4 6 3 10 8 10 11 0 2 -4 4 -10 4 -5 0 -10
-5 -10 -11z"/>
<path d="M590 1960 c0 -5 5 -10 11 -10 5 0 7 5 4 10 -3 6 -8 10 -11 10 -2 0
-4 -4 -4 -10z"/>
<path d="M585 1921 c-22 -11 -37 -20 -34 -20 10 -1 79 29 79 34 0 7 0 7 -45
-14z"/>
<path d="M3814 1036 c-12 -32 0 -61 28 -64 34 -4 54 27 38 58 -12 23 -58 27
-66 6z m56 -11 c10 -12 10 -18 0 -30 -25 -30 -61 -7 -46 30 3 8 12 15 19 15 8
0 20 -7 27 -15z"/>
<path d="M3130 995 c-26 -32 13 -81 48 -59 34 22 22 74 -18 74 -10 0 -23 -7
-30 -15z"/>
<path d="M1468 859 c-42 -22 -88 -82 -88 -116 0 -30 44 -80 84 -93 93 -30 210
97 166 181 -14 25 -62 49 -97 49 -15 -1 -45 -10 -65 -21z"/>
<path d="M1794 681 c-59 -36 -105 -122 -84 -160 21 -40 111 -66 146 -43 23 15
89 138 86 159 -5 31 -48 63 -86 63 -17 0 -45 -9 -62 -19z"/>
<path d="M2158 550 c-41 -22 -77 -73 -85 -124 -5 -30 -1 -40 25 -66 78 -77
202 -5 202 117 0 72 -73 110 -142 73z"/>
<path d="M2631 439 c-17 -17 -31 -34 -31 -38 0 -7 102 -21 158 -21 28 0 29 28
1 64 -30 38 -87 37 -128 -5z"/>
</g>
</svg>
