<svg xmlns="http://www.w3.org/2000/svg" viewBox="0 0 512 512" enable-background="new 0 0 512 512" class="cancela m1 right"><path fill="#FD3C65" d="M256 10c132.55 0 246 113.45 246 246S388.55 502 256 502 10 388.55 10 256 123.45 10 256 10z" tabindex="0"/><path fill="#fff" d="M347.2 164.8c11.73 11.7 11.73 30.7 0 42.4L298.43 256l48.8 48.8c11.7 11.7 11.7 30.7 0 42.4-5.87 5.87-13.54 8.8-21.22 8.8s-15.35-2.93-21.2-8.8L256 298.43l-48.8 48.8c-5.85 5.85-13.52 8.78-21.2 8.78s-15.35-2.93-21.2-8.8c-11.73-11.7-11.73-30.7 0-42.4l48.78-48.8-48.8-48.8c-11.7-11.7-11.7-30.7 0-42.4 11.73-11.73 30.7-11.73 42.43 0l48.8 48.78 48.8-48.8c11.7-11.7 30.7-11.7 42.4 0z" tabindex="1"/><path d="M491.38 157.66c-13.15-30.3-31.86-57.7-55.6-81.44s-51.14-42.44-81.44-55.6C322.8 6.95 289.72 0 256 0s-66.8 6.94-98.34 20.63c-30.3 13.15-57.7 31.85-81.44 55.6s-42.44 51.13-55.6 81.43C6.95 189.2 0 222.28 0 256s6.94 66.8 20.63 98.34c13.15 30.3 31.85 57.7 55.6 81.44s51.13 42.44 81.43 55.6C189.2 505.05 222.28 512 256 512s66.8-6.94 98.34-20.63c30.3-13.15 57.7-31.85 81.44-55.6s42.44-51.13 55.6-81.43C505.05 322.8 512 289.72 512 256s-6.94-66.8-20.63-98.34zM256 492C128.07 492 20 383.93 20 256S128.07 20 256 20s236 108.08 236 236-108.07 236-236 236zM451.98 173.8c-10.87-25.25-26.37-48.04-46.05-67.73-19.7-19.68-42.48-35.17-67.73-46.04C311.95 48.73 284.3 43 256 43c-38.46 0-78.56 13.13-115.94 37.98-4.6 3.06-5.86 9.26-2.8 13.86 3.06 4.6 9.27 5.85 13.86 2.8C185.22 74.98 221.5 63 256 63c104.62 0 193 88.38 193 193s-88.38 193-193 193S63 360.62 63 256c0-34.5 11.97-70.77 34.63-104.88 3.05-4.6 1.8-10.8-2.8-13.86-4.6-3.06-10.8-1.8-13.86 2.8C56.13 177.46 43 217.56 43 256c0 28.3 5.73 55.95 17.02 82.2 10.87 25.25 26.37 48.04 46.05 67.73 19.7 19.68 42.48 35.17 67.73 46.04C200.05 463.27 227.7 469 256 469s55.95-5.73 82.2-17.02c25.25-10.87 48.04-26.37 67.73-46.05 19.68-19.7 35.17-42.48 46.04-67.73C463.27 311.95 469 284.3 469 256s-5.73-55.95-17.02-82.2zM114 105c-5.52 0-10 4.48-10 10s4.48 10 10 10 10-4.48 10-10-4.48-10-10-10zM146 326c0 10.7 4.16 20.73 11.72 28.28 7.56 7.56 17.6 11.72 28.28 11.72s20.72-4.16 28.28-11.72L256 312.56l41.72 41.72c7.56 7.56 17.6 11.72 28.28 11.72s20.72-4.16 28.28-11.72c7.56-7.55 11.72-17.6 11.72-28.28s-4.16-20.73-11.72-28.28L312.56 256l41.72-41.72c7.56-7.55 11.72-17.6 11.72-28.28s-4.16-20.73-11.72-28.28C346.72 150.16 336.68 146 326 146s-20.72 4.16-28.28 11.72L256 199.44l-41.72-41.72C206.72 150.16 196.68 146 186 146s-20.72 4.16-28.28 11.72C150.16 165.27 146 175.32 146 186s4.16 20.73 11.72 28.28L199.44 256l-41.72 41.72C150.16 305.27 146 315.32 146 326zm25.86-14.14l48.8-48.8c3.9-3.9 3.9-10.23 0-14.13l-48.8-48.8c-3.78-3.77-5.86-8.8-5.86-14.13s2.08-10.36 5.86-14.14c3.78-3.78 8.8-5.86 14.14-5.86s10.36 2.08 14.14 5.86l48.8 48.8c3.9 3.9 10.23 3.9 14.13 0l48.8-48.8c3.77-3.78 8.8-5.86 14.13-5.86s10.36 2.08 14.14 5.86c3.78 3.78 5.86 8.8 5.86 14.14s-2.08 10.36-5.86 14.14l-48.8 48.8c-3.9 3.9-3.9 10.23 0 14.13l48.8 48.8c3.78 3.77 5.86 8.8 5.86 14.13s-2.08 10.36-5.86 14.14c-3.78 3.78-8.8 5.86-14.14 5.86s-10.36-2.08-14.14-5.86l-48.8-48.8c-1.94-1.94-4.5-2.92-7.06-2.92s-5.12.98-7.07 2.93l-48.8 48.8c-3.77 3.77-8.8 5.85-14.13 5.85s-10.36-2.08-14.14-5.86c-3.78-3.78-5.86-8.8-5.86-14.14s2.08-10.36 5.86-14.14z" tabindex="2"/></svg>