<svg xmlns="http://www.w3.org/2000/svg" viewBox="0 0 800.9691 293.1333"><title>Mesa de trabajo 2</title><g style="isolation:isolate"><path fill="#b7dfe5" d="M310.07 175.62l-13.4-18.6L281.33 132l-14.18-19.73-9.84 13.95-13.4 14.85-26 37.43-19.88 25.92 33.48.67 96.7-.9-2.77-3.54-15.36-25.04z"/><path fill="#a2d8dd" d="M258.28 186.26l-3.88 18.62 8.5-.08 1.3-13.67.38-27.7.6-23.25-3.36 17.72-3.54 28.36zM283.88 161.45l-5.9-21.05s1.37 15.07 1.57 15.73 1.57 19.72 1.57 19.72l3.66 28.75 9.43-.1-2.64-9.38zM233.86 180.94l-12.24 23.95 8.6.16 6.4-14.37 7.3-17.73 8.06-17.5 5.7-17.06s-11.2 20.6-11.2 21.27-12.62 21.27-12.62 21.27z"/><path fill="#def8ff" d="M281.32 132l-14.18-19.73-9.84 13.95-4.43 4.9.1 3.52 4.72-4.2-2.17 15.06 7.87-13.3 1 18.84 6.3-19.5 8.65 12.85-1.18-12.86 4.3 2.32-1.15-1.88z"/><path fill="#dff0f2" d="M310.07 175.62l-13.4-18.6-6-9.8 2.07 10.57-2.07 16.6-13.3 13.3-20.96 4-26.28 3.97-19.8 2-7-.16-5.3 6.92 33.48.67 96.7-.9-2.77-3.54-15.36-25.04z" style="mix-blend-mode:multiply"/><path fill="#b7dfe5" d="M230.53 180.97L214.37 161l-18.53-26.84-17.1-21.14L166.86 128l-16.15 15.9-31.35 40.15-24 27.8 40.4.7 116.64-.94-3.34-3.8-18.53-26.84z"/><path fill="#a2d8dd" d="M168.05 192.37l-4.7 19.97 10.27-.1 1.56-14.65.47-29.7.72-24.95-4.04 19-4.28 30.42zM198.93 165.76l-7.12-22.57s1.67 16.14 1.9 16.86c.24.7 1.9 21.14 1.9 21.14l4.4 30.84 11.4-.1-3.2-10.07zM138.6 186.67l-14.78 25.68 10.4.18 7.7-15.4 8.8-19 9.73-18.78 6.9-18.3s-13.55 22.1-13.55 22.8c0 .72-15.2 22.82-15.2 22.82z"/><path fill="#def8ff" d="M195.84 134.16l-17.1-21.14L166.86 128l-5.34 5.25.1 3.76 5.72-4.5-2.62 16.16 9.5-14.26 1.2 20.2 7.6-20.9 10.45 13.77-1.43-13.78 5.2 2.47-1.4-2z"/><path fill="#b7dfe5" d="M254.4 150.1L240 115.62l-6.9-16.54-7.67 21.65s-10.64 34.07-10.83 34.66c-.2.6-15.76 56.72-15.76 56.72l6.9 1.18 29.53-.2 39.38-.78-7.88-24.22z"/><path fill="#a2d8dd" d="M215.2 189.08l-6.3 24.2 9.13-.06 3.28-28.67 7.1-43.12 1.77-12.4-6.9 25.6-8.06 34.45zM248.1 176.28l-7.5-38.4-2.55-14.57-.98 3.16 1.18 20.3.98 47.84.2 13 .5 5.4 14.42-.28-3.5-14.97-2.76-21.47z"/><path fill="#def8ff" d="M233.13 99.1l-7.68 21.65s-1.42 4.53-3.22 10.32c2.26-3.14 5-7.17 5-7.17l3.53 10.44 2.76-13.6 5.52 13.8.98-14.18 3.28 3.13-3.28-7.87z"/><path fill="#b7dfe5" d="M124.98 147.45l-34.9-56.27s-5.08 7.4-5.5 8.04-26.02 40.2-26.02 40.2l-27.92 43.36-18.2 28.56 3.4 1.27H57.5l104.08-1.68-12.27-21.16z"/><path fill="#a2d8dd" d="M67.66 145.97l-9.3 14.8s-19.9 36.4-20.1 37.03c-.18.5-7.57 10.9-10.37 14.8h19.07l4.82-10.57 4.86-12.27 6.55-18.4 7.84-22.85 8.25-21.35 3.16-8.47-6.13 10.8zM83.94 159.72l-6.76 39.77-1.5 12.8 10.68-.16.55-18.36 1.7-37.65.63-24.97-1.27 6.56-4.02 22zM113.56 163.1l-13.54-31.94 5.92 23.06 9.53 36.8 5.27 20.56 12.76-.2-3.44-11.04-16.5-37.23z"/><path fill="#def8ff" d="M90.08 91.18s-5.08 7.4-5.5 8.04c-.17.26-4.6 7.1-9.74 15.04l7.2-2.13-1.9 11.42 5.3-3.6L89 134.13 93.46 117l5.3 8.24.84-11 7.2 6.77-.5-3.68z"/><path fill="#b7dfe5" d="M320.33 150.1l-14.38-34.47-6.9-16.54-7.67 21.65s-10.63 34.07-10.83 34.66-15.75 56.72-15.75 56.72l6.9 1.18 29.53-.2 39.38-.78-7.87-24.22z"/><path fill="#a2d8dd" d="M281.14 189.08l-6.3 24.2 9.12-.06 3.3-28.67 7.07-43.12 1.77-12.4-6.9 25.6-8.06 34.45zM314.03 176.28l-7.5-38.4L304 123.3l-.98 3.16 1.18 20.3 1 47.84.18 13 .5 5.4 14.43-.28-3.52-14.97-2.75-21.47z"/><path fill="#def8ff" d="M299.06 99.1l-7.68 21.65s-1.42 4.53-3.22 10.32c2.26-3.14 5-7.17 5-7.17l3.54 10.44 2.75-13.6 5.52 13.8.98-14.18 3.28 3.13-3.28-7.87z"/><path fill="#b7dfe5" d="M374.37 136.8l-17.04-40.84-8.17-19.6-9.1 25.66s-12.6 40.4-12.84 41.1-18.68 67.22-18.68 67.22l8.17 1.4 35.03-.23 46.7-.93-9.35-28.7z"/><path fill="#a2d8dd" d="M327.92 183.03l-7.5 28.7 10.85-.1 3.88-33.97 8.4-51.12 2.1-14.7-8.16 30.34-9.58 40.85zM366.9 167.85l-8.87-45.52-3.03-17.27-1.17 3.73 1.4 24.04 1.17 56.72.23 15.4.6 6.44 17.1-.34-4.16-17.76-3.27-25.45z"/><path fill="#def8ff" d="M349.16 76.35l-9.1 25.67s-1.68 5.38-3.82 12.24c2.68-3.73 5.92-8.5 5.92-8.5l4.2 12.37 3.27-16.1 6.54 16.33 1.16-16.8 3.9 3.7-3.9-9.3z"/><path fill="#b7dfe5" d="M770.07 185.63l-13.4-18.6-15.35-25.04-14.18-19.73-9.84 13.95-13.4 14.85-26 37.43-19.88 25.92 33.48.67 96.7-.9-2.77-3.54-15.36-25.03z"/><path fill="#a2d8dd" d="M718.28 196.26l-3.88 18.62 8.5-.08 1.3-13.67.38-27.7.6-23.25-3.35 17.72-3.55 28.36zM743.88 171.45l-5.9-21.05s1.37 15.07 1.57 15.73 1.57 19.72 1.57 19.72l3.66 28.75 9.43-.1-2.64-9.38zM693.86 190.94l-12.24 23.95 8.6.16 6.4-14.37 7.3-17.73 8.06-17.5 5.7-17.06s-11.2 20.6-11.2 21.27-12.62 21.27-12.62 21.27z"/><path fill="#def8ff" d="M741.32 142l-14.18-19.73-9.84 13.95-4.43 4.9.1 3.52 4.72-4.2-2.18 15.06 7.88-13.3 1 18.84 6.3-19.5 8.65 12.85-1.18-12.86 4.3 2.32-1.15-1.88z"/><path fill="#dff0f2" d="M770.07 185.63l-13.4-18.6-6-9.82 2.07 10.6-2.07 16.6-13.3 13.3-20.96 4-26.28 3.97-19.8 2-7-.16-5.3 6.92 33.48.67 96.7-.9-2.77-3.54-15.36-25.03z" style="mix-blend-mode:multiply"/><path fill="#b7dfe5" d="M477.33 150.1l-14.38-34.47-6.9-16.54-7.67 21.65s-10.63 34.07-10.83 34.66-15.75 56.72-15.75 56.72l6.9 1.18 29.53-.2 39.38-.78-7.87-24.22z"/><path fill="#a2d8dd" d="M438.14 189.08l-6.3 24.2 9.12-.06 3.3-28.67 7.07-43.12 1.77-12.4-6.9 25.6-8.06 34.45zM471.03 176.28l-7.5-38.4L461 123.3l-.98 3.16 1.18 20.3 1 47.84.18 13 .5 5.4 14.43-.28-3.52-14.97-2.75-21.47z"/><path fill="#def8ff" d="M456.06 99.1l-7.68 21.65s-1.42 4.53-3.22 10.32c2.26-3.14 5-7.17 5-7.17l3.54 10.44 2.75-13.6 5.52 13.8.98-14.18 3.28 3.13-3.28-7.87z"/><path fill="#b7dfe5" d="M635.07 175.62l-13.4-18.6L606.33 132l-14.18-19.73-9.84 13.95-13.4 14.85-26 37.43-19.88 25.92 33.48.67 96.7-.9-2.77-3.54-15.36-25.04z"/><path fill="#a2d8dd" d="M583.28 186.26l-3.88 18.62 8.5-.08 1.3-13.67.38-27.7.6-23.25-3.35 17.72-3.55 28.36zM608.88 161.45l-5.9-21.05s1.37 15.07 1.57 15.73 1.57 19.72 1.57 19.72l3.66 28.75 9.43-.1-2.64-9.38zM558.86 180.94l-12.24 23.95 8.6.16 6.4-14.37 7.3-17.73 8.06-17.5 5.7-17.06s-11.2 20.6-11.2 21.27-12.62 21.27-12.62 21.27z"/><path fill="#def8ff" d="M606.32 132l-14.18-19.73-9.84 13.95-4.43 4.9.1 3.52 4.72-4.2-2.18 15.06 7.88-13.3 1 18.84 6.3-19.5 8.65 12.85-1.18-12.86 4.3 2.32-1.15-1.88z"/><path fill="#dff0f2" d="M635.07 175.62l-13.4-18.6-6-9.8 2.07 10.57-2.07 16.6-13.3 13.3-20.96 4-26.28 3.97-19.8 2-7-.16-5.3 6.92 33.48.67 96.7-.9-2.77-3.54-15.36-25.04z" style="mix-blend-mode:multiply"/><path fill="#b7dfe5" d="M555.53 180.97L539.37 161l-18.52-26.84-17.1-21.14-11.9 14.97-16.14 15.9-31.35 40.15-24 27.8 40.4.7 116.64-.94-3.34-3.8-18.53-26.84z"/><path fill="#a2d8dd" d="M493.05 192.37l-4.7 19.97 10.27-.1 1.56-14.65.47-29.7.72-24.95-4.04 19-4.28 30.42zM523.93 165.76l-7.12-22.57s1.67 16.14 1.9 16.86 1.9 21.14 1.9 21.14l4.4 30.84 11.4-.1-3.2-10.07zM463.6 186.67l-14.78 25.68 10.4.18 7.7-15.4 8.8-19 9.73-18.78 6.9-18.3s-13.55 22.1-13.55 22.8c0 .72-15.2 22.82-15.2 22.82z"/><path fill="#def8ff" d="M520.85 134.16l-17.1-21.14-11.9 14.97-5.33 5.25.12 3.76 5.7-4.5-2.6 16.16 9.5-14.26 1.17 20.2 7.62-20.9 10.45 13.77-1.43-13.78 5.2 2.47-1.4-2z"/><path fill="#b7dfe5" d="M449.98 147.45l-34.9-56.27s-5.08 7.4-5.5 8.04-26.02 40.2-26.02 40.2l-27.92 43.36-18.2 28.56 3.4 1.27h41.66l104.08-1.68-12.27-21.16z"/><path fill="#a2d8dd" d="M392.66 145.97l-9.3 14.8s-19.9 36.4-20.1 37.03c-.18.5-7.57 10.9-10.37 14.8h19.07l4.82-10.57 4.86-12.27 6.55-18.4 7.84-22.85 8.25-21.35 3.16-8.47-6.13 10.8zM408.94 159.72l-6.76 39.77-1.5 12.8 10.68-.16.55-18.36 1.7-37.65.63-24.97-1.27 6.56-4.02 22zM438.56 163.1l-13.54-31.94 5.93 23.06 9.5 36.8 5.3 20.56 12.75-.2-3.44-11.04-16.5-37.23z"/><path fill="#def8ff" d="M415.08 91.18s-5.08 7.4-5.5 8.04c-.17.26-4.6 7.1-9.74 15.04l7.2-2.13-1.9 11.42 5.3-3.6 3.58 14.18 4.44-17.14 5.3 8.24.84-11 7.2 6.77-.5-3.68z"/><path fill="#b7dfe5" d="M582.1 147.45l-29.97-56.27s-4.36 7.4-4.72 8.04-22.34 40.2-22.34 40.2l-24 43.36-15.62 28.56 2.9 1.27h35.8l89.4-1.68-10.53-21.16z"/><path fill="#a2d8dd" d="M532.87 145.97l-8 14.8s-17.08 36.4-17.26 37.03c-.14.5-6.5 10.9-8.9 14.8h16.4l4.14-10.57 4.18-12.27 5.63-18.4 6.73-22.85 7.08-21.35 2.73-8.47-5.28 10.8zM546.86 159.72l-5.8 39.77-1.28 12.8 9.16-.16.47-18.36 1.46-37.65.54-24.97-1.08 6.56-3.46 22zM572.3 163.1l-11.63-31.94 5.1 23.06 8.17 36.8 4.53 20.56 10.96-.2-2.95-11.04-14.18-37.23z"/><path fill="#def8ff" d="M552.13 91.18s-4.36 7.4-4.72 8.04c-.14.26-3.94 7.1-8.36 15.04l6.2-2.13-1.65 11.42 4.53-3.6 3.1 14.18 3.8-17.14 4.55 8.24.73-11 6.2 6.77-.44-3.68z"/><path fill="#b7dfe5" d="M645.33 150.1l-14.38-34.47-6.9-16.54-7.67 21.65s-10.63 34.07-10.83 34.66-15.75 56.72-15.75 56.72l6.9 1.18 29.53-.2 39.38-.78-7.87-24.22z"/><path fill="#a2d8dd" d="M606.14 189.08l-6.3 24.2 9.12-.06 3.28-28.67 7.1-43.12 1.76-12.4-6.9 25.6-8.06 34.45zM639.03 176.28l-7.5-38.4L629 123.3l-.98 3.16 1.18 20.3 1 47.84.18 13 .5 5.4 14.43-.28-3.52-14.97-2.75-21.47z"/><path fill="#def8ff" d="M624.06 99.1l-7.68 21.65s-1.42 4.53-3.22 10.32c2.26-3.14 5-7.17 5-7.17l3.54 10.44 2.75-13.6 5.52 13.8.98-14.18 3.28 3.13-3.28-7.87z"/><path fill="#b7dfe5" d="M699.37 136.8l-17.04-40.84-8.17-19.6-9.1 25.66s-12.6 40.4-12.84 41.1-18.68 67.22-18.68 67.22l8.17 1.4 35.03-.23 46.7-.93-9.35-28.7z"/><path fill="#a2d8dd" d="M652.92 183.03l-7.5 28.7 10.85-.1 3.88-33.97 8.4-51.12 2.1-14.7-8.16 30.34-9.58 40.85zM691.9 167.85l-8.87-45.52-3.03-17.27-1.17 3.73 1.4 24.04 1.17 56.72.23 15.4.6 6.44 17.1-.34-4.16-17.76-3.27-25.45z"/><path fill="#def8ff" d="M674.16 76.35l-9.1 25.67s-1.68 5.38-3.82 12.24c2.68-3.73 5.92-8.5 5.92-8.5l4.2 12.37 3.27-16.1 6.54 16.33 1.16-16.8 3.9 3.7-3.9-9.3z"/><path fill="#b5d13f" d="M794.9 216.22l-4.46-4.08-55.33-2.73-70.85-4.68-131.36 1.97-90.94.67-44.5-1.36-5.74 10.9.64 12.26 7 11.58L386 254.36l9.54 14.98h31.8l71.22 6.8 43.24 4.1 6.36 8.17 79.5 2.73 48.3-12.94 3.83-6.82 73.76 5.45 40.7-12.94v-19.76L782.8 227.8s10.82-9.53 12.1-11.58z"/><path fill="#d7e0a4" d="M771.36 265.38l-24.16 7.3-36.25-5.07-32.43-.95-5.72 8.27-41.65 8.58-47.38 1.28-30.52-2.55-3.18-2.54-2.86-3.1-6.2-2.64-7.15-1.9-25.75.63-62.96-4.78-34.97-1.9-15.9-3.18-6.45-5.62 7.72 12.12h31.8l71.22 6.8 43.24 4.1 6.36 8.17 79.5 2.73 48.3-12.94 3.83-6.82 73.76 5.45 40.7-12.94v-7.33l-3.82 2.13-19.08 6.68z" style="mix-blend-mode:multiply"/><path fill="#93b723" d="M792.02 185.54l-5.83-1.02 5.6-4.6.44-4.23-1.97-3.87-3-1.1-5.75 1.68 1.3-3.42-.72-4.37-3.86-2.77-4.6.95-3.64 3-1.32 4.95.08 4.6 1.24 2.84-6.35 1.24-4.16 5.63-.6 7.3 2.93 3.5 6.34 2.33-5.17 6.7-.37 5.84 2.55 6.13 4.1 2.4 4.87.74 6.93-3.2 4.96 4 3.5-1.1 3.07-3.86-.5-6.27-5.33-5.32 8.6-4.22 1.9-5.47-1.3-5.4-3.95-3.56z"/><path fill="#d7e0a4" d="M792.02 185.54l-5.83-1.02 5.6-4.6.44-4.23-1.97-3.87-3-1.1-5.75 1.68 1.3-3.42-.72-4.37-3.86-2.77-1.82.38 2.55 1.38 1.82 3.2-.15 3.3-1.1 3-1.17 1.74 7.96.95.94 2.4-.36 2.04-1.53 2.35-2.2 1.02 3.5 2.04 4.45 3.07.22 3.36-.6 4.9-1.08 3.05-2.7 1.83-2.5.88-1.74.3 3.36 5.1 1.82 3.86-.58 2.7a8.62 8.62 0 0 1-1.46 1.24 29.18 29.18 0 0 1-3-1.53 30.5 30.5 0 0 1-1.67-2.55l-2.7 1.38-3.5 2.55a19.3 19.3 0 0 1-2.92 1.03 16.07 16.07 0 0 1-3.12-1.1c-.22-.3-2.48-2.33-2.85-2.77a20.27 20.27 0 0 1-1.6-3.36c-.15-.5-.66-3.72-.66-3.72l.48-2.7-1.35 1.75-.37 5.83 2.55 6.13 4.1 2.4 4.87.74 6.93-3.2 4.96 4 3.5-1.1 3.07-3.86-.5-6.26-5.33-5.33 8.6-4.22 1.9-5.47-1.3-5.4zM781.52 185.83l.3 1.4 1.08.5 1.47-.8.22-1.54-1.84-.8-1.24 1.23zM781.67 180.72l.73 1.17.95.14.58-1.24-1.24-.88-1.03.8zM771.9 168.98l.8 1.53 1.16-.06 1.02-1.97-1.6-1.1-1.4 1.6zM766.8 205.38a12.74 12.74 0 0 0 1.16 2.48c.2 0 1.67 0 1.74-.37.08-.37.73-2.85.73-2.85l-1.82-.95zM765.04 189.04s.43 1.02.73.87.87-.2.94-.42c.1-.22.3-1.75.3-1.75l-1.6.22zM763.3 187.14l.86.6 1.02-.67v-1.38l-1.02.13-.87 1.3zM780 181.6l-.6.88.3 1.3 1.24.44.58-.8-.3-1.16-1.23-.66zM771.16 204.87l.22 1.46.95.3.66-.96-.3-1.46-1.54.67z" style="mix-blend-mode:multiply"/><path fill="#8c5c23" d="M777.02 179.66l-.04 1.6 3.3-2.77 4.04-3.47-3.65 1.95-3.65 2.68zM783.15 196.24l-5.98 4.6-.2 2.16 1.13-1.17 3.83-3.36 3.9-3.5 3.8-3.35-2.2 1.55-4.28 3.07z"/><path fill="#a57132" d="M771.1 185.4l-3.6-2.05 1.9 1.65 4.22 3.12 3.16 2.18.1-2.1-1.75-.52-4.04-2.3zM777.65 190.8l-.38-11.97-.4-7.7-.28 9.25-.4 16.93-.6 18.48-.28 14.5-.3 5.15-.18 2.82 3.9-.1-1.1-26.16v-21.2z"/><path fill="#8c5c23" d="M777.66 190.8l-.4-11.97-.16-3.22c-.05 1.47-.1 2.84-.14 3.7-.02.6-.03.95-.03 1 0 .2.07 6.33.07 6.33l-.07 11.38-.3 13.5.22 16.27s-.1 7.25-.16 10.43l2.03-.05-1.07-26.16z"/><path fill="#b5d13f" d="M408.9 218.22l-4.46-4.08-55.33-2.73-70.85-4.68-131.36 1.97-90.94.67-41.5-1.36-8.74 10.9.64 12.26 7 11.58L0 256.36l9.54 14.98h31.8l71.22 6.8 43.24 4.1 6.36 8.17 79.5 2.73 48.3-12.94 3.83-6.82 73.76 5.45 40.7-12.94v-19.76L396.8 229.8s10.82-9.53 12.1-11.58z"/><path fill="#75aa31" d="M352 230.63l-8.2-9.58 4.1-.4 3.13-.2-3.32-5.66-7.8-15.84-3.53-6.06 5.28-.6 2.93-.38-3.32-5.28-4.1-6.84-5.1-7.82 3.13-.98 1.95-.6-3.7-4.68-6.86-8.8-7.24 10.36-2.54 5.28 4.5.78-.6 2.16-10.55 13.1 3.32.78h4.1l-8.2 12.9-9 11.34 2.73.98 4.3-.6-8.2 11.94-6.66 10.94-1.56 3.72 68.05.78-.78-3.32-6.26-7.43z"/><path fill="#709e2d" d="M331.48 185.47l1.76 4.2 1.37-.6-2.24-4.1-.88.5zM334.3 184.98l1.1 2.74 1.06-.2-1.75-2.84-.38.3zM316.82 185.37l1.47.68 2.04-3.32-.3-.78-3.22 3.42zM319.65 187.32l1.18.4.58-2.94-.77-.68-.98 3.22zM326.2 184.6l1.27-.1v-3.53l-.78.1-.5 3.52zM314.28 211.96l1.66.1 1.56-3.82-.68-1.07-2.54 4.8zM318.68 213.52l.88.6 1.46-4.02-.68-.78-1.66 4.2zM326.1 212.05l.98.3.6-3.52-.9-.5-.68 3.72zM337.05 210.3l.98 3.9 1.17-.68-1.36-3.62-.8.4zM323.17 204.63l1.27.4.7-5.2-.9.3-1.07 4.5zM326.2 198.27l.3 3.52 1.36-.3-.97-4-.7.77zM336.07 201.9l.1 2.92.98-.4-.2-2.53h-.88zM308.9 208.73l1.37.7.88-4.02-.88-.2-1.37 3.53zM319.56 200.32l.97.3.3-3.03h-.7l-.57 2.72zM321.22 236.5l1.76.1.97-4.7-1.56-.7-1.18 5.3zM326.3 228.18l.2 3.23 1.07-.48-.4-3.03-.87.28zM317.8 226.72l1.17.68 1.08-5.08-.7-.1-1.55 4.5zM337.15 230.63l1.86 3.9 1-.68-2.26-4-.6.78zM305.2 232.3l1.75.77 1.27-4.8-.98.1-2.06 3.92zM336.86 221.63l.58 2.94 1.18-.98-.78-2.85-.98.88zM325.03 171.1l1.27.2.6-2.84-.7-.4-1.17 3.04z"/><path fill="#d8efaf" d="M352 230.63l-8.2-9.58 4.1-.4 3.13-.2-3.32-5.66-7.8-15.84-3.53-6.06 5.28-.6 2.93-.38-3.32-5.28-4.1-6.84-5.1-7.82 3.13-.98 1.95-.6-3.7-4.68-4.66-5.97 2.78 5.97-2.15 4.6-4.1 2.83 4.5 3.23L334.7 188l.7 3.43-9.5.68-3.6-.38 2.14 1.76 6.85 1.18 3.7 20.13.1 5.46-9.3.8-13.67-2.26 7.52 2.93 8.6 1.57 2.45 11.82 1 5.95 27.35.3-.78-3.3-6.26-7.44z" style="mix-blend-mode:multiply"/><path fill="#2eaa81" d="M219.55 236.02l2.62-.92-1.23-4.32-8.34-20.37 3.55-.14 2.16-.3-4-8.65-8.8-14.96 2.48-.77-2-4.47-4.48-12.04 2.77-1.08-1.7-3.4-6.94-14.34 2.63-.62-2.47-3.7-6.03-9.25-3.7 5.55-2.78 5.86-2.63 4.94 3.55.3 1.23.32-5.24 7.86-2.46 3.86 2.3.3 2.8.47-11.12 20.2-4.63 8.2-.47 1.22 5.25-.3 2.62.6-4.63 8.04-4.94 8-4.94 6.5v.9l8.17-.14-2.93 6.63-4 8.32-7.72 13.12 70.66.92-2.16-4.47-2.47-7.88z"/><path fill="#259e72" d="M186.57 151.36l1.27.58.58-3.47-.7-.23-1.15 3.12zM189.46 147.54l-.1 3.24 1.38.58-.12-3.36-1.16-.46zM193.75 154.14l-.12 4.28 1.5-.12-.7-4.4-.7.24zM186 164.32l1.15.46.8-4.63-.92.47-1.04 3.7zM189 162.24l-.23 3.93 1.4.23-.13-3.82-1.04-.34zM194.2 161.43l.47 3.35 1.04-.23-.45-2.43-1.04-.7zM196.75 159.46c.12.35.93 2.78.93 2.78l1.04-.93-1.16-2.42zM182.98 179.94l1.5.12.82-3.7-.58-.35-1.74 3.94zM181.48 175.78l1.16.1.57-3.35-.8.24-.92 3zM190.4 175.43l.22 6 2.08-.45-1.15-5.55h-1.16zM194.9 172.77l.7 2.77 1.38-.8-1.15-2.2-.93.23zM200 181.9l.8 4.17.93-.46-.93-4.16-.8.47zM181.48 193.36l1.5.7.7-5.44-.8-.12-1.4 4.86zM184.95 187.23v3.24l1.5-.23-.46-3.36-1.05.35zM197.9 199.5l.36 6.47 1.73-.57-1.05-6.37-1.04.47zM200 196.83l1.27 5.1 1.62.1-1.75-5.54-1.16.33zM178 209.68l1.5.8 1.4-4.97-.8-1.38-2.1 5.56zM182.3 202.62l-.24 4.16 1.15-.1-.22-4.3-.7.24zM187.26 212.92l1.4.23.34-5.32-1.04-.24-.7 5.32zM200.8 226.8l.58 5.1 1.16-.47-.93-4.63h-.8zM202.9 223.56l1.26 4.28 1.74-.8-1.63-4.75-1.38 1.26zM199.4 218.82l.13 5.1h1.4l-.13-5.22-1.4.12zM175.7 233.86l2.42.1 1.28-7.16-1.4-.23-2.3 7.3zM180.67 229.12h1.4v-4.52l-1.17.35-.23 4.17zM172.22 220.67l1.62-.1.8-5.57-1.14.12-1.28 5.55zM167.6 241.15s1.84.35 1.84 0 1.05-5.1 1.05-5.1l-1.52.47zM190.4 241.38l1.38.46v-6.47l-1.04.34-.35 5.68zM211.22 235.37l.46 3.7 1.16-.93-.35-3.12-1.28.34z"/><path fill="#9ce2d6" d="M219.55 236.02l2.62-.92-1.23-4.32-8.34-20.37 3.55-.14 2.16-.3-4-8.65-8.8-14.96 2.48-.77-2-4.47-4.48-12.04 2.77-1.08-1.7-3.4-6.94-14.34 2.63-.62-2.47-3.7-4.5-6.93 1.17 4.92.47 5.55-4.63.85-2 .46 3.24.16 3.78.07 1 11.8.4 4.5-2.17.07-4.24-.7-1.6-.07 2.7 1.46 3.38.77 1.54 9.64.78 5.48v2l-3.94.78-3.7.23-2.24-.16 1.7.7 5.1.38 1.92 3.17 5.24 12.65 1.16 4.63-.08 1.3-4 .63-4.4.07-4.94-.46 4.4 1.3 4.62 1.25h2.63l.84 3.7.8 14.04v4.32l-.1 1.23-3.3.32-3.25.23-8.95-.3-4.47-.93 3.86 2.24 4.92.84 3.94 2.47 1.42 7.4 29.9.4-2.16-4.48-2.47-7.88z" style="mix-blend-mode:multiply"/><path fill="#bbf2ff" d="M228.2 74.78l-6.76-1.36-5.02 2.9-3.3-16.24-5.8-6-8.1-1.54-5.43 2.7-7.35 15.86-7.74-7.92-9.07-.97-6.96 5.03-2.13 6.77 2.13 8.5-9.1-2.7-6.18 2.52-5.04 5.02L141 94.1l22.83.2 29.96.4 21.65-.6 12.95-.18 10.64-.78-2.7-9.47-8.13-8.9z"/><path fill="#89e9f4" d="M199.8 71.78l3.18 3.2s2.6 0 2.9-.88 2.32-4.93 2.32-4.93l-4.64-1.45zM176.88 71.2l-.87 3.2 2.04.57 1.74-1.16-.58-2.9-2.32.3zM221.83 87.73L210.8 88.9l-3.18-5.52-9.28-4.35-6.96 2.9-4.35 5.8-4.35-5.8-7.25-2.32-6.1 4.36-2.3 7.83-5.8-2.33-7.55-1.16-8.42 2.62-1.85 3.2 20.43.2 29.96.37 21.65-.6 12.95-.18 1.04-.08-1.8-4.08-5.8-2.03z"/><path fill="#bbf2ff" d="M123.36 47.68l-7.15-4.26-9.86-.38-7.92 4.06-8.12-13.73-7.16-3.48L76 32.6l-4.46 8.5-1.16 8.32-5.02-5.22-3.68-.78-5.02 3.48-5.8-10.82-6.2-2.52-7.34 2.32-4.83 5.22-1.56 10.25-5.4-1.93-5.62 2.7-2.32 4.84-1.36 6.57 16.83-.4 21.84.2h31.34l23.2-.77 16.24.2 4.06-.58-.97-7.93-5.4-6.57z"/><path fill="#89e9f4" d="M105.38 55.02l-5.8-3.1-6.2.6-3.85 5.8-12.38.96-8.12-.2-2.5-3.48-5.43-1.16-4.25 5.42-1.36-4.06-6.4-8.32-6.37-1.74-5.8 3.68-2.5 10.82-3.1-3.28-5.8-.58-3.48 2.9-.72 4.13 11.74-.26 21.84.2h31.34l22.12-.74-.08-3.7-2.9-3.88zM113.1 48.26l-2.1 2.7 2.1 2.32s3.7.58 3.5 0a30.04 30.04 0 0 1 .2-4.44zM83.53 40.52l-3.1 4.84 2.52 2.9s1.93.38 2.7-.4a29.03 29.03 0 0 0 2.52-4.24l-2.13-2.9zM76.96 37.23v3.1l1.93 1.93 1.54-2.13-1.36-3.67-2.12.77z"/><path fill="#8c5c23" d="M215.65 177.7l-.87 20.9-.88 18.92-.65 12.47.1 7.1-.32 5.9v1.2l3.17-.43-.33-14 .33-24.06.22-23.94.1-12.47-.43-3.5-.45 11.9zM224.8 179.68l-2.28 1.9-3.7 2.2-2.78.9-.17 1.15 1.64.16 2.3-1.24 2.8-1.97 2.7-1.97 1.56-2.96.5-3.85-.66 2.38-1.9 3.28zM220.46 205.1l-2.38 2.7-2.78 1.98-.17 2.46 2.38-1.56 1.24-1.47 1.97-2.95 1.73-3.1-.82-.6-1.14 2.55zM220.96 170.74l-2.14 2.46-2.7.82v1.4l2.38-.58 1.96-1.3 1.48-2.88.74-2.14-.5-.08-1.22 2.3zM211.28 175.5l-2.3-1.48-1.9-2.13-.97-2.15-.56-.08.57 2.3 1.9 2.38 2.3 2.05 2.95.9 2.78.33.1-1.64h-2.4l-2.45-.5zM211.52 192.3c-.24-.15-2.62-1.14-2.62-1.14l-2.8-3.12-2.3-4.83-.48-.24.5 1.9 1.47 3.68 2.12 3.2 3.12 1.8 5.08.82v-1.64l-1.72.16a19.76 19.76 0 0 1-2.38-.57z"/><path fill="#3caa47" d="M231.62 169.26l-3.53-.65-4.03.66-4.18 5.33-.5 4.5 2.7 6.32 6.8 2.22 4.44-.66 3.78-3.28 1.63-5.9-1.8-6.16-5.33-2.38z"/><path fill="#349b3b" d="M231.62 169.26l-1.12-.2 1.94 1.5 3.28 2.97-.33 6.56-3.86 3.68-6 .08-4.17-2.8-1.66-4.78-.3 2.82 2.7 6.32 6.8 2.22 4.44-.66 3.78-3.28 1.63-5.9-1.8-6.16-5.33-2.38z"/><path fill="#3caa47" d="M225.06 162.7l-3.78.98-2.3 2.7-.57 3.62 1.98 2.54 3.7 1.3a18.33 18.33 0 0 0 3.1-1.13c.1-.24 2.06-3.03 2.06-3.03l.16-3.94-1.96-2.46z"/><path fill="#349b3b" d="M226.43 163.03l1.1.73.64 1.97-1.3 4.27-2.63.74-3.53.08-1.97-2.8-.32 1.98 1.98 2.54 3.7 1.3a18.33 18.33 0 0 0 3.1-1.13c.1-.24 2.06-3.03 2.06-3.03l.16-3.94-1.97-2.46z"/><path fill="#3caa47" d="M218.4 154.66l-4.58.9-3.44 3.2-.33 5.17 1.64 3.2 4.5 1.97 4.02-.58 2.38-2.7 1.23-5.58-2.22-4.1-3.2-1.48z"/><path fill="#349b3b" d="M218.4 154.66l-1.25.25 2.9 1.07 2.05 2.46-.32 3.86-2.7 3.27-3.46.16s-3.85-1.3-4.1-1.4a16.32 16.32 0 0 1-1.33-2.62l-.15 2.23 1.64 3.2 4.5 1.97 4.02-.58 2.38-2.7 1.23-5.58-2.22-4.1z"/><path fill="#3caa47" d="M212.34 161.63l-3.1-.65-5.76 1.4-2.95 3.35-.9 4.43 1.23 4.76 3.77 3.86 4.6 1.23 4.02-.65 3.85-4.76.9-4.35-2.05-6.57-3.6-2.05z"/><path fill="#349b3b" d="M212.34 161.63l-3.1-.65-5.72 1.38 3-.32 2.2.4 2.97 1.24 2.45 3.28.57 3.28-1.4 4.52-3.76 2.7-4.02-.74-3.94-3.36-1.73-4.36-.24 1.16 1.23 4.76 3.77 3.86 4.6 1.23 4.02-.65 3.85-4.76.9-4.35-2.05-6.57-3.6-2.05z"/><path fill="#3caa47" d="M205.86 175.5l-4.43-1.32-4.02 1.56-2.77 2.87.4 6 2.55 3.03 4.35 1.07 3.28-.5 2.96-2.53 1-4.2-.75-4.1-2.54-1.88z"/><path fill="#349b3b" d="M206.66 176.1l.68 2.92-.08 3.53-2.22 2.95a13.9 13.9 0 0 1-2.7 1.3 30.76 30.76 0 0 1-3.94-.23 25.45 25.45 0 0 1-2.46-1.97l-.98-1.06.08 1.06 2.54 3.04 4.35 1.06 3.28-.5 2.96-2.53.98-4.2-.73-4.1z"/><path fill="#bbf2ff" d="M246.33 22.77L255.6 16l8.13 1.16 6.2 7.54 5.2 17.8 6.2-6.78 5.6-.38 3.87 1.93 3.48 3.1 6-7.94 5.8-.58 5.02 2.13 8.12-13.34 8.32-1.16 9.28 1.93 5.6 6 2.13 11.6.58 3.3 8.12-3.87 9.28.97 6.97 4.44 3.1 4.25 1.73 4.05-31.13-.77-37.7.4-37.5-.2h-24.76l.58-18.18 2.5-10.63z"/><path fill="#89e9f4" d="M331.4 33.8l-2.32 2.9-3.28-.2-1.16-4.45 5.03-1.55 1.73 3.3zM260.83 21.8l2.9 1.93-.58 4.06-1.74 2.3-3.85-.18-1.74-3.1 1.36-5.2 3.67.18zM353.25 45.4l9.1 1.54 2.48 4.98-21.63-.54h-.97l2.9-3.48 8.12-2.5zM256.4 33.02l7.9 2.3 5.62 13.55 14.3-.58 3.1-3.3 2.32-1.16 4.84.4 5.4 4.63 2.72-3.48 3.28-3.88 5.42-1.74 11.2 1.55 4.46 5.4 1.23 4.8-22.7.24-37.5-.2h-20.03l3-12.18L256.4 33z"/><path fill="#2eaa81" d="M95.1 237.8l-6.13-12.13 3.24-.93-1.26-2.43-4.74-12.37 2.3-1.16-1.72-3.24-5.56-11.45-1.4-2.78 2.9-.58-1.5-3.82-5.55-12.72-2.55-2.44-2.2 6.83-3.23 7.87-1.3 3.6 2.44.9-4.05 6.84-3.48 5.55 4.17 1.04-6.03 15.4-1.74 3.7 2.32.7 3.12.57-6.25 12.6-3.12 5.68-.93 2.43 45.13 1.5-.46-2.54-2.43-6.6z"/><path fill="#9ce2d6" d="M95.1 237.8L89 225.68l3.23-.93-1.26-2.43-4.74-12.37 2.3-1.16-1.72-3.24-5.56-11.45-1.4-2.78 2.9-.58-1.5-3.82-5.55-12.72-1.3-1.25 1.4 6.1.6 5.67.46 4.98-4.17.92 2.66.93 2.08 6.25 1.28 8.68V209l-3.13 1.04-5.2-.7 1.38 1.4 4.86 1.16 2.9 4.62 1.14 5.56.23 3.35-5.1.35-4.04-.58-4.28-.1 2.66 1.84 4.3.8 3.7.7 1.5 9.72s-.03 4.4-.02 8.18l18.42.62-.46-2.55z" style="mix-blend-mode:multiply"/><path fill="#2eaa81" d="M72.25 239.46l2.62-.93-1.23-4.32-8.34-20.35 3.55-.16 2.16-.32-4-8.63-8.8-14.97 2.47-.77-2-4.47-4.48-12.03 2.77-1.08-1.7-3.4-6.94-14.34 2.63-.62-2.47-3.7-6.03-9.26-3.7 5.55-2.78 5.87-2.63 4.94 3.55.3 1.23.3-5.24 7.88-2.46 3.86 2.3.3 2.8.47-11.12 20.2-4.63 8.2-.47 1.22 5.24-.32 2.63.62-4.63 8.02-4.94 8.02-4.94 6.48v.93l8.17-.16-2.93 6.63-4 8.33-7.73 13.12 70.67.92-2.16-4.47-2.45-7.87z"/><path fill="#259e72" d="M39.27 154.8l1.27.57.58-3.47-.7-.23-1.15 3.13zM42.16 150.98l-.1 3.24 1.37.58-.1-3.36-1.17-.46zM46.44 157.57l-.1 4.28 1.5-.1-.7-4.4-.7.22zM38.7 167.76l1.15.46.8-4.63-.92.45-1.04 3.7zM41.7 165.67l-.23 3.94 1.4.24-.13-3.82-1.04-.35zM46.9 164.86l.47 3.36 1.04-.23-.45-2.44-1.04-.7zM49.45 162.9c.12.34.93 2.77.93 2.77l1.04-.92-1.16-2.43zM35.68 183.38l1.5.1.82-3.7-.58-.34-1.74 3.94zM34.18 179.2l1.16.13.57-3.36-.8.23-.92 3zM43.1 178.86l.22 6.02 2.08-.46-1.16-5.56H43.1zM47.6 176.2l.7 2.78 1.38-.8-1.15-2.2-.93.22zM52.7 185.34l.8 4.17.93-.45-.93-4.17-.8.46zM34.18 196.8l1.5.7.7-5.44-.8-.12-1.4 4.86zM37.65 190.67v3.24l1.5-.22-.46-3.36-1.05.35zM50.6 202.93l.36 6.48 1.73-.57-1.05-6.36-1.04.46zM52.7 200.27l1.27 5.1 1.62.1-1.75-5.55-1.16.35zM30.7 213.1l1.5.82 1.4-4.97-.8-1.4-2.1 5.56zM35 206.06l-.24 4.16 1.15-.1-.22-4.3-.7.24zM39.96 216.35l1.4.24.34-5.34-1.04-.23-.7 5.32zM53.5 230.24l.58 5.1 1.16-.47-.93-4.63h-.8zM55.6 227l1.26 4.28 1.73-.8-1.63-4.75L55.6 227zM52.1 222.25l.13 5.1h1.4l-.13-5.2-1.4.1zM28.4 237.3l2.42.1 1.27-7.16-1.4-.23-2.3 7.3zM33.37 232.55h1.4v-4.5l-1.17.34-.23 4.15zM24.92 224.1l1.62-.1.8-5.56-1.15.1-1.28 5.57zM20.3 244.6s1.84.33 1.84 0 1.04-5.1 1.04-5.1l-1.5.46zM43.1 244.82l1.38.46v-6.48l-1.05.35-.34 5.67zM63.92 238.8l.46 3.7 1.16-.92-.35-3.13-1.28.35z"/><path fill="#9ce2d6" d="M72.25 239.46l2.62-.93-1.23-4.32-8.34-20.35 3.55-.16 2.16-.32-4-8.63-8.8-14.97 2.47-.77-2-4.47-4.48-12.03 2.77-1.08-1.7-3.4-6.94-14.34 2.63-.62-2.47-3.7-4.52-6.93 1.2 4.92.45 5.56-4.63.85-2 .47 3.24.15 3.78.08 1 11.8.4 4.48-2.17.07-4.24-.7-1.6-.07 2.7 1.47 3.38.77 1.54 9.64.77 5.5v2l-3.94.77-3.7.23-2.24-.16 1.7.7 5.1.38 1.92 3.17 5.24 12.64 1.16 4.62-.08 1.3-4 .63-4.4.07-4.94-.46 4.4 1.32 4.62 1.23h2.63l.84 3.7.78 14.04v4.3l-.07 1.25-3.3.3-3.25.24-8.95-.32-4.47-.92 3.86 2.23 4.92.84 3.94 2.47 1.4 7.4 29.9.4-2.14-4.47-2.47-7.87z" style="mix-blend-mode:multiply"/><path fill="#a57132" d="M89.44 176.3l-6.4-3.95 5.5 4.84 2.87 2.66 2.28 2.07-.1-2.37-4.14-3.26zM86.97 198.2l-7.9-4.93 6.32 5.03 4.73 4.05 3.26 2.37-.1-2.57-6.33-3.94z"/><path fill="#8c5c23" d="M93.68 170.48l.2 2.47 5.92-5.82 4.74-4.34-5.23 3.44-5.62 4.24zM93.98 192.1v2.36l3.16-2.57 5.72-4.74 7-6.42-7.2 4.84-8.68 6.5zM100.6 205.02l-6.23 4.63v3.75l4.54-4.24 6.13-5.82 7.1-7.7-3.35 2.47-8.2 6.92z"/><path fill="#a57132" d="M94.57 187.45l-.4-18.15-.78-12.24-.2 12.43-1 30.38v23.5l-.4 11.44-.4 9.86v1.98l5.74-.2-.8-13.42-1.77-45.6z"/><path fill="#8c5c23" d="M94.57 187.45l-.4-18.15-.25-4.04-.34 3.15.1 10.07-.1 19.24.3 23.5.3 17.27-.08 8.1 3.04-.1-.8-13.43-1.77-45.6z"/><path fill="#75aa31" d="M110.95 185.87l-6.7 3.36-3.17 6.5.7 8.1 4.24 3.75 6.7 1.2 5.83-1.9s3.06-5.9 3.06-6.2 1.4-7.8 1.4-7.8l-4.55-4.44z"/><path fill="#d8efaf" d="M110.95 185.87l-2.1 1.05 2.4.73 5.13 1.87 3.55 5.23s-.4 6.02-.5 6.32c-.1.3-5.22 3.75-5.22 3.75l-7.4-1-4.53-4.23.07-6.46-1.26 2.6.7 8.1 4.24 3.74 6.7 1.2 5.83-1.9s3.06-5.9 3.06-6.2 1.4-7.8 1.4-7.8l-4.55-4.44z" style="mix-blend-mode:multiply"/><path fill="#75aa31" d="M94.67 145.32l-6.6 2.47-3.27 4.13-.2 6.4a42.24 42.24 0 0 0 2.87 3.76c.3.1 3.35 2.36 3.35 2.36l4.05.6 2.56-1.2a51.68 51.68 0 0 0 4.24-3.94c0-.3.8-6.6.8-6.6l-2.97-5.34z"/><path fill="#d8efaf" d="M94.67 145.32l-1.1.4 4.45 4.53.6 4.94-1.3 3.93-2.45 1.2h-5.63l-4.6-3.06-.04 1.07a42.24 42.24 0 0 0 2.87 3.75c.3.1 3.35 2.36 3.35 2.36l4.05.6 2.56-1.2a51.68 51.68 0 0 0 4.24-3.94c0-.3.8-6.6.8-6.6l-2.97-5.34z" style="mix-blend-mode:multiply"/><path fill="#75aa31" d="M106.7 158.84h-4.43l-3.65 2.56-1.3 4.64 1.9 5.72 4.63 3.56 5.13-.7a43.06 43.06 0 0 0 3.75-3.65c0-.3 1.38-6.3 1.38-6.3l-2.36-4.65z"/><path fill="#d8efaf" d="M106.9 170.88l-4.83-1.4-3.26-4.82.93-4.04-1.1.78-1.3 4.64 1.88 5.72 4.65 3.56 5.13-.7a43.06 43.06 0 0 0 3.75-3.65c0-.13.28-1.44.6-2.83l-2.18 1.16z" style="mix-blend-mode:multiply"/><path fill="#75aa31" d="M84.8 162.88l-3.06-1.08-6.6 1.77-3.16 5.04 1.18 6.22s3.06 4.44 3.35 4.44 6.43.6 6.43.6l4.34-2.87 2.27-5.93-1.68-5.62z"/><path fill="#d8efaf" d="M84.8 162.88l-.9-.3 1.9 2.87.98 3.95-1.68 5.42-2.86 1.88H76.5l-2.95-4.34-1.08-4.55-.5.8 1.2 6.22s3.05 4.44 3.34 4.44 6.43.6 6.43.6l4.34-2.87 2.27-5.93-1.68-5.62z" style="mix-blend-mode:multiply"/><path fill="#75aa31" d="M82.43 184.5l-2.56-.7c-.3 0-7.2 1.18-7.2 1.18l-5.04 5.53-.2 7.02 5.04 5.52 7.9 2.17 3.94-4.13 2.87-7-2.17-6.72z"/><path fill="#d8efaf" d="M82.43 184.5l-2.56-.7c-.08 0-.6.08-1.35.2l2.93 2.86 2.17 5.43-1 5.6-3.84 3.07s-4.34-.9-4.64-.9-3.94-1.66-4.24-1.76a30.23 30.23 0 0 1-2.4-3l-.06 2.22 5.03 5.52 7.9 2.17 3.94-4.13 2.87-7-2.17-6.72z" style="mix-blend-mode:multiply"/><path fill="#2eaa81" d="M297.75 234.25l2.4-.85-1.13-3.96-7.63-18.66 3.24-.14 1.98-.28-3.68-7.92-8.05-13.7 2.25-.7-1.84-4.1-4.1-11.03 2.56-.98-1.56-3.1-6.35-13.16 2.4-.56-2.27-3.4-5.5-8.47-3.4 5.08-2.54 5.38-2.4 4.53 3.24.3 1.14.27-4.8 7.2-2.27 3.54 2.12.3 2.54.42-10.16 18.52-4.24 7.48-.43 1.14 4.8-.3 2.4.58-4.23 7.35-4.52 7.34-4.53 5.94v.84l7.5-.14-2.7 6.08-3.67 7.63-7.07 12 64.73.85-2-4.1-2.25-7.2z"/><path fill="#259e72" d="M267.54 156.7l1.17.52.54-3.18-.64-.2-1.06 2.85zM270.2 153.2l-.12 2.96 1.28.53-.1-3.1-1.07-.4zM274.1 159.23l-.1 3.92 1.4-.1-.65-4.03-.64.2zM267 168.56l1.07.42.74-4.23-.84.42-.95 3.4zM269.77 166.65l-.2 3.6 1.26.22-.1-3.5-.96-.32zM274.54 165.9l.42 3.08.95-.2-.4-2.24-.96-.63zM276.87 164.1c.1.33.85 2.55.85 2.55l.95-.85-1.06-2.22zM264.25 182.87l1.38.1.74-3.4-.53-.3-1.6 3.6zM262.88 179.06l1.06.1.53-3.07-.75.2-.85 2.76zM271.04 178.74l.2 5.5 1.92-.42-1.06-5.08h-1.06zM275.17 176.3l.64 2.54 1.28-.74-1.06-2-.85.2zM279.83 184.67l.75 3.82.85-.44-.85-3.8-.75.4zM262.88 195.16l1.37.64.64-4.98-.75-.1-1.27 4.44zM266.06 189.55v2.96l1.38-.2-.43-3.07-.94.32zM277.93 200.78l.32 5.94 1.58-.53-.95-5.84-.95.42zM279.83 198.35L281 203l1.5.12-1.6-5.1-1.06.33zM259.7 210.1l1.37.75 1.28-4.56-.75-1.28-1.9 5.1zM263.62 203.65l-.22 3.8 1.07-.1-.22-3.92-.63.22zM268.18 213.08l1.27.2.32-4.86-.96-.2-.62 4.86zM280.58 225.8l.53 4.66 1.07-.42-.85-4.24h-.74zM282.5 222.83l1.15 3.92 1.6-.74-1.5-4.33-1.26 1.16zM279.3 218.5l.1 4.65h1.3l-.12-4.77-1.27.1zM257.58 232.27l2.22.1 1.17-6.57-1.27-.2-2.12 6.67zM262.13 227.92h1.27v-4.13l-1.05.3-.22 3.82zM254.4 220.18l1.48-.1.74-5.1-1.06.1-1.16 5.1zM250.16 238.94s1.7.32 1.7 0c0-.3.95-4.66.95-4.66l-1.37.42zM271.04 239.16l1.27.42v-5.94l-.94.32-.32 5.2zM290.12 233.64l.42 3.4 1.06-.85-.3-2.87-1.18.3z"/><path fill="#9ce2d6" d="M297.75 234.25l2.4-.85-1.13-3.96-7.63-18.66 3.24-.14 1.98-.28-3.68-7.92-8.05-13.7 2.25-.7-1.84-4.1-4.1-11.03 2.56-.98-1.56-3.1-6.35-13.16 2.4-.56-2.27-3.4-4.12-6.34 1.1 4.5.4 5.1-4.23.77-1.84.43 2.96.14 3.47.07.9 10.8.37 4.1-1.98.08-3.9-.63-1.47-.07 2.47 1.34 3.1.7 1.42 8.83.7 5v1.85l-3.6.7-3.4.22-2.04-.14 1.56.64 4.66.35 1.77 2.9 4.8 11.58 1.05 4.25-.07 1.2-3.67.56-4.02.07-4.52-.4 4.03 1.2 4.23 1.12h2.4l.78 3.4.7 12.86v3.95l-.06 1.13-3.04.3-2.96.2-8.2-.3-4.1-.83 3.54 2.04 4.52.78 3.6 2.26 1.3 6.8 27.4.35-2-4.1-2.25-7.2z" style="mix-blend-mode:multiply"/><path fill="#2eaa81" d="M252.6 241.25l-6.14-12.15 3.24-.92-1.27-2.43-4.74-12.38 2.3-1.16-1.74-3.23-5.55-11.46-1.38-2.76 2.9-.58-1.5-3.82-5.56-12.73-2.55-2.42-2.2 6.83-3.23 7.88-1.27 3.6 2.43.9-4.05 6.84-3.47 5.55 4.17 1.04-6 15.4-1.75 3.7 2.32.7 3.12.58-6.25 12.6-3.1 5.68-.94 2.43 45.13 1.5-.47-2.55-2.43-6.6z"/><path fill="#9ce2d6" d="M252.6 241.25l-6.14-12.15 3.24-.92-1.27-2.43-4.74-12.38 2.3-1.16-1.74-3.23-5.55-11.45-1.38-2.78 2.9-.58-1.5-3.82-5.56-12.73-1.3-1.23 1.4 6.1.6 5.67.45 4.98-4.15.92 2.66.93 2.1 6.25 1.27 8.67v2.54l-3.13 1.04-5.2-.7 1.38 1.4 4.86 1.15 2.9 4.63 1.15 5.56.23 3.35-5.1.35-4.04-.58-4.28-.12 2.66 1.85 4.28.82 3.7.68 1.5 9.72s-.03 4.4-.02 8.18l18.43.62-.47-2.55z" style="mix-blend-mode:multiply"/><path fill="#8c5c23" d="M282.07 198.6l.47-22.26.23-10.48-.35-8.12h-.7l-.36 8.7-.47 13.55-1.9 31.18-.35 26.25-.35 16.6 5.3-.47-1.18-26.6-.35-28.37zM289.3 181.66l-1.76 1.86-2.82 2.3-3.1 1.23.18 1.6 2.12-.72 2.03-.97 2.2-2.03 1.5-2.03.98-2.3-.62-.26-.7 1.32zM275.9 176.72l-2.4-2.82-1.5-3.36-.6.18.78 2.65 1.76 3.17 2.4 2.4 2.64 1.22 2.56.53.17-1.68-3.25-.53-2.56-1.78zM293.72 193.4l-1.4 3.63-2.57 3.1-3.1 2.2-5.46.88v1.5h2l3.63-.96 2.74-1.77a33.12 33.12 0 0 0 2.65-3l1.68-3.27.88-4.23h-.7zM272.97 194.47l-2.9-5.12-.9-4.06-.6.16.52 3.8 1.5 3 1.58 2.82 2.2 2.3 3.27 1.6 3.18.52v-1.86l-4.33-.8-3.53-2.37zM286.22 162.5l-1.5 1.24-2.4.62-.25 1.15 1.5-.17 1.32-.53 1.32-.8.8-1.4.34-1.95h-.53l-.6 1.86z"/><path fill="#3caa47" d="M303.08 183.25l-4.95-.35-6 2.3-3.18 4.85.88 5.83 3.18 4.24 6.46 1.76 4.77-2.2s2.73-2.74 2.82-3c.1-.27.97-6.28.97-6.28l-1.6-4.67z"/><path fill="#349b3b" d="M303.08 183.25l-3.56-.25.38.52 3.8 1.4 2.1 3.1s-.52 4.95-.6 5.2c-.1.28-3.18 3.28-3.18 3.28l-4.68 1.32-6.1-2.03-1.82-2.63.4 2.7 3.2 4.25 6.44 1.76 4.77-2.2s2.73-2.74 2.82-3c.1-.27.97-6.27.97-6.27l-1.6-4.67z"/><path fill="#3caa47" d="M295.22 170.63l-4.6.62-2.64 1.23-2.82 3.45.44 5.2 2.47 3.54 6 1.76 4.06-1.32 2.56-3.8 1.14-6.17-2.38-3.35-4.24-1.15z"/><path fill="#349b3b" d="M295.22 170.63l-1.68.23 2.2.92 2.48 2.03.45 4.7-2.12 3.87-3.1.97-3.8-.1-2.46-2.37-1.35-5.8-.7.86.45 5.2 2.47 3.54 6 1.76 4.06-1.32 2.56-3.8 1.14-6.17-2.38-3.35-4.24-1.15z"/><path fill="#3caa47" d="M287.1 151.38l-3.44-.53-5.48 1.77-3.35 4.94-.62 5.92 3 5.3 4.43 2.2 6.44-.88 3.62-3.62 1.23-6.1-1.77-5.9-4.06-3.1z"/><path fill="#349b3b" d="M287.1 151.38l-3.36-.5 4.7 2.36 2.37 2.65.54 6.25-2.4 4.24-4.58 2.1-5.12-1.75-3.88-4.16.07-5.92-.6.88-.62 5.92 3 5.3 4.43 2.2 6.44-.88 3.62-3.62 1.23-6.1-1.77-5.9-4.06-3.1z"/><path fill="#3caa47" d="M270.32 158.9l-5.12 1.75-3.26 4.86-.27 7.07 4.15 3.36 5.3 1.85 5.03-1.94 3.44-6.1v-5.73l-3.45-3.96-5.83-1.15z"/><path fill="#349b3b" d="M270.32 158.9l-2.2.75 4.24 1.1 3.17 3.35.45 5.12-3.27 4.68-5.02.7-4.42-3.44-1.4-3.6-.2 5 4.16 3.37 5.3 1.85 5.03-1.94 3.44-6.1v-5.73l-3.45-3.96-5.83-1.15z"/><path fill="#3caa47" d="M271.56 179.8l-5.65.28-3.96 2.73-2.4 5.58 1.96 6.88 4.85 3h5.12l3.8-1.94 2.47-4.94.18-6.1-3.53-3.53-2.84-1.94z"/><path fill="#349b3b" d="M271.56 179.8l-.9.05 4.26 4.2.7 3.97-1.4 3.88-4.16 3.1s-4.5-.36-4.86-.53-3.7-3.9-3.7-3.9l-.27-4.5.38-2.5-2.05 4.8 1.95 6.9 4.85 3h5.12l3.8-1.95 2.47-4.94.18-6.1-3.53-3.53z"/><path fill="#75aa31" d="M405.45 234.86l-9.37-10.93 4.7-.44 3.56-.24-3.8-6.47-8.92-18.07-4-6.9 6-.68 3.35-.44-3.8-6.02-4.67-7.8-5.8-8.92 3.57-1.1 2.23-.68-4.24-5.36-7.8-10.03-8.25 11.8-2.9 6.03 5.14.9-.67 2.44-12.04 14.95 3.8.9h4.67l-9.36 14.7-10.26 12.94 3.12 1.1 4.9-.66-9.36 13.6-7.58 12.5-1.78 4.23 77.6.9-.9-3.8-7.13-8.47z"/><path fill="#709e2d" d="M382.03 183.34l2 4.8 1.57-.67-2.56-4.68-1 .54zM385.27 182.8l1.23 3.1 1.22-.2-2-3.25-.45.34zM365.3 183.24l1.68.78 2.35-3.8-.34-.9-3.7 3.92zM368.54 185.47l1.34.44.67-3.33-.9-.78-1.1 3.67zM376 182.34l1.46-.1v-4.02l-.9.1-.55 4.02zM362.4 213.56l1.9.1 1.8-4.34-.8-1.22-2.9 5.46zM367.43 215.34l1 .67 1.68-4.56-.77-.9-1.9 4.8zM375.9 213.67l1.12.34.67-4-1.02-.56-.78 4.23zM388.4 211.67l1.1 4.46 1.35-.78-1.57-4.13-.9.45zM372.56 205.2l1.45.45.8-5.9-1 .32-1.24 5.13zM376 197.95l.35 4.02 1.56-.34-1.1-4.57-.8.9zM387.27 202.08l.12 3.34 1.1-.44-.22-2.9h-1zM356.28 209.88l1.56.78 1-4.57-1-.23-1.56 4zM368.43 200.3l1.12.33.33-3.46h-.78l-.67 3.12zM370.33 241.54l2 .12 1.12-5.35-1.78-.78-1.34 6.02zM376.13 232.07l.22 3.68 1.22-.56-.44-3.47-1 .34zM366.43 230.4l1.33.78 1.23-5.8-.8-.1-1.77 5.12zM388.5 234.86l2.12 4.46 1.12-.78-2.57-4.57-.67.9zM352.04 236.75l2 .9 1.46-5.47-1.12.1-2.34 4.47zM388.17 224.6l.67 3.34 1.33-1.1-.9-3.25-1.1 1zM374.68 166.96l1.45.22.66-3.23-.8-.45-1.32 3.46z"/><path fill="#d8efaf" d="M405.45 234.86l-9.37-10.93 4.7-.44 3.56-.24-3.8-6.47-8.92-18.07-4-6.9 6-.68 3.35-.44-3.8-6.02-4.67-7.8-5.8-8.92 3.57-1.1 2.23-.68-4.24-5.36-5.3-6.8 3.2 6.8-2.47 5.24-4.7 3.24 5.14 3.68 5.58 13.27.77 3.9-10.82.78-4.13-.45 2.46 2 7.8 1.35 4.25 22.96.1 6.24-10.58.9-15.6-2.57 8.57 3.34 9.82 1.8 2.78 13.48 1.15 6.78 31.18.36-.9-3.8-7.13-8.46z" style="mix-blend-mode:multiply"/><path fill="#93b723" d="M362.14 197.23l-5.83-1.02 5.62-4.58.44-4.23-1.97-3.88-3-1.1-5.76 1.7 1.3-3.44-.72-4.38-3.86-2.77-4.6.95-3.64 3-1.32 4.95.07 4.6 1.25 2.84-6.35 1.24-4.16 5.62-.57 7.3 2.9 3.5 6.36 2.33-5.2 6.7-.35 5.85 2.55 6.12 4.1 2.4 4.87.74 6.93-3.2 4.96 4 3.5-1.1 3.07-3.86-.52-6.27-5.3-5.32 8.6-4.22 1.9-5.47-1.32-5.4-3.94-3.57z"/><path fill="#d7e0a4" d="M362.14 197.23l-5.83-1.02 5.62-4.58.44-4.23-1.97-3.88-3-1.1-5.76 1.7 1.3-3.44-.72-4.38-3.86-2.77-1.82.37 2.55 1.38 1.8 3.2-.14 3.3-1.1 2.98-1.16 1.75 7.95.96.95 2.4-.36 2.05-1.54 2.34-2.18 1.03 3.5 2.04 4.45 3.07.22 3.36-.6 4.88-1.1 3.08-2.7 1.82-2.47.88-1.75.3 3.35 5.1 1.83 3.86-.6 2.7a8.62 8.62 0 0 1-1.45 1.24 29.2 29.2 0 0 1-2.98-1.53 30.5 30.5 0 0 1-1.67-2.56l-2.7 1.38-3.5 2.55a19.3 19.3 0 0 1-2.92 1.02 16.07 16.07 0 0 1-3.14-1.1c-.23-.3-2.5-2.33-2.85-2.76a20.27 20.27 0 0 1-1.6-3.37c-.15-.5-.66-3.72-.66-3.72l.47-2.7-1.36 1.76-.35 5.84 2.55 6.12 4.1 2.4 4.87.74 6.93-3.2 4.96 4 3.5-1.1 3.07-3.86-.52-6.27-5.3-5.32 8.6-4.22 1.9-5.47-1.32-5.4zM351.64 197.53l.3 1.38 1.08.52 1.46-.8.22-1.53-1.82-.8-1.24 1.23zM351.8 192.42l.7 1.17.96.14.6-1.25-1.25-.88-1 .8zM342 180.68l.8 1.53 1.18-.06 1.02-1.97-1.6-1.1-1.4 1.6zM336.9 217.07a12.74 12.74 0 0 0 1.17 2.48c.22 0 1.68 0 1.75-.36.08-.37.73-2.86.73-2.86l-1.82-.94zM335.15 200.73s.44 1.03.73.88.88-.2.95-.43c.07-.2.3-1.75.3-1.75l-1.6.22zM333.4 198.84l.88.58 1.02-.65v-1.4l-1.02.16-.88 1.3zM350.1 193.3l-.58.87.3 1.3 1.24.45.58-.8-.3-1.17-1.23-.65zM341.28 216.56l.22 1.46.95.3.65-.95-.3-1.46-1.52.66z" style="mix-blend-mode:multiply"/><path fill="#8c5c23" d="M347.14 191.35l-.05 1.6 3.3-2.77 4.03-3.45-3.64 1.95-3.66 2.67zM353.27 207.93l-5.98 4.62-.2 2.14 1.1-1.18 3.85-3.35 3.9-3.5 3.78-3.36-2.18 1.57-4.28 3.06z"/><path fill="#a57132" d="M341.2 197.1l-3.6-2.06 1.9 1.66 4.24 3.1 3.16 2.2.1-2.1-1.76-.53-4.03-2.28zM347.77 202.5l-.38-11.98-.4-7.68-.3 9.24-.38 16.92-.6 18.48-.28 14.5-.3 5.15-.2 2.8 3.9-.08-1.07-26.16v-21.2z"/><path fill="#8c5c23" d="M347.77 202.5l-.4-11.98-.15-3.22c-.06 1.46-.1 2.83-.14 3.7-.02.58-.04.95-.04.98 0 .22.08 6.35.08 6.35l-.08 11.37-.3 13.5.23 16.27s-.1 7.25-.17 10.43l2.04-.05-1.07-26.16z"/><path fill="#d7e0a4" d="M385.36 267.38l-24.16 7.3-36.25-5.07-32.43-.95-5.72 8.27-41.65 8.58-47.38 1.28-30.52-2.55-3.18-2.54-2.86-3.1-6.2-2.64-7.15-1.9-25.75.63-62.96-4.78-34.97-1.9-15.9-3.18-6.45-5.62 7.72 12.12h31.8l71.22 6.8 43.24 4.1 6.36 8.17 79.5 2.73 48.3-12.94 3.83-6.82 73.76 5.45 40.7-12.94v-7.33l-3.82 2.13-19.08 6.68zM86.5 245.14H74.87l.32 2.7 2.86 1.6 9.86.15 12.4.63 13.5-.32.17-1.9-7.16-.95-20.35-1.9z" style="mix-blend-mode:multiply"/><path fill="#d35500" d="M113.6 240.72l-1.58-2.2s-1.32-1.7-1.5-1.9c-.2-.18-1.02-.94-1.02-.94a.3.3 0 0 0 .13-.3c-.07-.2-2.14-2.15-2.14-2.15l-.58-.5-.38-.38-1.13-.76-.24-.4-1.07-1.18-2.78-1.76s.7 4.65.7 4.9a11.52 11.52 0 0 0 .88 1.77l.56 2s.13 2.02.13 2.28.62.63.68.82 1.07 1.14 1.13 1.32 2.6 2.9 2.6 2.9l2.07 1.63s2.64.44 2.83.57a10.25 10.25 0 0 0 1.63.32l.25-.7-.25-2.95z"/><path fill="#d6c9c3" d="M114.36 242.68l-.52.68-.88-.44-1-.06-.76 1.38-1.26.25.38.56-.8.4.55.4s2.64.45 2.83.58a10.25 10.25 0 0 0 1.63.32l.25-.7-.25-2.95z"/><path fill="#d6c9c3" d="M112.65 245.12l-1.45-.88-1.5-.88-1.9-1.95-2.2-2.64-1.38-2.26-1.07-3.9-1.26-.4c.06.52.1.9.1.97a11.52 11.52 0 0 0 .9 1.76l.56 2s.13 2.02.13 2.28.62.63.68.82 1.07 1.14 1.13 1.32 2.6 2.9 2.6 2.9l2.07 1.63s2.64.44 2.83.57a10.25 10.25 0 0 0 1.63.32l.25-.7-.06-.73z" style="mix-blend-mode:multiply"/><path fill="#66524a" d="M73.88 215.57l-.15.5-.04.9-.06 1.24 1.9-.6c-.06-.15-.96-1.8-.96-1.8z"/><path fill="#d35500" d="M97.23 241.6l-.7-2.4-.62-4.52-2.88 1.2-.13 2.7.75 1.95 1.2 1.32 1.06.88.2.7-.2 1.25-.8 1.76-.26.25-.7.18-.62.76.13.5h1.63l1.07-.06.13-.9.3-.36.07-.63.7-1.33 1-1.83-.25-.88-1.07-.56z"/><path fill="#44352e" d="M97.86 242.98l-.88.2-.56-.4-.44.2.12.44-.2 1.26-.8 1.76-.26.25-.7.18-.62.76.13.5h1.63l1.07-.06.13-.9.3-.36.07-.63.7-1.33 1-1.83-.05-.2-.64.14z"/><path fill="#d35500" d="M78.92 239.27l.26 2.9.06 1.56-.44 1.64-.82.32-.56.68.06.63 1.63-.06.83-.8.76-2.9V236l-2.1-.63.32 3.9z"/><path fill="#66524a" d="M78.84 238.18l.08 1.1.26 2.88.06 1.57-.44 1.64-.82.32-.56.68.06.63 1.63-.06.83-.8.76-2.9v-4.78l-.83-.58-1.03.3z"/><path fill="#d35500" d="M101.9 238.7l.87-3.02.75-2.9s-.44-2.26-.5-2.45-1.64-2.4-1.64-2.4l-3.4-1.43-5.9-.5-5.04-.5-1.26-.7-1.9-.2-1-.43-1.63-2.46-2.5-3.2-2.22-1.2-2.26.2-2.45 1.83-.57 1.07-.94.8-2.26 1.33.38 1.14 1 .75 2.02-.2H73l1.2.96 1.33 4.15.94 3.52 1.26 2.08 1.45 1.76.8.55.26 4.72.13 3.02.13.8-.44 1.46-.82.2-.57 1.06.32.25 2.44-.25.63-2.4.1-1.44.15-1.42.44-1.3.63-4.9.8-.62 1.9.44 3.4-.07 4.33-.62 1.2 1.77.7 1.82 1.63 1.45 2.83 1.44.74.7-.44 3.9-.75.25-.7.58-.18 1.13.63.07h1.57l1-.88.45-.4.12-2.38.95-3.33-1.52-1.9z"/><path fill="#44352e" d="M81.13 237.13l-.26.56-.84.2.22 4.07.12 3.02.13.8-.44 1.46-.82.2-.57 1.06.32.25 2.44-.25.63-2.4.1-1.44.15-1.42.44-1.3.58-4.48-.77-.85-1.44.5zM102.06 240.27l-.36.9-1.26.24-2.9-.5H97l.38.32 2.83 1.44.74.7-.44 3.9-.75.25-.7.58-.18 1.13.63.07h1.57l1-.88.45-.4.12-2.38.95-3.33-1.52-1.9-.02-.13z"/><path fill="#d6c9c3" d="M90.25 235.68H86.6l-3.08-.3-.32.56.4.96.6-.46 1.9.44 3.4-.06 4.33-.63.2-.77-1 .06-2.78.18zM78.92 234.36l-1.44-2.96-.32-2.32.32-3.28.38-1.7-.32-.75-1.38-.44-2.14-.87-1.7-.25-1.13.5-1.46.7-1.45.3.12.4 1 .74 2.02-.2H73l1.2.96 1.33 4.15.94 3.52 1.26 2.08 1.45 1.76.46.3-.1-1-.62-1.64z"/><path fill="#d6c9c3" d="M96.85 238.83l-1.7-3.53.45-1.44-.82-.38-3.15 1.2-4.4.25-4.22-.88-1.12.75.25 1.45v5.28l-.5 1.9-.06 2.38-.44 2.1-.15.66.46-.04.63-2.4.1-1.44.15-1.42.44-1.3.63-4.9.8-.62 1.9.44 3.4-.06 4.33-.63 1.2 1.75.7 1.82 1.63 1.45 2.83 1.44.74.7-.34 3.05.4-.34.45-2.83-2.08-2.14-2.52-2.27z" style="mix-blend-mode:multiply"/><path fill="#ed701b" d="M92.07 226l-5.03-.5-1.26-.7-1.9-.2-1-.43-1.63-2.46-2.5-3.2-2.22-1.2-2.15.2c.15.14.27.25.27.25l1.13.2 1.82.62s1.45 1.76 1.5 1.95 2.4 3.4 2.4 3.4l1 1.76 1.52.7 2.4.3 2.26-.3 4.97.24 5.4.82 1.46.13-2.5-1.07z"/><path fill="#66524a" d="M71.38 220.65l-.4.44.66-.38 1-.53-.4-.1-.86.55z"/><path fill="#ed701b" d="M76.47 214.9l-1.04 2.32-.04 1.32.46.05.52.55.28.62 1.46-.95.24-.56-1.18-3.02-.7-.34z"/><path fill="#d35500" d="M76.47 214.9l-.1.24.34.38V218.3l-.2 1.14.16.33 1.46-.95.24-.56-1.18-3.02-.7-.34z"/><path fill="#d6c9c3" d="M75.8 216.8l-.04.8-.1.9.03.07.16.02.36.38.16-1.15.04-1.32-.04-.7-.57 1z" style="mix-blend-mode:multiply"/><path fill="#44352e" d="M76.47 214.9l-.1.24.34.38v1.42l.53-.2.65.3-.7-1.8-.7-.34z"/><path fill="#66524a" d="M70.24 223.8l-.85.14-.54.06.24.18.58-.1.85-.2 1-.27.6.04.66.04v-.14l-1.24-.12-1.32.38zM68.04 222.53l.26.8.2-.36h-.12v-.2l.3-.03v-.28l-.37-.08-.26.15z"/><path fill="#44352e" d="M72.1 219.84l.05.16-.04.24-.13.16.5-.07.5-.02-.37-.28-.5-.18z"/><path fill="#2eaa81" d="M379.85 249.78l-5.02-9.93 2.65-.76-1.04-2-3.9-10.1 1.9-.96-1.42-2.64-4.55-9.37-1.14-2.27 2.37-.47-1.23-3.13-4.55-10.4-2.1-2-1.8 5.6-2.65 6.42-1.05 2.92 2 .76-3.32 5.58-2.85 4.54 3.42.85-4.94 12.58-1.42 3.02 1.9.57 2.57.47-5.12 10.3-2.57 4.63-.75 2 37 1.22-.38-2.08-2-5.4z"/><path fill="#9ce2d6" d="M379.85 249.78l-5.02-9.93 2.65-.76-1.04-2-3.9-10.1 1.9-.96-1.42-2.64-4.55-9.37-1.14-2.27 2.37-.47-1.23-3.13-4.55-10.4-1.07-1 1.16 4.97.48 4.63.38 4.07-3.4.76 2.17.75 1.7 5.1 1.05 7.1v2.08l-2.56.85-4.27-.56 1.14 1.13 3.97.95 2.38 3.78.94 4.54.18 2.74-4.17.28-3.3-.47-3.52-.1 2.18 1.52 3.5.65 3.05.57 1.24 7.94s-.03 3.6-.02 6.7l15.1.5-.37-2.1z" style="mix-blend-mode:multiply"/><path fill="#75aa31" d="M156.98 237.7l-9.72-11.32 4.86-.47 3.7-.22-3.93-6.7-9.27-18.75-4.16-7.18 6.25-.7 3.47-.46-3.95-6.26-4.86-8.1-6.02-9.25 3.7-1.17 2.3-.7-4.38-5.55-8.1-10.4-8.57 12.25-3 6.25 5.32.93-.7 2.55-12.5 15.5 3.94.93h4.85l-9.72 15.28-10.64 13.42 3.22 1.16 5.1-.7-9.72 14.12-7.87 12.96-1.85 4.4 80.53.92-.9-3.93-7.42-8.8z"/><path fill="#709e2d" d="M132.68 184.25l2.08 4.98 1.63-.7-2.68-4.85-1.04.57zM136.04 183.68l1.27 3.24 1.28-.23-2.08-3.37-.46.35zM115.33 184.14l1.73.8 2.43-3.92-.36-.93-3.8 4.04zM118.68 186.46l1.4.46.68-3.47-.92-.8-1.16 3.8zM126.43 183.22l1.5-.12v-4.17l-.92.12-.57 4.16zM112.32 215.62l1.96.1 1.85-4.5-.8-1.28-3 5.68zM117.52 217.47l1.05.7 1.73-4.76-.8-.9-1.98 4.97zM126.32 215.73l1.16.35.7-4.17-1.05-.57-.8 4.4zM139.28 213.65l1.16 4.63 1.38-.8-1.62-4.3-.92.47zM122.85 206.93l1.5.47.8-6.14-1.03.35-1.27 5.33zM126.43 199.4l.35 4.18 1.62-.35-1.16-4.74-.8.9zM138.12 203.7l.12 3.47 1.15-.47-.24-3h-1.04zM105.95 211.8l1.62.8 1.04-4.74-1.03-.23-1.62 4.16zM118.57 201.84l1.15.35.35-3.6h-.8l-.7 3.24zM120.53 244.66l2.08.1 1.17-5.54-1.85-.8-1.4 6.24zM126.55 234.82l.23 3.82 1.27-.58-.46-3.6-1.05.36zM116.48 233.1l1.4.8 1.26-6.02-.8-.12-1.86 5.33zM139.4 237.7l2.2 4.64 1.15-.8-2.66-4.75-.7.9zM101.56 239.68l2.08.93 1.5-5.66-1.16.1-2.42 4.64zM139.05 227.07l.7 3.47 1.38-1.16-.93-3.35-1.15 1.04zM125.05 167.25l1.5.23.7-3.36-.82-.46-1.4 3.6z"/><path fill="#d8efaf" d="M156.98 237.7l-9.72-11.32 4.86-.47 3.7-.22-3.93-6.7-9.27-18.75-4.16-7.18 6.25-.7 3.47-.46-3.95-6.26-4.86-8.1-6.02-9.25 3.7-1.17 2.3-.7-4.38-5.55-5.5-7.06 3.3 7.06-2.55 5.44-4.86 3.36 5.3 3.8 5.8 13.78.8 4.06-11.2.8-4.3-.46 2.55 2.1 8.1 1.37 4.4 23.84.1 6.48-10.98.93-16.2-2.67 8.9 3.5 10.2 1.84 2.9 14 1.18 7.03 32.36.37-.9-3.93-7.42-8.8z" style="mix-blend-mode:multiply"/><path fill="#93b723" d="M173.16 190.5l-6.97-1.23 6.7-5.5.52-5.05-2.35-4.62-3.57-1.3-6.9 2 1.58-4.1-.88-5.23-4.62-3.32-5.5 1.14-4.35 3.56-1.57 5.93.1 5.48 1.47 3.4-7.6 1.5-4.96 6.7-.7 8.72 3.5 4.2 7.58 2.78-6.2 8.02-.43 6.98 3.05 7.32 4.9 2.88 5.83.87 8.28-3.84 5.93 4.8 4.2-1.3 3.66-4.62-.6-7.5-6.38-6.37 10.3-5.04 2.26-6.54-1.57-6.46-4.7-4.27z"/><path fill="#d7e0a4" d="M173.16 190.5l-6.97-1.23 6.7-5.5.52-5.05-2.35-4.62-3.58-1.3-6.9 2 1.58-4.1-.88-5.23-4.62-3.32-2.17.45 3.05 1.65 2.18 3.83-.17 3.93-1.3 3.58-1.4 2.1 9.5 1.13 1.13 2.9-.44 2.43-1.83 2.8-2.62 1.2 4.2 2.45 5.32 3.66.26 4-.7 5.86-1.3 3.66-3.23 2.18-2.97 1.05-2.1.33 4.02 6.1 2.18 4.63-.7 3.22a10.3 10.3 0 0 1-1.74 1.5 34.94 34.94 0 0 1-3.58-1.84 36.12 36.12 0 0 1-2-3.06l-3.23 1.66-4.18 3.05a22.9 22.9 0 0 1-3.5 1.2 19.1 19.1 0 0 1-3.74-1.3c-.25-.35-2.96-2.8-3.4-3.3a24.14 24.14 0 0 1-1.9-4.02c-.18-.6-.8-4.45-.8-4.45l.58-3.24-1.62 2.1-.44 6.98 3.05 7.32 4.9 2.88 5.83.87 8.28-3.84 5.93 4.8 4.2-1.3 3.66-4.62-.6-7.5-6.38-6.37 10.3-5.04 2.26-6.54-1.57-6.46zM160.6 190.84l.36 1.66 1.3.6 1.75-.95.27-1.83-2.18-.96-1.5 1.48zM160.78 184.74l.87 1.4 1.14.17.68-1.48-1.48-1.04-1.22.96zM149.1 170.7l.96 1.83 1.4-.1 1.2-2.34-1.9-1.32-1.66 1.92zM143 214.2s1.13 2.97 1.4 2.97c.25 0 2 0 2.08-.43.1-.44.87-3.4.87-3.4l-2.18-1.14zM140.9 194.68s.52 1.22.87 1.05c.35-.18 1.05-.27 1.14-.53s.35-2.1.35-2.1l-1.9.27zM138.8 192.4l1.05.7 1.22-.78v-1.65l-1.22.17-1.04 1.57zM158.78 185.8l-.7 1.03.35 1.57 1.48.52.7-.96-.34-1.4-1.48-.77zM148.22 213.6l.27 1.74 1.12.35.78-1.14-.34-1.75-1.84.8z" style="mix-blend-mode:multiply"/><path fill="#8c5c23" d="M155.23 183.46l-.06 1.92 3.95-3.32 4.83-4.12-4.36 2.32-4.37 3.2zM162.55 203.28l-7.15 5.52-.23 2.56 1.34-1.4 4.6-4 4.65-4.2 4.53-4-2.6 1.86-5.13 3.66z"/><path fill="#a57132" d="M148.14 190.32l-4.3-2.44 2.26 1.97 5.06 3.72 3.78 2.62.12-2.5-2.1-.65-4.82-2.73zM156 196.77l-.48-14.3-.46-9.18-.35 11.03-.46 20.23-.7 22.1-.35 17.3-.35 6.17-.24 3.38 4.66-.1L156 222.1v-25.35z"/><path fill="#8c5c23" d="M156 196.77l-.48-14.3-.2-3.85c-.06 1.74-.13 3.38-.17 4.43-.02.7-.04 1.12-.04 1.17 0 .26.1 7.58.1 7.58l-.1 13.6-.34 16.13.27 19.45s-.1 8.67-.2 12.47l2.43-.06L156 222.1z"/><path fill="#75aa31" d="M738 228.63l-8.2-9.58 4.1-.4 3.13-.2-3.32-5.66-7.8-15.84-3.53-6.06 5.28-.6 2.93-.38-3.32-5.28-4.1-6.84-5.1-7.82 3.14-.98 1.95-.6-3.7-4.68-6.86-8.8-7.24 10.36-2.54 5.28 4.5.78-.6 2.16-10.55 13.1 3.33.78h4.1l-8.2 12.9-9 11.34 2.73.98 4.3-.6-8.2 11.94-6.65 10.94-1.57 3.72 68.05.78-.78-3.32-6.26-7.43z"/><path fill="#709e2d" d="M717.48 183.47l1.76 4.2 1.37-.6-2.24-4.1-.88.5zM720.32 182.98l1.07 2.74 1.07-.2-1.76-2.84-.38.3zM702.82 183.37l1.46.68 2.06-3.32-.3-.78-3.22 3.42zM705.65 185.32l1.18.4.58-2.94-.77-.68-.98 3.22zM712.2 182.6l1.27-.1v-3.53l-.78.1-.5 3.52zM700.28 209.96l1.66.1 1.56-3.82-.68-1.07-2.54 4.8zM704.67 211.52l.9.6 1.45-4.02-.68-.78-1.67 4.2zM712.1 210.05l.98.3.6-3.52-.9-.5-.68 3.72zM723.05 208.3l.98 3.9 1.17-.68-1.36-3.62-.8.4zM709.17 202.63l1.27.4.7-5.2-.9.3-1.07 4.5zM712.2 196.27l.3 3.52 1.36-.3-.97-4-.7.77zM722.08 199.9l.1 2.92.97-.4-.2-2.53h-.88zM694.9 206.73l1.37.7.88-4.02-.88-.2-1.37 3.53zM705.56 198.32l.97.3.3-3.03h-.7l-.57 2.72zM707.22 234.5l1.76.1.97-4.7-1.56-.7-1.18 5.3zM712.3 226.18l.2 3.23 1.07-.48-.4-3.03-.87.28zM703.8 224.72l1.17.68 1.08-5.08-.7-.1-1.55 4.5zM723.15 228.63l1.86 3.9 1-.68-2.26-4-.6.78zM691.18 230.3l1.77.77 1.27-4.8-.98.1-2.06 3.92zM722.86 219.63l.58 2.94 1.18-.98-.78-2.85-.98.88zM711.03 169.1l1.27.2.6-2.84-.7-.4-1.17 3.04z"/><path fill="#d8efaf" d="M738 228.63l-8.2-9.58 4.1-.4 3.13-.2-3.32-5.66-7.8-15.84-3.53-6.06 5.28-.6 2.93-.38-3.32-5.28-4.1-6.84-5.1-7.82 3.14-.98 1.95-.6-3.7-4.68-4.66-5.97 2.78 5.97-2.15 4.6-4.1 2.83 4.5 3.23L720.7 186l.7 3.43-9.5.68-3.6-.38 2.14 1.76 6.84 1.18L721 212.8l.1 5.46-9.3.8-13.67-2.26 7.52 2.93 8.6 1.57 2.45 11.82 1 5.95 27.35.3-.78-3.3-6.26-7.44z" style="mix-blend-mode:multiply"/><path fill="#2eaa81" d="M605.55 234.02l2.62-.92-1.23-4.32-8.34-20.37 3.55-.14 2.16-.3-4-8.65-8.8-14.96 2.48-.77-2-4.47-4.48-12.04 2.77-1.08-1.7-3.4-6.94-14.34 2.63-.62-2.47-3.7-6.03-9.25-3.7 5.55-2.78 5.86-2.63 4.94 3.55.3 1.23.32-5.24 7.86-2.46 3.86 2.3.3 2.8.47-11.12 20.2-4.63 8.2-.47 1.22 5.25-.3 2.62.6-4.63 8.04-4.94 8-4.93 6.5v.9l8.17-.14-2.93 6.63-4 8.32-7.72 13.12 70.66.92-2.16-4.47-2.47-7.88z"/><path fill="#259e72" d="M572.57 149.36l1.27.58.58-3.47-.7-.23-1.15 3.12zM575.46 145.54l-.1 3.24 1.38.58-.12-3.36-1.16-.46zM579.75 152.14l-.12 4.28 1.5-.12-.7-4.4-.68.24zM572 162.32l1.15.46.8-4.63-.92.47-1.04 3.7zM575 160.24l-.23 3.93 1.4.23-.13-3.82-1.04-.34zM580.2 159.43l.47 3.35 1.04-.23-.45-2.43-1.04-.7zM582.75 157.46c.12.35.93 2.78.93 2.78l1.04-.93-1.16-2.42zM568.98 177.94l1.5.12.82-3.7-.58-.35-1.74 3.94zM567.48 173.78l1.16.1.57-3.35-.8.24-.92 3zM576.4 173.43l.22 6 2.08-.45-1.15-5.55h-1.16zM580.9 170.77l.7 2.77 1.38-.8-1.15-2.2-.93.23zM586 179.9l.8 4.17.93-.46-.93-4.16-.8.47zM567.48 191.36l1.5.7.7-5.44-.8-.12-1.4 4.86zM570.95 185.23v3.24l1.5-.23-.46-3.36-1.05.35zM583.9 197.5l.36 6.47 1.73-.57-1.05-6.37-1.04.47zM586 194.83l1.27 5.1 1.62.1-1.75-5.54-1.16.33zM564 207.68l1.5.8 1.4-4.97-.8-1.38-2.1 5.56zM568.3 200.62l-.24 4.16 1.15-.1-.22-4.3-.7.24zM573.26 210.92l1.4.23.34-5.32-1.04-.24-.7 5.32zM586.8 224.8l.58 5.1 1.16-.47-.93-4.63h-.8zM588.9 221.56l1.26 4.28 1.74-.8-1.63-4.75-1.38 1.26zM585.4 216.82l.13 5.1h1.4l-.13-5.22-1.38.12zM561.7 231.86l2.42.1 1.27-7.16-1.4-.23-2.3 7.3zM566.67 227.12h1.4v-4.52l-1.17.35-.23 4.17zM558.22 218.67l1.62-.1.8-5.57-1.14.12-1.28 5.55zM553.6 239.15s1.84.35 1.84 0 1.05-5.1 1.05-5.1l-1.52.47zM576.4 239.38l1.38.46v-6.47l-1.04.34-.35 5.68zM597.22 233.37l.46 3.7 1.16-.93-.35-3.12-1.28.34z"/><path fill="#9ce2d6" d="M605.55 234.02l2.62-.92-1.23-4.32-8.34-20.37 3.55-.14 2.16-.3-4-8.65-8.8-14.96 2.48-.77-2-4.47-4.48-12.04 2.77-1.08-1.7-3.4-6.94-14.34 2.63-.62-2.47-3.7-4.5-6.93 1.17 4.92.46 5.55-4.62.85-2 .46 3.24.16 3.78.07 1 11.8.4 4.5-2.17.07-4.24-.7-1.6-.07 2.7 1.46 3.38.77 1.54 9.64.77 5.48v2l-3.94.78-3.7.23-2.24-.16 1.7.7 5.1.38 1.92 3.17 5.24 12.65 1.16 4.63-.08 1.3-4 .63-4.4.07-4.94-.46 4.4 1.3 4.62 1.25h2.63l.84 3.7.8 14.04v4.32l-.1 1.23-3.3.32-3.25.23-8.95-.3-4.47-.93 3.86 2.24 4.92.84 3.94 2.47 1.42 7.4 29.9.4-2.16-4.48-2.47-7.88z" style="mix-blend-mode:multiply"/><path fill="#bbf2ff" d="M517.84 42.78l6.76-1.36 5.03 2.9 3.3-16.24 5.8-6 8.1-1.54 5.42 2.7 7.35 15.86 7.73-7.93 9.1-.96 6.95 5.04L585.5 42l-2.12 8.5 9.1-2.7 6.18 2.52 5.02 5.02 1.36 6.77-22.82.2-29.97.4-21.65-.6-12.96-.18-10.63-.78 2.72-9.47 8.12-8.9z"/><path fill="#89e9f4" d="M546.26 39.78l-3.2 3.2s-2.6 0-2.9-.88-2.3-4.93-2.3-4.93l4.63-1.45zM569.17 39.2l.87 3.2-2.03.57-1.73-1.16.58-2.9 2.32.3zM524.22 55.73l11.02 1.16 3.2-5.52 9.27-4.35 6.97 2.9 4.35 5.8 4.35-5.8 7.25-2.32 6.1 4.36 2.3 7.83 5.8-2.33 7.55-1.16 8.4 2.62 1.87 3.2-20.42.2-29.97.37-21.65-.6-12.96-.18-1.04-.08 1.82-4.08 5.8-2.03z"/><path fill="#bbf2ff" d="M479.36 65.68l-7.15-4.26-9.85-.38-7.93 4.06-8.12-13.73-7.16-3.48-7.15 2.7-4.46 8.5-1.16 8.32-5.02-5.22-3.68-.78-5.03 3.48-5.8-10.83-6.18-2.5-7.35 2.3-4.83 5.23-1.56 10.25-5.4-1.93-5.62 2.7-2.32 4.84-1.36 6.57 16.83-.4 21.85.2h31.32l23.2-.77 16.24.2 4.06-.58-.97-7.93-5.4-6.57z"/><path fill="#89e9f4" d="M461.38 73.02l-5.8-3.1-6.2.6-3.86 5.8-12.37.96-8.12-.2-2.5-3.48-5.43-1.16-4.25 5.42-1.36-4.06-6.4-8.32-6.37-1.74-5.8 3.68-2.5 10.82-3.1-3.28-5.8-.58-3.48 2.9-.72 4.13 11.74-.26 21.85.2h31.32l22.12-.74-.08-3.7-2.9-3.88zM469.1 66.26l-2.1 2.7 2.1 2.32s3.7.58 3.5 0a30.04 30.04 0 0 1 .2-4.44zM439.53 58.52l-3.1 4.84 2.52 2.9s1.93.38 2.7-.4a29.03 29.03 0 0 0 2.52-4.24l-2.13-2.9zM432.96 55.23v3.1l1.93 1.93 1.54-2.13-1.36-3.67-2.12.77z"/><path fill="#8c5c23" d="M601.65 175.7l-.87 20.9-.88 18.92-.65 12.47.1 7.1-.32 5.9v1.2l3.17-.43-.33-14 .33-24.06.22-23.94.1-12.47-.43-3.5-.45 11.9zM610.8 177.68l-2.28 1.9-3.7 2.2-2.8.9-.15 1.15 1.64.16 2.3-1.24 2.8-1.97 2.7-1.97 1.56-2.96.5-3.85-.66 2.38-1.9 3.28zM606.46 203.1l-2.38 2.7-2.78 1.98-.17 2.46 2.38-1.56 1.24-1.47 1.97-2.95 1.73-3.1-.82-.6-1.14 2.55zM606.96 168.74l-2.14 2.46-2.7.82v1.4l2.38-.58 1.96-1.3 1.48-2.88.74-2.14-.5-.08-1.22 2.3zM597.28 173.5l-2.3-1.48-1.9-2.13-.97-2.15-.56-.08.57 2.3 1.9 2.38 2.3 2.05 2.95.9 2.78.33.1-1.64h-2.4l-2.45-.5zM597.52 190.3c-.24-.15-2.62-1.14-2.62-1.14l-2.8-3.12-2.3-4.83-.48-.24.5 1.9 1.47 3.68 2.12 3.2 3.12 1.8 5.08.82v-1.64l-1.72.16a19.76 19.76 0 0 1-2.38-.57z"/><path fill="#3caa47" d="M617.62 167.26l-3.53-.65-4.03.66-4.18 5.33-.5 4.5 2.7 6.32 6.8 2.22 4.44-.66 3.77-3.28 1.65-5.9-1.8-6.16-5.33-2.38z"/><path fill="#349b3b" d="M617.62 167.26l-1.12-.2 1.94 1.5 3.28 2.97-.33 6.56-3.86 3.68-6 .08-4.17-2.8-1.66-4.78-.3 2.82 2.7 6.32 6.8 2.22 4.44-.66 3.77-3.28 1.65-5.9-1.8-6.16-5.33-2.38z"/><path fill="#3caa47" d="M611.06 160.7l-3.78.98-2.3 2.7-.57 3.62 1.98 2.54 3.7 1.3a18.33 18.33 0 0 0 3.1-1.13c.1-.24 2.06-3.03 2.06-3.03l.16-3.94-1.96-2.46z"/><path fill="#349b3b" d="M612.43 161.03l1.1.73.64 1.97-1.3 4.27-2.63.74-3.53.08-1.97-2.8-.32 1.98 1.98 2.54 3.7 1.3a18.33 18.33 0 0 0 3.1-1.13c.1-.24 2.06-3.03 2.06-3.03l.16-3.94-1.97-2.46z"/><path fill="#3caa47" d="M604.4 152.66l-4.58.9-3.45 3.2-.32 5.17 1.64 3.2 4.5 1.97 4.02-.58 2.38-2.7 1.23-5.58-2.22-4.1-3.2-1.48z"/><path fill="#349b3b" d="M604.4 152.66l-1.25.25 2.9 1.07 2.05 2.46-.32 3.86-2.7 3.27-3.46.16s-3.85-1.3-4.1-1.4a16.32 16.32 0 0 1-1.33-2.62l-.15 2.23 1.64 3.2 4.5 1.97 4.02-.58 2.38-2.7 1.23-5.58-2.22-4.1z"/><path fill="#3caa47" d="M598.34 159.63l-3.1-.65-5.76 1.4-2.95 3.35-.9 4.43 1.23 4.76 3.77 3.86 4.6 1.23 4.02-.65 3.85-4.76.9-4.35-2.05-6.57-3.6-2.05z"/><path fill="#349b3b" d="M598.34 159.63l-3.1-.65-5.72 1.38 3-.32 2.2.4 2.97 1.24 2.45 3.28.57 3.28-1.4 4.52-3.77 2.7-4-.74-3.95-3.36-1.73-4.36-.24 1.16 1.23 4.76 3.77 3.86 4.6 1.23 4.02-.65 3.85-4.76.9-4.35-2.05-6.57-3.6-2.05z"/><path fill="#3caa47" d="M591.86 173.5l-4.43-1.32-4.02 1.56-2.77 2.87.4 6 2.55 3.03 4.35 1.07 3.28-.5 2.96-2.53 1-4.2-.75-4.1-2.54-1.88z"/><path fill="#349b3b" d="M592.66 174.1l.68 2.92-.08 3.53-2.22 2.95a13.9 13.9 0 0 1-2.7 1.3 30.76 30.76 0 0 1-3.94-.23 25.45 25.45 0 0 1-2.46-1.97l-.98-1.06.08 1.06 2.54 3.04 4.35 1.06 3.28-.5 2.96-2.53.98-4.2-.73-4.1z"/><path fill="#bbf2ff" d="M767.24 14.77L757.94 8l-8.1 1.16-6.2 7.54-5.2 17.8-6.2-6.78-5.6-.38-3.88 1.93-3.48 3.1-6-7.94-5.8-.58-5.02 2.13-8.12-13.34-8.3-1.16-9.3 1.93-5.6 6-2.12 11.6-.6 3.3-8.1-3.87-9.3.96-6.95 4.44-3.1 4.25-1.73 4.05 31.13-.77 37.7.4 37.5-.2h24.76l-.58-18.18-2.5-10.63z"/><path fill="#89e9f4" d="M682.16 25.8l2.32 2.9 3.3-.2 1.15-4.45-5.03-1.55-1.74 3.3zM752.73 13.8l-2.9 1.93.58 4.06 1.75 2.3 3.87-.18 1.74-3.1-1.35-5.2-3.67.18zM660.3 37.4l-9.07 1.54-2.5 4.98 21.64-.54h.97l-2.9-3.48-8.13-2.5zM757.18 25.02l-7.93 2.32-5.6 13.53-14.3-.58-3.1-3.3-2.33-1.16-4.83.4-5.42 4.63-2.7-3.48-3.3-3.88-5.4-1.74-11.22 1.55-4.45 5.4-1.22 4.8 22.7.24 37.5-.2h20.02l-3-12.18-5.42-6.38z"/><path fill="#2eaa81" d="M481.1 235.8l-6.13-12.13 3.24-.93-1.26-2.43-4.74-12.37 2.3-1.16-1.72-3.24-5.56-11.45-1.4-2.78 2.9-.58-1.5-3.82-5.55-12.72-2.55-2.44-2.2 6.83-3.24 7.87-1.27 3.6 2.44.9-4.05 6.84-3.48 5.55 4.17 1.04-6.03 15.4-1.74 3.7 2.32.7 3.12.57-6.25 12.6-3.12 5.68-.93 2.43 45.13 1.5-.46-2.54-2.43-6.6z"/><path fill="#9ce2d6" d="M481.1 235.8L475 223.68l3.23-.93-1.26-2.43-4.74-12.37 2.3-1.16-1.72-3.24-5.56-11.45-1.4-2.78 2.9-.58-1.5-3.82-5.55-12.72-1.3-1.25 1.42 6.1.56 5.67.47 4.98-4.17.92 2.66.93 2.08 6.25 1.28 8.68V207l-3.13 1.04-5.2-.7 1.38 1.4 4.86 1.16 2.9 4.62 1.14 5.56.24 3.35-5.1.35-4.05-.58-4.28-.1 2.66 1.84 4.3.8 3.7.7 1.5 9.72s-.03 4.4-.02 8.18l18.42.62-.46-2.55z" style="mix-blend-mode:multiply"/><path fill="#2eaa81" d="M455.25 237.46l2.62-.93-1.24-4.32-8.33-20.35 3.55-.16 2.16-.32-4-8.63-8.8-14.97 2.48-.77-2-4.47-4.5-12.03 2.8-1.08-1.7-3.4-6.95-14.34 2.63-.62-2.47-3.7-6.03-9.26-3.7 5.55-2.78 5.87-2.63 4.94 3.55.3 1.23.3-5.25 7.88-2.46 3.86 2.3.3 2.8.47-11.12 20.2-4.63 8.2-.47 1.22 5.24-.32 2.63.62-4.63 8.02-4.94 8.02-4.94 6.48v.93l8.17-.16-2.93 6.63-4 8.33-7.73 13.12 70.68.92-2.17-4.47-2.45-7.87z"/><path fill="#259e72" d="M422.27 152.8l1.27.57.58-3.47-.7-.23-1.15 3.13zM425.16 148.98l-.1 3.24 1.37.58-.1-3.36-1.17-.46zM429.44 155.57l-.1 4.28 1.5-.1-.7-4.4-.7.22zM421.7 165.76l1.15.46.8-4.63-.92.45-1.04 3.7zM424.7 163.67l-.23 3.94 1.4.24-.13-3.82-1.04-.35zM429.9 162.86l.47 3.36 1.04-.23-.45-2.44-1.04-.7zM432.45 160.9c.12.34.93 2.77.93 2.77l1.04-.92-1.16-2.43zM418.68 181.38l1.5.1.82-3.7-.58-.34-1.74 3.94zM417.18 177.2l1.15.13.58-3.36-.8.23-.92 3zM426.1 176.86l.22 6.02 2.08-.46-1.15-5.56h-1.16zM430.6 174.2l.7 2.78 1.38-.8-1.15-2.2-.93.22zM435.7 183.34l.8 4.17.93-.45-.93-4.17-.8.46zM417.18 194.8l1.5.7.7-5.44-.8-.12-1.4 4.86zM420.65 188.67v3.24l1.5-.22-.46-3.36-1.05.35zM433.6 200.93l.36 6.48 1.73-.57-1.05-6.36-1.04.46zM435.7 198.27l1.26 5.1 1.63.1-1.75-5.55-1.16.35zM413.7 211.1l1.5.82 1.4-4.97-.8-1.4-2.1 5.56zM418 204.06l-.24 4.16 1.15-.1-.22-4.3-.7.24zM422.96 214.35l1.4.24.34-5.34-1.04-.23-.7 5.32zM436.5 228.24l.58 5.1 1.16-.47-.93-4.63h-.8zM438.6 225l1.26 4.28 1.73-.8-1.63-4.75-1.38 1.27zM435.1 220.25l.13 5.1h1.4l-.13-5.2-1.4.1zM411.4 235.3l2.42.1 1.28-7.16-1.4-.23-2.3 7.3zM416.37 230.55h1.4v-4.5l-1.17.34-.23 4.15zM407.92 222.1l1.62-.1.8-5.56-1.15.1-1.28 5.57zM403.3 242.6s1.84.33 1.84 0 1.04-5.1 1.04-5.1l-1.5.46zM426.1 242.82l1.38.46v-6.48l-1.05.35-.34 5.67zM446.92 236.8l.46 3.7 1.16-.92-.35-3.13-1.28.35z"/><path fill="#9ce2d6" d="M455.25 237.46l2.62-.93-1.24-4.32-8.33-20.35 3.55-.16 2.16-.32-4-8.63-8.8-14.97 2.48-.77-2-4.47-4.5-12.03 2.8-1.08-1.7-3.4-6.95-14.34 2.63-.62-2.47-3.7-4.52-6.93 1.2 4.92.45 5.56-4.63.85-2 .47 3.24.15 3.78.08 1 11.8.4 4.48-2.17.07-4.25-.7-1.6-.07 2.7 1.47 3.38.77 1.54 9.64.77 5.5v2l-3.94.77-3.7.23-2.24-.16 1.7.7 5.1.38 1.92 3.17 5.24 12.64 1.16 4.62-.08 1.3-4 .63-4.4.07-4.94-.46 4.4 1.32 4.62 1.23h2.63l.84 3.7.78 14.04v4.3l-.07 1.25-3.3.3-3.25.24-8.95-.32-4.47-.92 3.86 2.23 4.92.84 3.94 2.47 1.42 7.4 29.9.4-2.17-4.47-2.45-7.87z" style="mix-blend-mode:multiply"/><path fill="#a57132" d="M475.44 174.3l-6.42-3.95 5.53 4.84 2.86 2.66 2.28 2.07-.1-2.37-4.14-3.26zM472.97 196.2l-7.9-4.93 6.32 5.03 4.73 4.05 3.26 2.37-.1-2.57-6.33-3.94z"/><path fill="#8c5c23" d="M479.68 168.48l.2 2.47 5.92-5.82 4.74-4.34-5.23 3.44-5.62 4.24zM479.98 190.1v2.36l3.16-2.57 5.72-4.74 7-6.42-7.2 4.84-8.68 6.5zM486.6 203.02l-6.23 4.63v3.75l4.54-4.24 6.13-5.82 7.1-7.7-3.35 2.47-8.2 6.92z"/><path fill="#a57132" d="M480.57 185.45l-.4-18.15-.78-12.24-.2 12.43-1 30.38v23.5l-.4 11.44-.4 9.86v1.98l5.74-.2-.8-13.42-1.77-45.6z"/><path fill="#8c5c23" d="M480.57 185.45l-.4-18.15-.25-4.04-.34 3.15.1 10.07-.1 19.24.3 23.5.3 17.27-.08 8.1 3.04-.1-.8-13.43-1.77-45.6z"/><path fill="#75aa31" d="M496.95 183.87l-6.7 3.36-3.17 6.5.7 8.1 4.24 3.75 6.7 1.2 5.83-1.9s3.06-5.9 3.06-6.2 1.4-7.8 1.4-7.8l-4.55-4.44z"/><path fill="#d8efaf" d="M496.95 183.87l-2.1 1.05 2.4.73 5.13 1.87 3.55 5.23s-.4 6.02-.5 6.32c-.1.3-5.22 3.75-5.22 3.75l-7.4-1-4.53-4.23.07-6.46-1.26 2.6.7 8.1 4.24 3.74 6.7 1.2 5.83-1.9s3.06-5.9 3.06-6.2 1.4-7.8 1.4-7.8l-4.55-4.44z" style="mix-blend-mode:multiply"/><path fill="#75aa31" d="M480.67 143.32l-6.6 2.47-3.27 4.13-.2 6.4a42.24 42.24 0 0 0 2.87 3.76c.3.1 3.35 2.36 3.35 2.36l4.05.6 2.56-1.2a51.68 51.68 0 0 0 4.24-3.94c0-.3.8-6.6.8-6.6l-2.97-5.34z"/><path fill="#d8efaf" d="M480.67 143.32l-1.1.4 4.45 4.53.6 4.94-1.3 3.93-2.45 1.2h-5.63l-4.6-3.06-.04 1.07a42.24 42.24 0 0 0 2.87 3.75c.3.1 3.35 2.36 3.35 2.36l4.05.6 2.56-1.2a51.68 51.68 0 0 0 4.24-3.94c0-.3.8-6.6.8-6.6l-2.97-5.34z" style="mix-blend-mode:multiply"/><path fill="#75aa31" d="M492.7 156.84h-4.43l-3.65 2.56-1.3 4.64 1.9 5.72 4.63 3.56 5.13-.7a43.06 43.06 0 0 0 3.75-3.65c0-.3 1.38-6.3 1.38-6.3l-2.36-4.65z"/><path fill="#d8efaf" d="M492.9 168.88l-4.83-1.4-3.26-4.82.93-4.04-1.1.78-1.3 4.64 1.88 5.72 4.65 3.56 5.13-.7a43.06 43.06 0 0 0 3.75-3.65c0-.13.28-1.44.6-2.83l-2.18 1.16z" style="mix-blend-mode:multiply"/><path fill="#75aa31" d="M470.8 160.88l-3.06-1.08-6.6 1.77-3.16 5.04 1.18 6.22s3.06 4.44 3.35 4.44 6.43.6 6.43.6l4.34-2.87 2.27-5.93-1.68-5.62z"/><path fill="#d8efaf" d="M470.8 160.88l-.9-.3 1.9 2.87.98 3.95-1.68 5.42-2.86 1.88h-5.73l-2.95-4.34-1.08-4.55-.5.8 1.2 6.22s3.05 4.44 3.34 4.44 6.43.6 6.43.6l4.34-2.87 2.27-5.93-1.68-5.62z" style="mix-blend-mode:multiply"/><path fill="#75aa31" d="M468.43 182.5l-2.56-.7c-.3 0-7.2 1.18-7.2 1.18l-5.04 5.53-.2 7.02 5.04 5.52 7.9 2.17 3.94-4.13 2.87-7-2.17-6.72z"/><path fill="#d8efaf" d="M468.43 182.5l-2.56-.7c-.08 0-.6.08-1.35.2l2.93 2.86 2.17 5.43-1 5.6-3.84 3.07s-4.34-.9-4.64-.9-3.94-1.66-4.24-1.76a30.23 30.23 0 0 1-2.4-3l-.06 2.22 5.03 5.52 7.9 2.17 3.94-4.13 2.87-7-2.17-6.72z" style="mix-blend-mode:multiply"/><path fill="#2eaa81" d="M683.75 232.25l2.4-.85-1.13-3.96-7.63-18.66 3.24-.14 1.98-.28-3.68-7.92-8.05-13.7 2.25-.7-1.84-4.1-4.08-11.03 2.54-.98-1.56-3.1-6.36-13.16 2.4-.56-2.26-3.4-5.5-8.47-3.4 5.08-2.54 5.38-2.4 4.53 3.24.3 1.14.27-4.8 7.2-2.27 3.54 2.12.3 2.54.42-10.16 18.52-4.24 7.48-.43 1.14 4.8-.3 2.4.58-4.23 7.35-4.52 7.34-4.53 5.94v.84l7.5-.14-2.7 6.08-3.67 7.63-7.07 12 64.73.85-2-4.1-2.25-7.2z"/><path fill="#259e72" d="M653.54 154.7l1.17.52.54-3.18-.64-.2-1.06 2.85zM656.2 151.2l-.12 2.96 1.28.53-.1-3.1-1.07-.4zM660.1 157.23l-.1 3.92 1.4-.1-.65-4.03-.64.2zM653 166.56l1.07.42.74-4.23-.84.42-.95 3.4zM655.77 164.65l-.2 3.6 1.26.22-.1-3.5-.96-.32zM660.54 163.9l.42 3.08.95-.2-.4-2.24-.96-.63zM662.87 162.1c.1.33.85 2.55.85 2.55l.95-.85-1.06-2.22zM650.25 180.87l1.38.1.74-3.4-.53-.3-1.6 3.6zM648.88 177.06l1.06.1.53-3.07-.75.2-.85 2.76zM657.04 176.74l.2 5.5 1.92-.42-1.06-5.08h-1.06zM661.17 174.3l.64 2.54 1.28-.74-1.06-2-.85.2zM665.84 182.67l.74 3.82.85-.44-.85-3.8-.75.4zM648.88 193.16l1.37.64.64-4.98-.75-.1-1.27 4.44zM652.06 187.55v2.96l1.38-.2-.43-3.07-.94.32zM663.93 198.78l.32 5.94 1.6-.53-.97-5.84-.95.42zM665.84 196.35L667 201l1.5.12-1.6-5.1-1.06.33zM645.7 208.1l1.37.75 1.28-4.56-.75-1.28-1.9 5.1zM649.62 201.65l-.22 3.8 1.07-.1-.22-3.92-.63.22zM654.18 211.08l1.27.2.32-4.86-.96-.2-.62 4.86zM666.58 223.8l.53 4.66 1.07-.42-.85-4.24h-.74zM668.5 220.83l1.15 3.92 1.6-.74-1.5-4.33-1.26 1.16zM665.3 216.5l.1 4.65h1.28l-.1-4.77-1.27.1zM643.58 230.27l2.22.1 1.17-6.57-1.27-.2-2.12 6.67zM648.13 225.92h1.27v-4.13l-1.05.3-.22 3.82zM640.4 218.18l1.48-.1.74-5.1-1.06.1-1.16 5.1zM636.16 236.94s1.7.32 1.7 0c0-.3.95-4.66.95-4.66l-1.37.42zM657.04 237.16l1.27.42v-5.94l-.94.32-.32 5.2zM676.12 231.64l.42 3.4 1.06-.85-.32-2.87-1.16.3z"/><path fill="#9ce2d6" d="M683.75 232.25l2.4-.85-1.13-3.96-7.63-18.66 3.24-.14 1.98-.28-3.68-7.92-8.05-13.7 2.25-.7-1.84-4.1-4.08-11.03 2.54-.98-1.56-3.1-6.36-13.16 2.4-.56-2.26-3.4-4.12-6.34 1.1 4.5.4 5.1-4.23.77-1.84.43 2.96.14 3.47.07.9 10.8.37 4.1-1.98.08-3.9-.63-1.47-.07 2.47 1.34 3.1.7 1.42 8.83.7 5v1.85l-3.6.7-3.4.22-2.04-.14 1.56.64 4.66.35 1.77 2.9 4.8 11.58 1.05 4.25-.07 1.2-3.67.56-4.02.07-4.52-.4 4.03 1.2 4.23 1.12h2.4l.78 3.4.72 12.86v3.95l-.08 1.13-3.04.3-2.96.2-8.2-.3-4.1-.83 3.53 2.04 4.53.78 3.6 2.26 1.3 6.8 27.4.35-2-4.1-2.25-7.2z" style="mix-blend-mode:multiply"/><path fill="#2eaa81" d="M638.6 239.25l-6.14-12.15 3.24-.92-1.27-2.43-4.74-12.38 2.3-1.16-1.74-3.23-5.55-11.46-1.38-2.76 2.9-.58-1.5-3.82-5.56-12.73-2.55-2.42-2.2 6.83-3.23 7.88-1.27 3.6 2.43.9-4.05 6.84-3.47 5.55 4.18 1.04-6.02 15.4-1.74 3.7 2.32.7 3.12.58-6.25 12.6-3.1 5.68-.94 2.43 45.13 1.5-.47-2.55-2.43-6.6z"/><path fill="#9ce2d6" d="M638.6 239.25l-6.14-12.15 3.24-.92-1.27-2.43-4.74-12.38 2.3-1.16-1.74-3.23-5.55-11.45-1.38-2.78 2.9-.58-1.5-3.82-5.56-12.73-1.3-1.23 1.4 6.1.6 5.67.45 4.98-4.15.92 2.66.93 2.1 6.25 1.27 8.67v2.54l-3.13 1.04-5.2-.7 1.38 1.4 4.86 1.15 2.9 4.63 1.15 5.56.23 3.35-5.1.35-4.04-.58-4.28-.12 2.66 1.85 4.28.82 3.7.68 1.5 9.72s-.03 4.4-.02 8.18l18.43.62-.47-2.55z" style="mix-blend-mode:multiply"/><path fill="#8c5c23" d="M668.07 196.6l.47-22.26.23-10.48-.35-8.12h-.7l-.36 8.7-.47 13.55-1.9 31.18-.35 26.25-.35 16.6 5.3-.47-1.18-26.6-.35-28.37zM675.3 179.66l-1.76 1.86-2.82 2.3-3.1 1.23.18 1.6 2.12-.72 2.03-.97 2.2-2.03 1.5-2.03.98-2.3-.62-.26-.7 1.32zM661.9 174.72l-2.4-2.82-1.5-3.36-.6.18.78 2.65 1.76 3.17 2.4 2.4 2.64 1.22 2.56.53.17-1.68-3.25-.53-2.56-1.78zM679.72 191.4l-1.4 3.63-2.57 3.1-3.1 2.2-5.46.88v1.5h2l3.63-.96 2.74-1.77a33.12 33.12 0 0 0 2.65-3l1.68-3.27.88-4.23h-.7zM658.97 192.47l-2.9-5.12-.9-4.06-.6.16.52 3.8 1.5 3 1.58 2.82 2.2 2.3 3.27 1.6 3.18.52v-1.86l-4.33-.8-3.53-2.37zM672.22 160.5l-1.5 1.24-2.4.62-.25 1.15 1.5-.17 1.32-.53 1.32-.8.8-1.4.34-1.95h-.53l-.6 1.86z"/><path fill="#3caa47" d="M689.08 181.25l-4.95-.35-6 2.3-3.18 4.85.88 5.83 3.18 4.24 6.46 1.76 4.77-2.2s2.73-2.74 2.82-3c.1-.27.97-6.28.97-6.28l-1.6-4.67z"/><path fill="#349b3b" d="M689.08 181.25l-3.56-.25.38.52 3.8 1.4 2.1 3.1s-.52 4.95-.6 5.2c-.1.28-3.18 3.28-3.18 3.28l-4.68 1.32-6.1-2.03-1.82-2.63.4 2.7 3.2 4.25 6.44 1.76 4.77-2.2s2.73-2.74 2.82-3c.1-.27.97-6.27.97-6.27l-1.6-4.67z"/><path fill="#3caa47" d="M681.22 168.63l-4.6.62-2.64 1.23-2.82 3.45.44 5.2 2.47 3.54 6 1.76 4.06-1.32 2.56-3.8 1.14-6.17-2.38-3.35-4.24-1.15z"/><path fill="#349b3b" d="M681.22 168.63l-1.68.23 2.2.92 2.48 2.03.45 4.7-2.12 3.87-3.1.97-3.8-.1-2.46-2.37-1.35-5.8-.7.86.45 5.2 2.47 3.54 6 1.76 4.06-1.32 2.56-3.8 1.14-6.17-2.38-3.35-4.24-1.15z"/><path fill="#3caa47" d="M673.1 149.38l-3.44-.53-5.48 1.77-3.35 4.94-.62 5.92 3 5.3 4.43 2.2 6.44-.88 3.62-3.62 1.22-6.1-1.76-5.9-4.06-3.1z"/><path fill="#349b3b" d="M673.1 149.38l-3.36-.5 4.68 2.36 2.4 2.65.52 6.25-2.4 4.24-4.58 2.1-5.12-1.75-3.88-4.16.07-5.92-.6.88-.62 5.92 3 5.3 4.43 2.2 6.44-.88 3.62-3.62 1.22-6.1-1.76-5.9-4.06-3.1z"/><path fill="#3caa47" d="M656.32 156.9l-5.12 1.75-3.26 4.86-.27 7.07 4.15 3.36 5.3 1.85 5.03-1.94 3.44-6.1v-5.73l-3.45-3.96-5.83-1.15z"/><path fill="#349b3b" d="M656.32 156.9l-2.2.75 4.24 1.1 3.17 3.35.45 5.12-3.27 4.68-5.02.7-4.42-3.44-1.4-3.6-.2 5 4.16 3.37 5.3 1.85 5.03-1.94 3.44-6.1v-5.73l-3.45-3.96-5.83-1.15z"/><path fill="#3caa47" d="M657.56 177.8l-5.65.28-3.96 2.73-2.4 5.58 1.96 6.88 4.85 3h5.12l3.8-1.94 2.47-4.94.18-6.1-3.53-3.53-2.84-1.94z"/><path fill="#349b3b" d="M657.56 177.8l-.9.05 4.26 4.2.7 3.97-1.4 3.88-4.16 3.1s-4.5-.36-4.86-.53-3.7-3.9-3.7-3.9l-.27-4.5.38-2.5-2.05 4.8 1.95 6.9 4.85 3h5.12l3.8-1.95 2.47-4.94.18-6.1-3.53-3.53z"/><path fill="#75aa31" d="M786.45 232.86l-9.37-10.93 4.7-.44 3.56-.24-3.8-6.47-8.92-18.07-4-6.9 6-.68 3.35-.44-3.8-6.02-4.67-7.8-5.8-8.92 3.57-1.1 2.23-.68-4.24-5.36-7.8-10.03-8.25 11.8-2.9 6.03 5.14.9-.67 2.44-12.04 14.95 3.8.9h4.67l-9.36 14.7-10.26 12.94 3.12 1.1 4.9-.66-9.36 13.6-7.58 12.5-1.78 4.23 77.6.9-.9-3.8-7.13-8.47z"/><path fill="#709e2d" d="M763.03 181.34l2 4.8 1.57-.67-2.56-4.68-1 .54zM766.27 180.8l1.23 3.1 1.22-.2-2-3.25-.45.34zM746.3 181.24l1.68.78 2.35-3.8-.34-.9-3.7 3.92zM749.54 183.47l1.34.44.67-3.33-.9-.78-1.1 3.67zM757 180.34l1.46-.1v-4.02l-.9.1-.54 4.02zM743.4 211.56l1.9.1 1.8-4.34-.8-1.22-2.9 5.46zM748.43 213.34l1 .67 1.68-4.56-.77-.9-1.9 4.8zM756.9 211.67l1.12.34.67-4-1.02-.56-.78 4.23zM769.4 209.67l1.1 4.46 1.35-.78-1.57-4.13-.9.45zM753.56 203.2l1.45.45.8-5.9-1 .32-1.24 5.13zM757 195.95l.35 4.02 1.56-.34-1.1-4.57-.78.9zM768.27 200.08l.12 3.34 1.1-.44-.22-2.9h-1zM737.28 207.88l1.56.78 1-4.57-1-.23-1.56 4zM749.43 198.3l1.12.33.33-3.46h-.78l-.67 3.12zM751.33 239.54l2 .12 1.12-5.35-1.78-.78-1.34 6.02zM757.13 230.07l.22 3.68 1.23-.56-.45-3.47-1 .34zM747.43 228.4l1.33.78 1.23-5.8-.8-.1-1.77 5.12zM769.5 232.86l2.12 4.46 1.12-.78-2.57-4.57-.67.9zM733.04 234.75l2 .9 1.46-5.47-1.12.1-2.34 4.47zM769.17 222.6l.67 3.34 1.33-1.1-.9-3.25-1.1 1zM755.68 164.96l1.45.22.66-3.23-.78-.45-1.34 3.46z"/><path fill="#d8efaf" d="M786.45 232.86l-9.37-10.93 4.7-.44 3.56-.24-3.8-6.47-8.92-18.07-4-6.9 6-.68 3.35-.44-3.8-6.02-4.67-7.8-5.8-8.92 3.57-1.1 2.23-.68-4.24-5.36-5.3-6.8 3.2 6.8-2.47 5.24-4.7 3.24 5.14 3.68 5.58 13.27.77 3.9-10.82.78-4.13-.45 2.46 2 7.8 1.35 4.25 22.96.1 6.24-10.58.9-15.6-2.57 8.57 3.34 9.82 1.8 2.78 13.48 1.15 6.78 31.18.36-.9-3.8-7.13-8.46z" style="mix-blend-mode:multiply"/><path fill="#93b723" d="M748.14 195.23l-5.83-1.02 5.62-4.58.44-4.23-1.97-3.88-3-1.1-5.76 1.7 1.3-3.44-.72-4.38-3.86-2.77-4.6.95-3.64 3-1.32 4.95.07 4.6 1.25 2.84-6.35 1.24-4.16 5.62-.57 7.3 2.9 3.5 6.36 2.33-5.2 6.7-.35 5.85 2.55 6.12 4.1 2.4 4.87.74 6.93-3.2 4.96 4 3.5-1.1 3.07-3.86-.5-6.27-5.34-5.32 8.6-4.22 1.9-5.47-1.32-5.4-3.94-3.57z"/><path fill="#d7e0a4" d="M748.14 195.23l-5.83-1.02 5.62-4.58.44-4.23-1.97-3.88-3-1.1-5.76 1.7 1.3-3.44-.72-4.38-3.86-2.77-1.82.37 2.55 1.38 1.8 3.2-.14 3.3-1.1 2.98-1.16 1.75 7.95.96.95 2.4-.36 2.05-1.54 2.34-2.18 1.03 3.5 2.04 4.45 3.07.22 3.36-.6 4.88-1.1 3.08-2.7 1.82-2.47.88-1.75.3 3.35 5.1 1.83 3.86-.6 2.7a8.62 8.62 0 0 1-1.44 1.24 29.2 29.2 0 0 1-3-1.53 30.5 30.5 0 0 1-1.67-2.56l-2.7 1.38-3.5 2.55a19.3 19.3 0 0 1-2.92 1.02 16.07 16.07 0 0 1-3.14-1.1c-.23-.3-2.5-2.33-2.85-2.76a20.27 20.27 0 0 1-1.6-3.37c-.15-.5-.66-3.72-.66-3.72l.47-2.7-1.36 1.76-.35 5.84 2.55 6.12 4.1 2.4 4.87.74 6.93-3.2 4.96 4 3.5-1.1 3.07-3.86-.5-6.27-5.34-5.32 8.6-4.22 1.9-5.47-1.32-5.4zM737.64 195.53l.3 1.38 1.08.52 1.46-.8.22-1.53-1.82-.8-1.24 1.23zM737.8 190.42l.7 1.17.96.14.6-1.25-1.25-.88-1 .8zM728 178.68l.8 1.53 1.18-.06 1.02-1.97-1.6-1.1-1.4 1.6zM722.9 215.07a12.74 12.74 0 0 0 1.17 2.48c.22 0 1.68 0 1.75-.36.08-.37.73-2.86.73-2.86l-1.82-.94zM721.15 198.73s.44 1.03.73.88.88-.2.95-.43c.07-.2.3-1.75.3-1.75l-1.6.22zM719.4 196.84l.88.58 1.02-.65v-1.4l-1.02.16-.88 1.3zM736.1 191.3l-.58.87.3 1.3 1.24.45.58-.8-.3-1.17-1.23-.65zM727.28 214.56l.22 1.46.95.3.65-.95-.3-1.46-1.52.66z" style="mix-blend-mode:multiply"/><path fill="#8c5c23" d="M733.14 189.35l-.05 1.6 3.3-2.77 4.03-3.45-3.64 1.95-3.66 2.67zM739.27 205.93l-5.98 4.62-.2 2.14 1.1-1.18 3.85-3.35 3.9-3.5 3.78-3.36-2.18 1.57-4.28 3.06z"/><path fill="#a57132" d="M727.2 195.1l-3.6-2.06 1.9 1.66 4.24 3.1 3.16 2.2.1-2.1-1.76-.53-4.03-2.28zM733.77 200.5l-.38-11.98-.4-7.68-.3 9.24-.38 16.92-.6 18.48-.28 14.5-.3 5.15-.2 2.8 3.9-.08-1.07-26.16v-21.2z"/><path fill="#8c5c23" d="M733.77 200.5l-.4-11.98-.15-3.22c-.06 1.46-.1 2.83-.14 3.7-.02.58-.04.95-.04.98 0 .22.08 6.35.08 6.35l-.08 11.37-.3 13.5.23 16.27s-.1 7.25-.17 10.43l2.04-.05-1.07-26.16z"/><path fill="#2eaa81" d="M765.85 247.78l-5.02-9.93 2.65-.76-1.04-2-3.9-10.1 1.9-.96-1.42-2.64-4.55-9.37-1.14-2.27 2.37-.47-1.23-3.13-4.55-10.4-2.1-2-1.8 5.6-2.65 6.42-1.04 2.92 2 .76-3.34 5.58-2.85 4.54 3.42.85-4.94 12.58-1.42 3.02 1.9.57 2.57.47-5.12 10.3-2.57 4.63-.75 2 37 1.22-.38-2.08-2-5.4z"/><path fill="#9ce2d6" d="M765.85 247.78l-5.02-9.93 2.65-.76-1.04-2-3.9-10.1 1.9-.96-1.42-2.64-4.55-9.37-1.14-2.27 2.37-.47-1.23-3.13-4.55-10.4-1.07-1 1.16 4.97.48 4.63.38 4.07-3.4.76 2.17.75 1.7 5.1 1.05 7.1v2.08l-2.56.85-4.27-.56 1.14 1.13 3.97.95 2.38 3.78.94 4.54.18 2.74-4.17.28-3.3-.47-3.52-.1 2.18 1.52 3.5.65 3.05.57 1.24 7.94s-.03 3.6-.02 6.7l15.1.5-.37-2.1z" style="mix-blend-mode:multiply"/><path fill="#d7e0a4" d="M688.05 249.74l-6.68.32-3.17 1.12.3 2.06 12.9 1.75 5.24-.8-.16-3.18-8.43-1.28z" style="mix-blend-mode:multiply"/><path fill="#7f5741" d="M695.76 236.67l-.8-1.42h-.22l-.05.2-.72 1.95.17 1.16.57 2-.14.4.14.54.93.5-.17-1.5.3-2.5-.02-1.33z"/><path fill="#684838" d="M693.95 251.18l-1.07-.34-1.44.42.1.68 1.06.4 1.3.06h.87v-.35l.2-.17-.14-.22-.88-.48z"/><path fill="#a16b50" d="M696.05 242.32l-.74-.93-1.38-1-1.18-1.5-1.76-1.2-1.4-.6-.3-.15-.53.65.4 1.02 1.35.96 2 1.87.15.34-.22.58-.65.8-.74-.1h-.8l-3.75-.84-2.6.56-2.8.94-1.3 3.53-.3 3.14 1.27 1.2.5.28-.13.57 1.16.1 1.13.2 2.43.5h.68l.06-.3h.23v-.6l.96-.3 1.03-.4.03.2 1.1.37.46.43 1.24.17 1.27.25.5-.25-.07-.4-.45-.53-1.1-.16 1.4-.68.8-1 .86-1.23.2-1.08.42-.28.03-.4h1.08l.68-.7.23-.77-.5-.96-.95-2.3z"/><path fill="#c79473" d="M697.25 245.64l-.14.2-.18.25.08.22h.28l.2-.72v-.03l-.23.07z"/><path fill="#7f5741" d="M696.24 246.72l-.22.1h-.33l-.3-.18-.2-.43-.02-.28h-.22l.1.63.37.38.18.14h.84l-.08-.2.45-.23.2-.32-.28.2-.48.2zM695.23 247.16l-.4.34-.6.42-.73 1.28-1.78 1.67-.45.25-.54-.25-.2-.03v.14l.28.28.32.17.68.3 1.4-.67.8-1 .86-1.23.2-1.07.42-.3.03-.38h.13c-.05-.1-.1-.17-.1-.17zM687.5 250.47l-1.55-.1-.8-.38-.5-.9-.23-.38.2.84v.85l-.85.66-.74.23.15.16.93.08 1.03.1 1.02.1.6.37.08.26.96-.3.93-.36.1-.33.17-.5v-.5h-.34l-1.16.1zM685.44 252.42l-1.4-.2h-1.6l-.22-.3-.74-.38.74-.6v-.27l-.63-.1-.74-.27-.78-.1.3-.9-.04-1.14.22-1.25.8-2.67.57-.52.63-.3.07-.16-1.52.5-1.3 3.53-.3 3.14 1.27 1.2.5.28-.13.57 1.16.1 1.13.2 2.43.5h.34l-.03-.52-.73-.3z"/><path fill="#684838" d="M686.17 252.42l.26.48.02.34h.1l.05-.28h.2l-.26-.4-.37-.14z"/><path fill="#7f5741" d="M691.94 252.53l-.2-.17.15-.25.67-.1-.34-.1h-.4l-.45.13-.34.22-.54-.25-.73-.23-.65-.34-.3-.28v.4l-.05.13.06-.02.03.2 1.1.36.46.43 1.24.17 1.27.25.08-.04-1.06-.5z"/><path fill="#c79473" d="M691.75 239l-1.27-.66-1.14-.88-.05.25.16.72.96.7 1.02.77.84.64.5.23-.5-.94-.53-.84z"/><path fill="#7f5741" d="M693.84 246l-.43-.4-.3-.64-.42-1.02.15-.62.22-1.78-.6-.7-.56.03.6.58.13.28.02.06-.22.58-.65.8-.14-.02.33.97.28.48.9 1.06.77.77.97.45v-.2l-.55-.34-.5-.34zM693.66 240.07l-.25.64.07.52.1.4.18-.5.43-.54-.25-.18-.26-.33z"/><path fill="#c49a77" d="M690.98 237.7l-1.4-.6-.3-.15-.28.34.36-.02.92.4.78.4 1.6.96.45.34-.36-.48-1.76-1.2zM692.9 251.88l-.22-.02-.03.36.37.23s.2.25.32.42l.1-.05-.08-.4zM686.5 242.24l-2.6.56-.73.25.17.06 1.2-.03 2.53-.3 1.97.34.94.25.63-.26h-.35l-3.76-.86zM696.05 242.32l-.74-.93-.8-.6.2.5.03.34-.22.62.62.2.57.13.62.68.45 1.34.32.5.16.03-.25-.5-.95-2.33z"/><path fill="#7f5741" d="M695.64 243.24l-.1-.36-.32-.3-.34-.12-.36.13.17.34.07.3.32.3.37.13.24.25.13-.08-.1-.26-.1-.34z"/><path fill="#c79473" d="M695.3 242.86l-.3-.1-.12.12v.22l.25.08.37.23-.1-.3-.1-.24z"/><path fill="#7f5741" d="M695.05 242.8l-.13.1v.1l.08.1.2.06.08-.04.03-.12-.03-.1-.22-.1z"/><path fill="#6d5341" d="M695.08 242.9l-.05.04v.06l.08.03.08-.02v-.07l-.1-.02z"/><path fill="#7f5741" d="M696.17 246.12v.16l.12.06.1-.07-.1-.12-.13-.03zM695.9 246.32v.1l.08.08.1-.06-.03-.13-.16.02zM695.92 245.94v.1l.13.03.03-.08-.05-.14-.1.08zM695.72 246.07l-.02.08.03.07.06-.05-.03-.04-.05-.06zM696.2 245.84v.06l.04.08h.05v-.08l-.04-.08-.06.02zM695.64 245.75v.05l.07.08h.1l-.03-.12h-.13z"/><path fill="#75aa31" d="M542.98 235.7l-9.72-11.32 4.86-.47 3.7-.22-3.93-6.7-9.27-18.75-4.16-7.18 6.25-.7 3.47-.46-3.95-6.26-4.86-8.1-6.02-9.25 3.7-1.17 2.3-.7-4.38-5.55-8.1-10.4-8.57 12.25-3 6.25 5.32.93-.7 2.55-12.5 15.5 3.94.93h4.85l-9.72 15.28-10.64 13.42 3.23 1.16 5.1-.7-9.73 14.12-7.87 12.96-1.85 4.4 80.53.92-.9-3.93-7.42-8.8z"/><path fill="#709e2d" d="M518.68 182.25l2.1 4.98 1.6-.7-2.66-4.85-1.04.57zM522.04 181.68l1.27 3.24 1.28-.23-2.08-3.37-.46.35zM501.33 182.14l1.73.8 2.43-3.92-.36-.93-3.8 4.04zM504.68 184.46l1.4.46.68-3.47-.92-.8-1.16 3.8zM512.43 181.22l1.5-.12v-4.17l-.92.12-.57 4.16zM498.32 213.62l1.96.1 1.85-4.5-.8-1.28-3 5.68zM503.52 215.47l1.05.7 1.73-4.76-.8-.9-1.98 4.97zM512.32 213.73l1.15.35.7-4.17-1.04-.57-.8 4.4zM525.28 211.65l1.15 4.63 1.4-.8-1.63-4.3-.92.47zM508.85 204.93l1.5.47.8-6.14-1.03.35-1.27 5.33zM512.43 197.4l.35 4.18 1.62-.35-1.16-4.74-.8.9zM524.12 201.7l.12 3.47 1.15-.47-.24-3h-1.04zM491.95 209.8l1.62.8 1.04-4.74-1.03-.23-1.62 4.16zM504.57 199.84l1.15.35.35-3.6h-.8l-.7 3.24zM506.53 242.66l2.08.1 1.17-5.54-1.85-.8-1.4 6.24zM512.55 232.82l.23 3.82 1.27-.58-.46-3.6-1.05.36zM502.48 231.1l1.4.8 1.26-6.02-.8-.12-1.86 5.33zM525.4 235.7l2.2 4.64 1.15-.8-2.66-4.75-.7.9zM487.56 237.68l2.08.93 1.5-5.66-1.15.1-2.44 4.64zM525.05 225.07l.7 3.47 1.38-1.16-.93-3.35-1.15 1.04zM511.05 165.25l1.5.23.7-3.36-.82-.46-1.38 3.6z"/><path fill="#d8efaf" d="M542.98 235.7l-9.72-11.32 4.86-.47 3.7-.22-3.93-6.7-9.27-18.75-4.16-7.18 6.25-.7 3.47-.46-3.95-6.26-4.86-8.1-6.02-9.25 3.7-1.17 2.3-.7-4.38-5.55-5.5-7.06 3.3 7.06-2.55 5.44-4.86 3.36 5.3 3.8 5.8 13.78.8 4.06-11.2.8-4.3-.46 2.55 2.1 8.1 1.37 4.4 23.84.1 6.48-10.98.93-16.2-2.67 8.9 3.5 10.2 1.84 2.9 14 1.18 7.03 32.36.37-.9-3.93-7.42-8.8z" style="mix-blend-mode:multiply"/><path fill="#93b723" d="M559.16 188.5l-6.97-1.23 6.7-5.5.52-5.05-2.35-4.62-3.58-1.3-6.9 2 1.57-4.1-.87-5.23-4.62-3.32-5.5 1.14-4.35 3.56-1.57 5.93.1 5.48 1.47 3.4-7.6 1.5-4.96 6.7-.7 8.72 3.5 4.2 7.58 2.78-6.2 8.02-.43 6.98 3.05 7.32 4.9 2.88 5.83.87 8.28-3.84 5.93 4.8 4.2-1.3 3.66-4.62-.6-7.5-6.38-6.37 10.3-5.04 2.26-6.54-1.57-6.46-4.7-4.27z"/><path fill="#d7e0a4" d="M559.16 188.5l-6.97-1.23 6.7-5.5.52-5.05-2.35-4.62-3.58-1.3-6.9 2 1.58-4.1-.88-5.23-4.62-3.32-2.17.45 3.05 1.65 2.18 3.83-.17 3.93-1.3 3.58-1.4 2.1 9.5 1.13 1.13 2.9-.44 2.43-1.83 2.8-2.62 1.2 4.2 2.45 5.32 3.66.26 4-.7 5.86-1.3 3.66-3.23 2.18-2.97 1.05-2.1.33 4.02 6.1 2.18 4.63-.7 3.22a10.3 10.3 0 0 1-1.74 1.5 34.94 34.94 0 0 1-3.58-1.84 36.12 36.12 0 0 1-2-3.06l-3.23 1.66-4.18 3.05a22.9 22.9 0 0 1-3.5 1.2 19.1 19.1 0 0 1-3.74-1.3c-.25-.35-2.96-2.8-3.4-3.3a24.14 24.14 0 0 1-1.9-4.02c-.18-.6-.8-4.45-.8-4.45l.58-3.24-1.62 2.1-.44 6.98 3.05 7.32 4.9 2.88 5.83.87 8.28-3.84 5.93 4.8 4.2-1.3 3.66-4.62-.6-7.5-6.38-6.37 10.3-5.04 2.26-6.54-1.57-6.46zM546.6 188.84l.36 1.66 1.3.6 1.75-.95.27-1.83-2.18-.96-1.5 1.48zM546.78 182.74l.87 1.4 1.14.17.68-1.48-1.48-1.04-1.22.96zM535.1 168.7l.95 1.83 1.4-.1 1.22-2.34-1.92-1.32-1.65 1.92zM529 212.2s1.13 2.97 1.4 2.97c.25 0 2 0 2.08-.43.1-.44.87-3.4.87-3.4l-2.18-1.14zM526.9 192.68s.52 1.22.87 1.05c.35-.18 1.05-.27 1.14-.53s.35-2.1.35-2.1l-1.9.27zM524.8 190.4l1.05.7 1.22-.78v-1.65l-1.22.17-1.04 1.57zM544.77 183.8l-.7 1.03.36 1.57 1.48.52.7-.96-.34-1.4-1.5-.77zM534.23 211.6l.26 1.74 1.12.35.78-1.14-.35-1.75-1.82.8z" style="mix-blend-mode:multiply"/><path fill="#8c5c23" d="M541.23 181.46l-.06 1.92 3.95-3.32 4.83-4.12-4.36 2.32-4.37 3.2zM548.55 201.28l-7.15 5.52-.23 2.56 1.34-1.4 4.6-4 4.65-4.2 4.53-4-2.6 1.86-5.13 3.66z"/><path fill="#a57132" d="M534.14 188.32l-4.3-2.44 2.26 1.97 5.06 3.72 3.78 2.62.12-2.5-2.1-.65-4.82-2.73zM542 194.77l-.48-14.3-.46-9.18-.35 11.03-.46 20.23-.7 22.1-.35 17.3-.35 6.17-.24 3.38 4.66-.1L542 220.1v-25.35z"/><path fill="#8c5c23" d="M542 194.77l-.48-14.3-.2-3.85c-.06 1.74-.13 3.38-.17 4.43-.02.7-.04 1.12-.04 1.17 0 .26.1 7.58.1 7.58l-.1 13.6-.34 16.13.27 19.45s-.1 8.67-.2 12.47l2.43-.06L542 220.1z"/></g></svg>